SplineFontDB: 3.0
FontName: GFSPorsonMod-Regular
FullName: GFS PorsonMod Regular
FamilyName: GFS PorsonMod
Weight: Regular
Copyright: Copyright (c) Greek Font Society, 1995. All rights reserved.\n\n----\n\nModified by Juan Manuel Macias from the original GFS Porson by George Matthiopoulos for the Greek Font Society.
Version: 001.000
ItalicAngle: 0
UnderlinePosition: -334
UnderlineWidth: 46
Ascent: 743
Descent: 257
InvalidEm: 0
sfntRevision: 0x00010000
LayerCount: 2
Layer: 0 0 "Back" 1
Layer: 1 0 "Fore" 0
XUID: [1021 710 1603494011 16342873]
UniqueID: 4358103
StyleMap: 0x0040
FSType: 0
OS2Version: 2
OS2_WeightWidthSlopeOnly: 0
OS2_UseTypoMetrics: 0
CreationTime: 1157731868
ModificationTime: 1521788415
PfmFamily: 17
TTFWeight: 400
TTFWidth: 5
LineGap: 42
VLineGap: 0
Panose: 2 0 0 0 0 0 0 0 0 0
OS2TypoAscent: 743
OS2TypoAOffset: 0
OS2TypoDescent: -257
OS2TypoDOffset: 0
OS2TypoLinegap: 42
OS2WinAscent: 795
OS2WinAOffset: 0
OS2WinDescent: 237
OS2WinDOffset: 0
HheadAscent: 743
HheadAOffset: 0
HheadDescent: -257
HheadDOffset: 0
OS2SubXSize: 700
OS2SubYSize: 650
OS2SubXOff: 0
OS2SubYOff: 140
OS2SupXSize: 700
OS2SupYSize: 650
OS2SupXOff: 0
OS2SupYOff: 477
OS2StrikeYSize: 50
OS2StrikeYPos: 250
OS2CapHeight: 692
OS2XHeight: 500
OS2Vendor: 'pyrs'
OS2CodePages: 00000008.00010000
OS2UnicodeRanges: c00000a0.00000048.00000000.00000000
Lookup: 260 0 0 "'mark' Mark Positioning lookup 1" { "'mark' Positioning for Bottom Accents"  } ['mark' ('DFLT' <'dflt' > 'grek' <'dflt' > 'latn' <'dflt' > ) ]
Lookup: 258 0 0 "'kern' Horizontal Kerning in Latin lookup 0" { "'kern' Horizontal Kerning in Latin lookup 0 subtable" [150,15,0] } ['kern' ('latn' <'dflt' > ) ]
MarkAttachClasses: 1
DEI: 91125

StartChar: exclam
Encoding: 33 33 2
Width: 252
Flags: W
LayerCount: 2
Fore
SplineSet
193 623 m 0
 193 645 187 664 176 680 c 0
 164 698 147 707 126 707 c 0
 106 707 89 698 76 679 c 0
 65 662 59 644 59 623 c 0
 59 573 67 500 82 404 c 0
 95 331 107 257 119 184 c 1
 133 184 l 1
 145 257 157 331 170 404 c 0
 185 496 193 569 193 623 c 0
189 48 m 0
 189 83 160 111 125 111 c 0
 89 111 61 83 61 48 c 0
 61 12 89 -16 125 -16 c 0
 161 -16 189 12 189 48 c 0
EndSplineSet
Validated: 9
EndChar

StartChar: quotedbl
Encoding: 34 34 3
Width: 426
Flags: W
LayerCount: 2
Fore
SplineSet
351 674 m 0
 351 697 330 717 307 717 c 0
 286 717 264 697 264 674 c 0
 264 659 269 625 279 572 c 0
 286 537 292 501 299 465 c 1
 315 465 l 1
 322 501 329 537 336 572 c 0
 346 625 351 659 351 674 c 0
161 678 m 0
 161 698 139 717 118 717 c 0
 97 717 74 697 74 674 c 0
 74 659 79 625 89 572 c 0
 96 537 103 501 110 465 c 1
 126 465 l 1
 133 501 139 537 146 574 c 0
 156 627 161 662 161 678 c 0
EndSplineSet
Validated: 9
EndChar

StartChar: numbersign
Encoding: 35 35 4
Width: 522
Flags: W
LayerCount: 2
Fore
SplineSet
515 424 m 1
 515 472 l 1
 402 472 l 1
 435 690 l 1
 389 690 l 1
 355 472 l 1
 203 472 l 1
 238 690 l 1
 191 690 l 1
 155 472 l 1
 34 472 l 1
 34 424 l 1
 149 424 l 1
 125 271 l 1
 5 271 l 1
 5 223 l 1
 118 223 l 1
 82 0 l 1
 129 0 l 1
 166 223 l 1
 315 223 l 1
 280 0 l 1
 328 0 l 1
 362 223 l 1
 486 223 l 1
 486 271 l 1
 370 271 l 1
 394 424 l 1
 515 424 l 1
347 424 m 1
 323 271 l 1
 171 271 l 1
 197 424 l 1
 347 424 l 1
EndSplineSet
Validated: 9
EndChar

StartChar: dollar
Encoding: 36 36 5
Width: 522
Flags: W
LayerCount: 2
Fore
SplineSet
477 170 m 0
 477 224 455 272 411 315 c 0
 385 340 340 371 275 408 c 1
 275 672 l 1
 355 667 416 613 429 534 c 1
 445 534 l 1
 445 703 l 1
 430 703 l 1
 427 682 419 667 406 659 c 1
 374 687 330 702 275 703 c 1
 275 771 l 1
 240 771 l 1
 240 703 l 1
 189 702 146 688 111 661 c 0
 73 632 54 592 54 543 c 0
 54 487 73 438 112 397 c 0
 133 375 175 342 240 299 c 1
 240 17 l 1
 139 18 79 70 62 174 c 1
 46 174 l 1
 46 -16 l 1
 61 -16 l 1
 64 4 72 20 83 32 c 1
 134 0 186 -16 240 -16 c 1
 240 -106 l 1
 275 -106 l 1
 275 -16 l 1
 332 -12 379 5 416 36 c 0
 457 70 477 115 477 170 c 0
240 426 m 1
 203 454 180 474 169 486 c 0
 145 511 133 539 133 568 c 0
 133 593 144 617 167 639 c 0
 190 661 214 672 240 672 c 1
 240 426 l 1
395 143 m 0
 395 74 346 20 275 17 c 1
 275 282 l 1
 302 263 328 245 354 226 c 0
 381 203 395 175 395 143 c 0
EndSplineSet
Validated: 9
EndChar

StartChar: percent
Encoding: 37 37 6
Width: 871
Flags: W
LayerCount: 2
Fore
SplineSet
807 258 m 0
 807 290 796 317 775 340 c 0
 754 363 727 374 696 374 c 0
 638 374 586 348 539 295 c 0
 492 242 469 187 469 128 c 0
 469 33 513 -14 602 -14 c 0
 661 -14 712 18 753 81 c 0
 789 137 807 196 807 258 c 0
663 707 m 1
 613 707 l 1
 576 658 524 634 457 634 c 0
 425 634 396 643 369 662 c 0
 343 681 316 691 289 691 c 0
 232 691 179 664 132 611 c 0
 87 559 64 504 64 445 c 0
 64 349 106 301 189 301 c 0
 245 301 295 331 340 392 c 0
 381 448 402 505 402 563 c 0
 402 576 393 607 393 619 c 1
 408 614 425 612 445 612 c 0
 488 612 531 621 575 639 c 1
 210 -14 l 1
 261 -14 l 1
 663 707 l 1
781 253 m 0
 781 204 765 154 734 103 c 0
 700 46 660 17 614 17 c 0
 571 17 549 41 549 90 c 0
 549 136 564 187 594 243 c 0
 628 307 666 339 707 339 c 0
 751 339 781 298 781 253 c 0
375 578 m 0
 375 528 360 477 331 426 c 0
 296 367 256 337 209 337 c 0
 166 337 144 363 144 415 c 0
 144 458 159 508 188 565 c 0
 221 629 257 661 294 661 c 0
 299 661 311 656 328 646 c 0
 348 635 361 628 366 626 c 1
 372 598 375 582 375 578 c 0
EndSplineSet
Validated: 9
EndChar

StartChar: ampersand
Encoding: 38 38 7
Width: 813
Flags: W
LayerCount: 2
Fore
SplineSet
779 105 m 1
 771 111 l 1
 748 78 716 61 674 61 c 0
 625 61 572 92 515 153 c 1
 550 210 586 267 621 324 c 0
 667 391 718 424 773 423 c 1
 773 454 l 1
 512 454 l 1
 512 423 l 1
 565 425 591 409 591 374 c 0
 591 354 578 321 551 274 c 0
 530 237 510 206 491 181 c 1
 446 238 399 312 351 402 c 1
 460 446 514 506 514 581 c 0
 514 620 500 651 471 674 c 0
 444 696 411 707 371 707 c 0
 326 707 288 691 259 658 c 0
 230 626 215 587 215 541 c 0
 215 508 227 458 250 393 c 1
 195 367 150 335 113 298 c 0
 68 251 45 202 45 151 c 0
 45 96 62 54 96 25 c 0
 129 -2 173 -16 229 -16 c 0
 302 -16 376 16 453 81 c 1
 514 16 571 -16 626 -16 c 0
 690 -16 741 24 779 105 c 1
458 585 m 0
 458 554 445 523 418 494 c 0
 397 470 369 450 336 434 c 1
 308 490 294 537 294 574 c 0
 294 645 321 681 375 681 c 0
 399 681 419 671 435 650 c 0
 450 631 458 609 458 585 c 0
425 109 m 1
 374 62 325 39 280 39 c 0
 195 39 134 93 134 178 c 0
 134 218 148 254 175 285 c 0
 194 308 225 332 267 358 c 1
 326 249 378 166 425 109 c 1
EndSplineSet
Validated: 41
EndChar

StartChar: quoteright
Encoding: 8217 8217 8
Width: 185
Flags: W
LayerCount: 2
Fore
SplineSet
174 605 m 0
 174 631 167 654 152 674 c 0
 136 696 115 707 90 707 c 0
 48 707 27 686 27 643 c 0
 27 616 54 593 82 593 c 0
 90 593 109 597 117 597 c 0
 126 597 131 592 131 581 c 0
 131 563 121 542 101 518 c 0
 82 495 63 480 45 473 c 1
 55 451 l 1
 82 462 109 483 134 514 c 0
 161 547 174 577 174 605 c 0
EndSplineSet
Validated: 9
EndChar

StartChar: parenleft
Encoding: 40 40 9
Width: 382
Flags: W
LayerCount: 2
Fore
SplineSet
350 -80 m 1
 274 -25 221 41 191 118 c 0
 166 182 153 266 153 370 c 0
 153 559 219 695 350 777 c 1
 339 795 l 1
 252 747 185 687 136 616 c 0
 82 538 55 453 55 360 c 0
 55 169 149 17 336 -96 c 1
 350 -80 l 1
EndSplineSet
Validated: 9
EndChar

StartChar: parenright
Encoding: 41 41 10
Width: 382
Flags: W
LayerCount: 2
Fore
SplineSet
327 331 m 0
 327 422 301 512 250 601 c 0
 196 694 128 759 47 795 c 1
 34 777 l 1
 110 729 163 664 193 581 c 0
 218 516 230 431 230 328 c 0
 230 141 165 5 34 -80 c 1
 43 -96 l 1
 127 -52 195 6 246 79 c 0
 300 157 327 241 327 331 c 0
EndSplineSet
Validated: 9
EndChar

StartChar: asterisk
Encoding: 42 42 11
Width: 402
Flags: W
LayerCount: 2
Fore
SplineSet
374 433 m 0
 374 452 353 469 312 484 c 0
 283 493 253 503 223 512 c 1
 313 539 l 2
 354 553 374 570 374 591 c 0
 374 612 355 629 334 629 c 0
 322 629 301 616 272 589 c 0
 235 555 215 537 211 534 c 1
 212 547 217 569 226 600 c 0
 235 629 239 650 239 664 c 0
 239 688 222 710 199 710 c 0
 176 710 159 688 159 664 c 0
 159 650 163 628 171 599 c 0
 180 568 184 546 185 533 c 1
 181 535 161 553 124 588 c 0
 95 615 75 628 63 628 c 0
 40 628 21 612 21 591 c 0
 21 570 42 552 83 538 c 2
 173 511 l 1
 143 502 113 492 84 483 c 0
 43 468 22 451 22 431 c 0
 22 408 38 393 61 393 c 0
 74 393 95 406 124 433 c 0
 163 469 184 487 185 488 c 1
 184 473 180 451 171 422 c 0
 163 393 159 372 159 358 c 0
 159 334 176 312 200 312 c 0
 223 312 241 334 241 357 c 0
 241 371 237 393 228 422 c 0
 217 455 211 477 210 489 c 1
 231 470 251 452 271 434 c 0
 300 407 322 394 336 394 c 0
 356 394 374 412 374 433 c 0
EndSplineSet
Validated: 9
EndChar

StartChar: plus
Encoding: 43 43 12
Width: 590
Flags: W
LayerCount: 2
Fore
SplineSet
559 232 m 1
 559 299 l 1
 329 299 l 1
 329 528 l 1
 262 528 l 1
 262 299 l 1
 32 299 l 1
 32 232 l 1
 262 232 l 1
 262 0 l 1
 329 0 l 1
 329 232 l 1
 559 232 l 1
EndSplineSet
Validated: 9
EndChar

StartChar: comma
Encoding: 44 44 13
Width: 254
Flags: W
LayerCount: 2
Fore
SplineSet
195 3 m 0
 195 26 187 47 171 65 c 0
 154 84 134 93 111 93 c 0
 82 93 59 70 59 41 c 0
 59 17 80 -8 105 -8 c 0
 113 -8 131 0 139 0 c 0
 153 0 160 -8 160 -23 c 0
 160 -62 128 -101 65 -141 c 1
 72 -151 l 1
 102 -136 129 -115 153 -88 c 0
 181 -57 195 -26 195 3 c 0
EndSplineSet
Validated: 9
EndChar

StartChar: hyphen
Encoding: 45 45 14
Width: 480
Flags: W
LayerCount: 2
Fore
SplineSet
391 232 m 1
 391 299 l 1
 101 299 l 1
 101 232 l 1
 391 232 l 1
EndSplineSet
Validated: 9
EndChar

StartChar: period
Encoding: 46 46 15
Width: 245
Flags: W
LayerCount: 2
Fore
SplineSet
186 48 m 4
 186 83 158 111 123 111 c 4
 87 111 59 83 59 48 c 4
 59 12 86 -16 123 -16 c 4
 158 -16 186 12 186 48 c 4
EndSplineSet
Validated: 9
EndChar

StartChar: slash
Encoding: 47 47 16
Width: 291
Flags: W
LayerCount: 2
Fore
SplineSet
305 713 m 1
 251 713 l 1
 -13 -113 l 1
 41 -113 l 1
 305 713 l 1
EndSplineSet
Validated: 9
EndChar

StartChar: zero
Encoding: 48 48 17
Width: 530
Flags: W
LayerCount: 2
Fore
SplineSet
501 350 m 0
 501 446 486 526 456 589 c 0
 415 673 352 715 265 715 c 0
 186 715 124 671 81 584 c 0
 46 515 29 438 29 352 c 0
 29 264 46 186 81 119 c 0
 124 34 186 -9 266 -9 c 0
 338 -9 397 35 444 124 c 0
 482 197 501 273 501 350 c 0
403 352 m 0
 403 285 394 219 376 156 c 0
 351 66 314 21 265 21 c 0
 214 21 176 66 151 155 c 0
 134 216 126 281 126 352 c 0
 126 426 134 492 149 549 c 0
 172 639 211 684 264 684 c 0
 317 684 356 639 380 550 c 0
 395 493 403 427 403 352 c 0
EndSplineSet
Validated: 9
EndChar

StartChar: one
Encoding: 49 49 18
Width: 530
Flags: W
LayerCount: 2
Fore
SplineSet
433 0 m 1
 431 31 l 1
 369 31 l 2
 342 31 329 45 329 73 c 2
 329 705 l 1
 287 705 l 1
 123 542 l 1
 169 542 l 1
 240 613 l 1
 239 73 l 2
 239 45 226 31 199 31 c 2
 138 31 l 1
 138 0 l 1
 433 0 l 1
EndSplineSet
Validated: 9
EndChar

StartChar: two
Encoding: 50 50 19
Width: 530
Flags: W
LayerCount: 2
Fore
SplineSet
483 186 m 1
 452 186 l 1
 445 127 417 97 370 97 c 2
 141 98 l 1
 142 111 149 124 161 138 c 0
 173 151 185 164 198 176 c 0
 255 226 311 276 368 326 c 1
 441 399 479 468 481 534 c 0
 482 589 465 634 428 668 c 0
 393 700 350 716 297 716 c 0
 278 716 258 714 238 709 c 0
 172 692 131 652 116 589 c 1
 123 586 132 582 144 579 c 1
 149 597 160 614 176 629 c 0
 194 647 215 658 238 663 c 0
 245 664 253 664 261 664 c 0
 293 664 321 654 345 633 c 0
 370 610 383 581 383 548 c 0
 383 481 336 401 242 308 c 0
 171 237 125 179 106 133 c 0
 89 93 81 49 82 0 c 1
 447 0 l 1
 483 186 l 1
EndSplineSet
Validated: 41
EndChar

StartChar: three
Encoding: 51 51 20
Width: 530
Flags: W
LayerCount: 2
Fore
SplineSet
473 169 m 0
 474 224 456 271 417 312 c 0
 379 353 333 375 280 378 c 1
 320 382 358 402 394 438 c 0
 433 477 451 518 448 563 c 0
 440 670 378 720 261 714 c 0
 233 713 205 705 176 688 c 0
 144 670 122 648 109 621 c 1
 114 619 118 617 123 614 c 0
 132 609 137 607 137 608 c 0
 148 625 164 639 187 651 c 0
 213 664 239 670 266 668 c 0
 329 663 368 616 368 560 c 0
 369 518 358 483 336 454 c 0
 306 415 258 394 192 389 c 1
 192 359 l 1
 244 360 287 346 321 317 c 0
 359 286 379 240 382 181 c 0
 386 85 335 18 246 23 c 0
 211 24 185 44 168 81 c 0
 153 114 142 134 137 139 c 0
 130 146 120 150 108 150 c 0
 97 150 88 147 81 140 c 0
 72 131 68 121 68 109 c 0
 68 92 75 75 89 58 c 0
 124 13 177 -9 249 -9 c 0
 310 -9 360 5 399 33 c 0
 446 64 470 109 473 169 c 0
EndSplineSet
Validated: 41
EndChar

StartChar: four
Encoding: 52 52 21
Width: 530
Flags: W
LayerCount: 2
Fore
SplineSet
493 0 m 1
 487 31 l 1
 424 31 l 2
 397 31 384 45 384 72 c 2
 384 138 l 1
 487 139 l 1
 487 194 l 1
 384 194 l 1
 384 715 l 1
 341 715 l 1
 144 354 45 162 45 139 c 1
 192 138 275 138 294 138 c 1
 294 72 l 2
 295 45 281 31 254 31 c 2
 192 31 l 1
 191 0 l 1
 493 0 l 1
294 194 m 1
 99 194 l 1
 294 544 l 1
 294 194 l 1
EndSplineSet
Validated: 41
EndChar

StartChar: five
Encoding: 53 53 22
Width: 530
Flags: W
LayerCount: 2
Fore
SplineSet
496 709 m 1
 484 724 l 1
 471 713 464 709 463 711 c 0
 356 699 252 700 151 713 c 1
 124 703 l 1
 110 397 l 1
 127 401 143 405 160 409 c 0
 187 414 216 416 245 414 c 0
 290 412 326 394 354 359 c 0
 380 327 394 290 395 247 c 0
 397 188 387 137 366 96 c 0
 341 46 302 21 250 21 c 0
 219 21 184 45 167 81 c 0
 152 114 141 134 136 139 c 0
 128 146 119 149 108 149 c 0
 97 149 88 146 81 140 c 0
 72 132 68 122 68 109 c 0
 68 92 75 75 88 58 c 0
 123 13 177 -9 249 -9 c 0
 328 -8 389 19 433 73 c 0
 472 122 491 184 489 258 c 0
 488 322 468 376 430 421 c 0
 391 467 340 492 278 497 c 0
 268 498 258 498 249 498 c 0
 230 498 212 496 193 493 c 0
 178 490 164 487 149 484 c 1
 158 633 l 1
 215 628 262 626 301 626 c 0
 324 625 376 627 456 631 c 1
 459 636 465 648 474 669 c 0
 483 688 490 702 496 709 c 1
EndSplineSet
Validated: 41
EndChar

StartChar: six
Encoding: 54 54 23
Width: 530
Flags: W
LayerCount: 2
Fore
SplineSet
499 218 m 0
 502 293 483 351 443 390 c 0
 407 425 359 442 299 442 c 0
 270 442 242 435 216 420 c 0
 197 410 181 397 168 381 c 0
 163 374 159 368 154 363 c 1
 153 383 166 417 191 466 c 0
 220 524 255 572 294 611 c 0
 345 661 397 688 451 691 c 1
 451 717 l 1
 388 714 327 694 270 658 c 0
 210 620 160 569 121 504 c 0
 82 439 61 374 57 307 c 0
 56 293 56 279 56 265 c 0
 56 186 72 122 104 74 c 0
 142 18 199 -10 276 -10 c 0
 335 -10 385 11 428 52 c 0
 474 95 498 151 499 218 c 0
404 226 m 0
 404 167 391 119 365 80 c 0
 337 41 301 21 257 21 c 0
 224 21 197 43 176 87 c 0
 155 129 145 180 145 241 c 0
 145 256 146 270 147 285 c 0
 148 304 161 327 184 354 c 0
 213 389 244 405 278 403 c 0
 362 397 404 338 404 226 c 0
EndSplineSet
Validated: 41
EndChar

StartChar: seven
Encoding: 55 55 24
Width: 530
Flags: W
LayerCount: 2
Fore
SplineSet
509 669 m 1
 509 704 l 1
 171 704 l 1
 173 726 l 1
 147 726 l 1
 122 551 l 1
 148 551 l 1
 151 563 153 575 156 587 c 0
 165 610 180 622 201 622 c 2
 447 622 l 1
 432 581 405 525 365 453 c 0
 338 405 310 357 282 308 c 0
 212 176 176 86 174 38 c 0
 173 15 187 -8 210 -8 c 0
 245 -8 267 14 276 58 c 0
 292 135 316 213 348 292 c 0
 395 408 448 534 509 669 c 1
EndSplineSet
Validated: 41
EndChar

StartChar: eight
Encoding: 56 56 25
Width: 530
Flags: W
LayerCount: 2
Fore
SplineSet
499 203 m 0
 498 253 480 299 443 340 c 0
 412 375 373 401 328 417 c 1
 417 433 462 478 464 553 c 0
 465 604 446 644 407 674 c 0
 372 702 328 715 276 714 c 0
 218 713 170 697 133 665 c 0
 92 631 71 586 71 529 c 0
 71 490 85 453 113 418 c 0
 138 386 169 362 206 347 c 1
 165 340 130 322 101 293 c 0
 70 262 54 225 53 184 c 0
 53 121 73 73 114 38 c 0
 152 6 201 -10 262 -9 c 0
 329 -9 385 9 428 44 c 0
 476 83 500 136 499 203 c 0
396 561 m 0
 398 508 365 464 297 429 c 1
 232 460 197 476 194 478 c 0
 158 502 140 533 140 571 c 0
 140 602 155 629 184 651 c 0
 211 672 241 682 273 682 c 0
 346 682 393 638 396 561 c 0
421 164 m 0
 421 119 403 82 367 55 c 0
 336 32 302 22 263 23 c 0
 225 24 192 38 164 66 c 0
 136 94 122 127 123 164 c 0
 124 241 163 297 239 334 c 1
 278 315 318 295 357 276 c 1
 400 249 421 212 421 164 c 0
EndSplineSet
Validated: 41
EndChar

StartChar: nine
Encoding: 57 57 26
Width: 530
Flags: W
LayerCount: 2
Fore
SplineSet
48 491 m 0
 46 416 65 358 104 319 c 0
 140 284 188 267 248 267 c 0
 277 267 305 274 331 289 c 0
 350 299 366 312 380 328 c 0
 384 335 388 341 393 347 c 1
 394 326 381 292 356 243 c 0
 327 185 292 137 253 98 c 0
 202 48 150 21 96 18 c 1
 96 -8 l 1
 159 -5 220 15 277 51 c 0
 337 89 386 140 425 205 c 0
 464 270 486 335 490 402 c 0
 491 417 491 431 491 444 c 0
 491 523 475 587 443 635 c 0
 405 691 348 719 271 719 c 0
 212 719 162 699 119 658 c 0
 73 614 49 558 48 491 c 0
143 483 m 0
 143 542 156 590 183 629 c 0
 210 669 246 689 290 689 c 0
 323 689 350 667 372 622 c 0
 392 580 402 529 402 468 c 0
 402 453 401 439 400 424 c 0
 399 405 386 382 363 355 c 0
 334 320 303 304 269 306 c 0
 185 312 143 371 143 483 c 0
EndSplineSet
Validated: 41
EndChar

StartChar: colon
Encoding: 58 58 27
Width: 250
Flags: W
LayerCount: 2
Fore
SplineSet
187 402 m 0
 187 438 159 465 123 465 c 0
 88 465 59 438 59 402 c 0
 59 367 88 338 123 338 c 0
 159 338 187 366 187 402 c 0
191 48 m 0
 191 83 162 111 127 111 c 0
 91 111 63 83 63 48 c 0
 63 12 91 -16 127 -16 c 0
 162 -16 191 12 191 48 c 0
EndSplineSet
Validated: 9
EndChar

StartChar: semicolon
Encoding: 59 59 28
Width: 267
Flags: W
LayerCount: 2
Fore
SplineSet
189 402 m 0
 189 438 160 465 124 465 c 0
 89 465 61 438 61 402 c 0
 61 367 89 338 124 338 c 0
 160 338 189 367 189 402 c 0
208 12 m 0
 208 38 202 60 191 79 c 0
 177 102 158 113 133 113 c 0
 93 113 59 87 59 48 c 0
 59 12 88 -16 124 -16 c 0
 133 -16 142 -11 151 -2 c 1
 155 -7 157 -14 157 -23 c 0
 157 -70 116 -117 69 -130 c 1
 69 -154 l 1
 106 -154 139 -135 168 -98 c 0
 195 -62 208 -25 208 12 c 0
EndSplineSet
Validated: 9
EndChar

StartChar: less
Encoding: 60 60 29
Width: 590
Flags: W
LayerCount: 2
Fore
SplineSet
560 -143 m 1
 560 -77 l 1
 80 273 l 1
 560 623 l 1
 560 689 l 1
 29 301 l 1
 29 246 l 1
 560 -143 l 1
EndSplineSet
Validated: 9
EndChar

StartChar: equal
Encoding: 61 61 30
Width: 590
Flags: W
LayerCount: 2
Fore
SplineSet
559 322 m 1
 559 390 l 1
 32 390 l 1
 32 322 l 1
 559 322 l 1
559 120 m 1
 559 187 l 1
 32 187 l 1
 32 120 l 1
 559 120 l 1
EndSplineSet
Validated: 9
EndChar

StartChar: greater
Encoding: 62 62 31
Width: 590
Flags: W
LayerCount: 2
Fore
SplineSet
565 246 m 1
 565 301 l 1
 33 689 l 1
 33 623 l 1
 513 273 l 1
 33 -77 l 1
 33 -143 l 1
 565 246 l 1
EndSplineSet
Validated: 9
EndChar

StartChar: question
Encoding: 63 63 32
Width: 478
Flags: W
LayerCount: 2
Fore
SplineSet
419 556 m 0
 419 604 401 641 364 668 c 0
 331 691 290 703 240 703 c 0
 193 703 153 693 119 672 c 0
 79 647 59 613 59 569 c 0
 59 538 86 514 115 514 c 0
 140 514 168 533 168 557 c 0
 168 572 152 586 152 605 c 0
 152 628 161 645 180 658 c 0
 197 669 217 674 240 674 c 0
 297 674 332 637 332 578 c 0
 332 543 321 508 300 473 c 0
 280 443 260 413 240 382 c 0
 219 343 208 302 208 258 c 1
 208 260 209 231 211 171 c 1
 227 171 l 1
 228 230 245 282 278 327 c 1
 309 361 339 395 370 429 c 0
 403 468 419 511 419 556 c 0
284 48 m 0
 284 83 256 111 220 111 c 0
 185 111 156 83 156 48 c 0
 156 12 184 -16 220 -16 c 0
 256 -16 284 12 284 48 c 0
EndSplineSet
Validated: 41
EndChar

StartChar: bracketleft
Encoding: 91 91 33
Width: 347
Flags: W
LayerCount: 2
Fore
SplineSet
312 -138 m 1
 312 -109 l 1
 170 -109 l 1
 170 686 l 1
 312 686 l 1
 312 717 l 1
 91 717 l 1
 91 -138 l 1
 312 -138 l 1
EndSplineSet
Validated: 9
EndChar

StartChar: bracketright
Encoding: 93 93 34
Width: 347
Flags: W
LayerCount: 2
Fore
SplineSet
258 -138 m 1
 258 717 l 1
 38 717 l 1
 38 686 l 1
 179 686 l 1
 179 -109 l 1
 38 -109 l 1
 38 -138 l 1
 258 -138 l 1
EndSplineSet
Validated: 9
EndChar

StartChar: underscore
Encoding: 95 95 35
Width: 522
Flags: W
LayerCount: 2
Fore
SplineSet
522 -139 m 1
 522 -89 l 1
 0 -89 l 1
 0 -139 l 1
 522 -139 l 1
EndSplineSet
Validated: 9
EndChar

StartChar: quoteleft
Encoding: 8216 8216 36
Width: 209
Flags: W
LayerCount: 2
Fore
SplineSet
161 514 m 0
 161 543 135 566 106 566 c 0
 99 566 81 561 73 561 c 0
 62 561 57 566 57 577 c 0
 57 595 67 616 88 640 c 0
 107 662 126 677 144 686 c 1
 135 707 l 1
 108 696 81 675 56 644 c 0
 29 611 16 581 16 553 c 0
 16 526 23 503 37 484 c 0
 53 462 74 451 99 451 c 0
 140 451 161 472 161 514 c 0
EndSplineSet
Validated: 9
EndChar

StartChar: braceleft
Encoding: 123 123 37
Width: 502
Flags: W
LayerCount: 2
Fore
SplineSet
357 -171 m 1
 298 -160 268 -113 268 -28 c 0
 268 -13 269 10 271 42 c 0
 273 75 274 99 274 114 c 0
 274 201 244 253 185 269 c 1
 244 284 274 332 274 415 c 0
 274 431 273 456 270 490 c 0
 267 524 266 549 266 564 c 0
 266 649 296 698 357 713 c 1
 292 714 247 699 221 669 c 0
 200 645 190 608 190 559 c 0
 190 542 191 516 194 481 c 0
 197 446 199 421 199 405 c 0
 199 329 171 284 115 269 c 1
 171 254 199 205 199 124 c 0
 199 109 198 84 195 50 c 0
 193 17 192 -8 192 -24 c 0
 192 -72 201 -107 218 -130 c 0
 240 -159 279 -172 334 -171 c 2
 357 -171 l 1
EndSplineSet
Validated: 41
EndChar

StartChar: bar
Encoding: 124 124 38
Width: 209
Flags: W
LayerCount: 2
Fore
SplineSet
138 0 m 1
 138 713 l 1
 71 713 l 1
 71 0 l 1
 138 0 l 1
EndSplineSet
Validated: 9
EndChar

StartChar: braceright
Encoding: 125 125 39
Width: 502
Flags: W
LayerCount: 2
Fore
SplineSet
386 269 m 1
 331 284 303 330 303 405 c 0
 303 421 304 446 307 481 c 0
 310 516 311 542 311 559 c 0
 311 608 301 645 281 669 c 0
 255 699 210 714 145 713 c 1
 206 698 236 649 236 564 c 0
 236 549 235 524 232 490 c 0
 230 456 229 431 229 416 c 0
 229 333 258 284 317 269 c 1
 258 253 229 201 229 114 c 0
 229 99 230 75 231 42 c 0
 233 10 234 -13 234 -28 c 0
 234 -113 204 -160 145 -171 c 1
 168 -171 l 2
 223 -172 262 -159 283 -130 c 0
 300 -107 309 -72 309 -24 c 0
 309 -9 308 16 305 49 c 0
 303 83 302 108 302 124 c 0
 302 205 330 254 386 269 c 1
EndSplineSet
Validated: 41
EndChar

StartChar: asciitilde
Encoding: 126 126 40
Width: 566
Flags: W
LayerCount: 2
Fore
SplineSet
548 320 m 1
 508 363 l 1
 481 304 444 274 399 274 c 0
 385 274 348 286 288 310 c 0
 229 334 189 346 169 346 c 0
 112 346 50 293 21 224 c 1
 40 203 52 189 57 181 c 1
 88 246 127 278 174 278 c 0
 197 277 233 264 280 239 c 0
 327 214 367 202 399 202 c 0
 460 202 509 241 548 320 c 1
EndSplineSet
Validated: 9
EndChar

StartChar: section
Encoding: 167 167 41
Width: 522
Flags: W
LayerCount: 2
Fore
SplineSet
446 259 m 0
 446 305 422 351 375 397 c 1
 331 433 287 469 244 504 c 0
 197 543 173 578 173 609 c 0
 173 632 181 651 198 666 c 0
 213 679 233 685 257 685 c 0
 288 685 322 652 322 621 c 0
 322 605 309 585 309 576 c 0
 309 560 329 545 344 545 c 0
 376 545 405 564 405 593 c 0
 405 628 390 657 359 678 c 0
 332 697 301 707 264 707 c 0
 223 707 188 696 161 674 c 0
 130 651 115 619 115 579 c 0
 115 548 126 519 148 490 c 0
 161 473 183 450 216 422 c 1
 211 423 205 423 199 423 c 0
 126 423 75 373 75 296 c 0
 75 244 98 196 145 153 c 1
 189 120 233 88 276 55 c 0
 323 18 346 -19 346 -54 c 0
 346 -102 306 -133 257 -133 c 0
 241 -133 226 -125 212 -108 c 0
 199 -91 192 -75 192 -58 c 0
 192 -51 206 -35 206 -24 c 0
 206 -8 187 7 171 7 c 0
 154 7 140 3 129 -5 c 0
 116 -14 109 -26 109 -41 c 0
 109 -76 124 -104 155 -126 c 0
 182 -145 214 -155 250 -155 c 0
 291 -155 325 -145 354 -124 c 0
 387 -100 403 -68 403 -29 c 0
 403 3 393 33 374 61 c 0
 361 80 338 103 307 130 c 1
 388 123 446 178 446 259 c 0
392 230 m 0
 392 183 361 153 314 153 c 0
 284 153 245 175 198 218 c 0
 151 262 127 299 127 328 c 0
 127 369 159 402 200 402 c 0
 229 402 268 380 317 337 c 0
 367 294 392 258 392 230 c 0
EndSplineSet
Validated: 41
EndChar

StartChar: quotesingle
Encoding: 39 39 42
Width: 189
Flags: W
LayerCount: 2
Fore
SplineSet
137 677 m 0
 137 698 116 717 95 717 c 0
 72 717 51 697 51 674 c 0
 51 659 56 625 66 572 c 0
 73 536 79 500 86 465 c 1
 103 465 l 1
 110 501 116 537 123 574 c 0
 132 627 137 662 137 677 c 0
EndSplineSet
Validated: 9
EndChar

StartChar: quotedblleft
Encoding: 8220 8220 43
Width: 526
Flags: W
LayerCount: 2
Fore
SplineSet
417 514 m 0
 417 543 390 566 361 566 c 0
 354 566 336 561 329 561 c 0
 318 561 313 566 313 577 c 0
 313 595 323 616 344 640 c 0
 363 662 382 677 400 686 c 1
 390 707 l 1
 363 696 336 675 311 644 c 0
 285 611 272 580 272 553 c 0
 272 526 279 503 293 484 c 0
 309 462 330 451 355 451 c 0
 396 451 417 472 417 514 c 0
173 514 m 0
 173 543 149 566 118 566 c 0
 111 566 93 561 85 561 c 0
 75 561 70 566 70 577 c 0
 70 594 80 615 101 639 c 0
 119 662 137 677 155 686 c 1
 146 707 l 1
 119 696 93 675 68 644 c 0
 42 611 29 580 29 553 c 0
 29 526 36 503 49 484 c 0
 65 462 86 451 111 451 c 0
 152 451 173 472 173 514 c 0
EndSplineSet
Validated: 9
EndChar

StartChar: guillemotleft
Encoding: 171 171 44
Width: 632
Flags: W
LayerCount: 2
Fore
SplineSet
552 22 m 1
 383 199 l 1
 552 378 l 1
 536 400 l 1
 275 200 l 1
 533 2 l 1
 552 22 l 1
314 22 m 1
 145 199 l 1
 314 378 l 1
 298 400 l 1
 38 200 l 1
 295 2 l 1
 314 22 l 1
EndSplineSet
Validated: 9
EndChar

StartChar: endash
Encoding: 8211 8211 45
Width: 522
Flags: W
LayerCount: 2
Fore
SplineSet
629 210 m 1
 629 262 l 1
 92 262 l 1
 92 210 l 1
 629 210 l 1
EndSplineSet
Validated: 9
EndChar

StartChar: dagger
Encoding: 8224 8224 46
Width: 522
Flags: W
LayerCount: 2
Fore
SplineSet
459 467 m 0
 459 498 443 514 412 514 c 0
 398 514 375 508 343 496 c 0
 312 484 287 478 270 477 c 1
 269 492 l 2
 268 513 274 542 287 579 c 0
 300 616 307 644 307 661 c 0
 307 689 286 707 258 707 c 0
 230 707 209 689 209 661 c 0
 209 642 215 612 227 571 c 0
 240 531 246 500 246 477 c 1
 228 478 203 484 172 496 c 0
 141 508 119 514 105 514 c 0
 72 514 56 498 56 467 c 0
 56 438 73 423 106 423 c 0
 119 423 141 429 172 440 c 0
 203 452 228 458 246 458 c 1
 246 452 l 2
 246 443 247 414 248 363 c 2
 248 268 l 2
 248 123 238 12 217 -67 c 0
 212 -85 210 -98 210 -107 c 0
 210 -135 231 -154 259 -154 c 0
 288 -154 309 -135 309 -107 c 0
 309 -98 306 -85 301 -67 c 0
 290 -30 281 50 276 173 c 0
 271 275 269 359 271 426 c 2
 271 458 l 1
 287 457 311 451 343 439 c 0
 374 428 396 423 411 423 c 0
 443 423 459 438 459 467 c 0
EndSplineSet
Validated: 41
EndChar

StartChar: quotedblright
Encoding: 8221 8221 47
Width: 526
Flags: W
LayerCount: 2
Fore
SplineSet
532 605 m 0
 532 632 525 655 511 674 c 0
 496 696 475 707 449 707 c 0
 408 707 388 686 388 643 c 0
 388 615 414 593 443 593 c 0
 451 593 469 597 476 597 c 0
 485 597 489 592 489 581 c 0
 489 563 479 542 460 519 c 0
 441 496 422 480 405 473 c 1
 414 451 l 1
 441 462 468 483 493 514 c 0
 519 547 532 577 532 605 c 0
288 605 m 0
 288 631 281 654 268 674 c 0
 252 696 231 707 206 707 c 0
 164 707 143 686 143 643 c 0
 143 615 170 593 199 593 c 0
 206 593 224 597 232 597 c 0
 242 597 247 592 247 581 c 0
 247 564 237 543 216 519 c 0
 197 496 179 481 161 473 c 1
 171 451 l 1
 198 462 224 483 249 514 c 0
 275 547 288 578 288 605 c 0
EndSplineSet
Validated: 9
EndChar

StartChar: guillemotright
Encoding: 187 187 48
Width: 632
Flags: W
LayerCount: 2
Fore
SplineSet
629 200 m 1
 368 400 l 1
 352 378 l 1
 521 199 l 1
 352 22 l 1
 371 2 l 1
 629 200 l 1
391 200 m 1
 130 400 l 1
 114 378 l 1
 283 199 l 1
 114 22 l 1
 134 2 l 1
 391 200 l 1
EndSplineSet
Validated: 9
EndChar

StartChar: ellipsis
Encoding: 8230 8230 49
Width: 882
Flags: W
LayerCount: 2
Fore
SplineSet
830 48 m 0
 830 83 801 111 766 111 c 0
 730 111 702 83 702 48 c 0
 702 12 730 -16 766 -16 c 0
 802 -16 830 12 830 48 c 0
535 48 m 0
 535 83 506 111 471 111 c 0
 435 111 407 83 407 48 c 0
 407 12 435 -16 471 -16 c 0
 507 -16 535 12 535 48 c 0
230 48 m 0
 230 83 201 111 166 111 c 0
 130 111 102 83 102 48 c 0
 102 12 130 -16 166 -16 c 0
 202 -16 230 12 230 48 c 0
EndSplineSet
Validated: 9
EndChar

StartChar: perthousand
Encoding: 8240 8240 50
Width: 1244
Flags: W
LayerCount: 2
Fore
SplineSet
807 258 m 0
 807 290 796 317 775 340 c 0
 754 363 727 374 696 374 c 0
 638 374 586 348 539 295 c 0
 492 242 469 187 469 128 c 0
 469 33 513 -14 602 -14 c 0
 661 -14 712 18 753 81 c 0
 789 137 807 196 807 258 c 0
663 707 m 1
 613 707 l 1
 576 658 524 634 457 634 c 0
 425 634 396 643 369 662 c 0
 343 681 316 691 289 691 c 0
 232 691 179 664 132 611 c 0
 87 559 64 504 64 445 c 0
 64 349 106 301 189 301 c 0
 245 301 295 331 340 392 c 0
 381 448 402 505 402 563 c 0
 402 576 393 607 393 619 c 1
 408 614 425 612 445 612 c 0
 488 612 531 621 575 639 c 1
 210 -14 l 1
 261 -14 l 1
 663 707 l 1
781 253 m 0
 781 204 765 154 734 103 c 0
 700 46 660 17 614 17 c 0
 571 17 549 41 549 90 c 0
 549 136 564 187 594 243 c 0
 628 307 666 339 707 339 c 0
 751 339 781 298 781 253 c 0
375 578 m 0
 375 528 360 477 331 426 c 0
 296 367 256 337 209 337 c 0
 166 337 144 363 144 415 c 0
 144 458 159 508 188 565 c 0
 221 629 257 661 294 661 c 0
 299 661 311 656 328 646 c 0
 348 635 361 628 366 626 c 1
 372 598 375 582 375 578 c 0
1180 258 m 0
 1180 290 1169 317 1148 340 c 0
 1127 363 1100 374 1069 374 c 0
 1011 374 959 348 912 295 c 0
 865 242 842 187 842 128 c 0
 842 33 886 -14 975 -14 c 0
 1034 -14 1085 18 1126 81 c 0
 1162 137 1180 196 1180 258 c 0
1154 253 m 0
 1154 204 1138 154 1107 103 c 0
 1073 46 1033 17 987 17 c 0
 944 17 922 41 922 90 c 0
 922 136 937 187 967 243 c 0
 1001 307 1039 339 1080 339 c 0
 1124 339 1154 298 1154 253 c 0
EndSplineSet
Validated: 9
EndChar

StartChar: emdash
Encoding: 8212 8212 51
Width: 1046
Flags: W
LayerCount: 2
Fore
SplineSet
1051 210 m 1
 1051 262 l 1
 -9 262 l 1
 -9 210 l 1
 1051 210 l 1
EndSplineSet
Validated: 9
EndChar

StartChar: onesuperior
Encoding: 185 185 52
Width: 265
Flags: W
LayerCount: 2
Fore
SplineSet
207 389 m 1
 207 405 l 1
 160 405 l 1
 160 734 l 1
 133 734 l 1
 48 579 l 1
 65 579 l 1
 117 670 l 1
 117 405 l 1
 70 405 l 1
 70 389 l 1
 207 389 l 1
EndSplineSet
Validated: 9
EndChar

StartChar: onequarter
Encoding: 188 188 53
Width: 470
Flags: MW
HStem: 362 66 569 66<127.5 132>
VStem: 98 73<590.5 610>
LayerCount: 2
Fore
SplineSet
356 385 m 0
 356 377 350 361 347 354 c 2
 211 5 l 2
 203 -15 186 -44 161 -44 c 0
 141 -44 132 -19 132 -3 c 0
 132 16 310 310 336 362 c 1
 124 362 l 2
 104 362 92 377 92 396 c 0
 92 408 136 549 142 570 c 1
 132 569 l 2
 113 569 98 581 98 600 c 0
 98 620 118 635 137 635 c 0
 153 635 171 624 171 607 c 0
 171 550 135 473 121 420 c 1
 149 420 356 452 356 385 c 0
EndSplineSet
Validated: 33
EndChar

StartChar: twosuperior
Encoding: 178 178 54
Width: 265
Flags: W
LayerCount: 2
Fore
SplineSet
235 389 m 1
 235 481 l 1
 222 481 l 1
 222 448 211 431 190 431 c 2
 88 431 l 1
 120 461 152 491 184 522 c 0
 217 560 234 600 234 641 c 0
 234 700 189 741 129 741 c 0
 102 741 79 734 58 719 c 0
 35 702 23 681 23 655 c 0
 23 632 33 620 54 620 c 0
 75 620 86 628 86 643 c 0
 86 650 64 666 64 679 c 0
 64 692 71 704 84 713 c 0
 96 722 109 726 123 726 c 0
 143 726 159 718 170 701 c 0
 179 686 184 668 184 647 c 0
 184 572 133 488 30 397 c 1
 30 389 l 1
 235 389 l 1
EndSplineSet
Validated: 9
EndChar

StartChar: threesuperior
Encoding: 179 179 55
Width: 265
Flags: W
LayerCount: 2
Fore
SplineSet
256 482 m 0
 256 509 245 532 223 549 c 0
 202 566 177 574 149 574 c 1
 175 575 197 583 214 596 c 0
 233 612 242 632 242 657 c 0
 242 682 233 703 214 719 c 0
 197 734 175 742 148 742 c 0
 127 742 106 737 85 728 c 0
 58 715 45 700 45 681 c 0
 45 658 54 647 71 647 c 0
 89 647 98 654 98 667 c 0
 98 674 90 684 90 691 c 0
 90 714 105 726 135 726 c 0
 178 726 199 704 199 661 c 0
 199 608 167 581 104 582 c 2
 88 582 l 1
 88 565 l 1
 123 564 149 560 166 553 c 0
 191 542 203 521 203 490 c 0
 203 428 176 397 121 397 c 0
 110 397 99 400 89 405 c 0
 77 412 71 420 71 431 c 0
 71 442 83 455 83 466 c 0
 83 481 75 489 59 489 c 0
 36 489 24 476 24 451 c 0
 24 429 36 411 59 398 c 0
 78 387 100 381 123 381 c 0
 156 381 186 389 211 406 c 0
 241 425 256 451 256 482 c 0
EndSplineSet
Validated: 41
EndChar

StartChar: uni1F05
Encoding: 7941 7941 56
Width: 538
Flags: MW
HStem: -16 21 528 83
VStem: 192 45
AnchorPoint: "Base" 411 0 basechar 0
LayerCount: 2
Fore
SplineSet
496 97 m 0
 493 98 488 98 483 97 c 1
 467 56 446 36 419 36 c 0
 392 36 373 59 374 88 c 1
 468 393 l 1
 388 393 l 1
 365 260 l 1
 367 339 341 384 288 396 c 0
 275 399 261 400 248 400 c 0
 197 400 152 382 113 345 c 0
 73 308 50 261 44 204 c 0
 43 192 42 180 42 169 c 0
 42 110 58 65 91 34 c 0
 121 6 160 -8 209 -9 c 0
 242 -9 270 -3 293 8 c 0
 312 17 332 34 354 59 c 1
 353 14 375 -9 418 -9 c 0
 455 -9 491 38 496 97 c 0
346 232 m 0
 341 163 329 111 310 78 c 0
 287 35 254 15 211 17 c 0
 152 20 122 62 122 144 c 0
 122 163 124 184 128 207 c 0
 137 263 154 305 180 333 c 0
 203 357 230 369 261 369 c 0
 268 369 274 369 280 368 c 0
 311 362 331 339 341 300 c 0
 346 279 348 256 346 232 c 0
544 701 m 0
 555 688 555 663 539 644 c 0
 521 622 411 488 411 490 c 0
 411 491 385 490 385 490 c 1
 404 535 469 680 486 699 c 0
 496 710 529 719 544 701 c 0
391 636 m 0
 391 602 349 595 326 599 c 0
 312 601 299 583 299 570 c 0
 299 532 326 519 344 507 c 1
 332 491 l 1
 317 496 288 515 272 534 c 0
 259 551 250 585 256 611 c 0
 265 650 303 681 352 681 c 0
 379 681 391 654 391 636 c 0
EndSplineSet
Validated: 41
EndChar

StartChar: uni1F15
Encoding: 7957 7957 57
Width: 429
Flags: MW
HStem: -18 21 528 83
VStem: 186 45 247 45
AnchorPoint: "Base" 360 0 basechar 0
LayerCount: 2
Fore
SplineSet
345 14 m 1
 342 27 340 41 337 54 c 1
 311 40 279 33 241 33 c 0
 185 33 146 53 124 94 c 0
 111 117 104 148 104 185 c 1
 294 184 l 1
 301 234 l 1
 113 234 l 1
 116 277 156 324 203 344 c 0
 248 363 293 372 337 371 c 1
 343 407 l 1
 244 407 159 391 98 339 c 0
 55 302 30 254 23 194 c 0
 22 187 22 179 22 172 c 0
 22 121 40 79 77 44 c 0
 114 9 157 -8 206 -8 c 0
 243 -8 267 -8 278 -7 c 0
 304 -4 326 3 345 14 c 1
453 701 m 0
 464 688 464 663 448 644 c 0
 430 622 320 488 320 490 c 0
 320 491 294 490 294 490 c 1
 313 535 378 680 395 699 c 0
 405 710 438 719 453 701 c 0
300 636 m 0
 300 602 258 595 235 599 c 0
 221 601 208 583 208 570 c 0
 208 532 235 519 253 507 c 1
 241 491 l 1
 226 496 197 515 181 534 c 0
 168 551 159 585 165 611 c 0
 174 650 212 681 261 681 c 0
 288 681 300 654 300 636 c 0
EndSplineSet
Validated: 41
EndChar

StartChar: uni1F35
Encoding: 7989 7989 58
Width: 263
Flags: MW
HStem: -13 21 528 83
VStem: 38 45
AnchorPoint: "Base" 300 0 basechar 0
LayerCount: 2
Fore
SplineSet
251 120 m 1
 224 120 l 1
 208 69 183 43 149 43 c 0
 125 43 113 58 113 89 c 0
 113 110 119 146 131 196 c 0
 140 236 152 283 167 336 c 0
 178 375 184 395 183 395 c 0
 157 396 132 396 108 396 c 1
 69 249 49 153 46 108 c 0
 44 68 52 37 71 16 c 0
 86 -1 106 -10 130 -10 c 0
 161 -10 188 3 211 30 c 0
 230 53 243 83 251 120 c 1
305 701 m 0
 316 688 316 663 300 644 c 0
 282 622 172 488 172 490 c 0
 172 491 146 490 146 490 c 1
 165 535 230 680 247 699 c 0
 257 710 290 719 305 701 c 0
152 636 m 0
 152 602 110 595 87 599 c 0
 73 601 60 583 60 570 c 0
 60 532 87 519 105 507 c 1
 93 491 l 1
 78 496 49 515 33 534 c 0
 20 551 11 585 17 611 c 0
 26 650 64 681 113 681 c 0
 140 681 152 654 152 636 c 0
EndSplineSet
Validated: 41
EndChar

StartChar: uni1F45
Encoding: 8005 8005 59
Width: 469
Flags: MW
HStem: -16 21 528 83
VStem: 215 45
AnchorPoint: "Base" 390 0 basechar 0
LayerCount: 2
Fore
SplineSet
435 205 m 0
 442 329 375 404 264 404 c 0
 194 404 139 382 99 337 c 0
 62 295 43 242 41 178 c 0
 39 123 55 79 88 45 c 0
 118 14 158 -4 208 -8 c 0
 271 -12 325 8 368 52 c 0
 409 93 432 144 435 205 c 0
351 199 m 0
 343 147 329 105 308 74 c 0
 283 37 251 19 213 22 c 0
 150 25 120 78 123 181 c 0
 124 232 137 276 161 313 c 0
 188 355 224 375 269 374 c 0
 299 374 321 359 336 328 c 0
 347 303 353 273 353 237 c 0
 353 224 352 211 351 199 c 0
480 701 m 0
 491 688 491 663 475 644 c 0
 457 622 347 488 347 490 c 0
 347 491 321 490 321 490 c 1
 340 535 405 680 422 699 c 0
 432 710 465 719 480 701 c 0
327 636 m 0
 327 602 285 595 262 599 c 0
 248 601 235 583 235 570 c 0
 235 532 262 519 280 507 c 1
 268 491 l 1
 253 496 224 515 208 534 c 0
 195 551 186 585 192 611 c 0
 201 650 239 681 288 681 c 0
 315 681 327 654 327 636 c 0
EndSplineSet
Validated: 41
EndChar

StartChar: uni1F55
Encoding: 8021 8021 60
Width: 438
Flags: MW
HStem: -22 21 528 83
VStem: 180 45
AnchorPoint: "Base" 380 0 basechar 0
LayerCount: 2
Fore
SplineSet
405 270 m 0
 408 292 409 310 409 324 c 0
 409 377 392 404 358 404 c 0
 333 404 322 389 323 359 c 0
 324 348 327 330 334 305 c 0
 341 280 345 262 346 250 c 0
 349 202 342 159 326 121 c 0
 315 92 301 72 286 60 c 0
 262 41 235 31 206 31 c 0
 165 31 135 58 135 99 c 0
 135 114 139 139 148 176 c 0
 161 231 171 272 176 299 c 0
 178 310 179 320 179 329 c 0
 179 379 154 404 103 404 c 0
 56 404 24 377 6 323 c 1
 28 324 l 1
 39 345 54 356 75 356 c 0
 79 356 83 356 88 355 c 0
 101 352 108 340 108 318 c 0
 108 296 101 260 87 209 c 0
 74 158 67 121 67 96 c 0
 67 59 81 32 110 13 c 0
 131 -1 154 -8 179 -8 c 0
 299 -8 382 81 405 270 c 0
447 701 m 0
 458 688 458 663 442 644 c 0
 424 622 314 488 314 490 c 0
 314 491 288 490 288 490 c 1
 307 535 372 680 389 699 c 0
 399 710 432 719 447 701 c 0
294 636 m 0
 294 602 252 595 229 599 c 0
 215 601 202 583 202 570 c 0
 202 532 229 519 247 507 c 1
 235 491 l 1
 220 496 191 515 175 534 c 0
 162 551 153 585 159 611 c 0
 168 650 206 681 255 681 c 0
 282 681 294 654 294 636 c 0
EndSplineSet
Validated: 41
EndChar

StartChar: uni1F79
Encoding: 8057 8057 61
Width: 469
Flags: MW
HStem: -16 21
AnchorPoint: "Base" 390 0 basechar 0
LayerCount: 2
Fore
SplineSet
435 205 m 0
 442 329 375 404 264 404 c 0
 194 404 139 382 99 337 c 0
 62 295 43 242 41 178 c 0
 39 123 55 79 88 45 c 0
 118 14 158 -4 208 -8 c 0
 271 -12 325 8 368 52 c 0
 409 93 432 144 435 205 c 0
351 199 m 0
 343 147 329 105 308 74 c 0
 283 37 251 19 213 22 c 0
 150 25 120 78 123 181 c 0
 124 232 137 276 161 313 c 0
 188 355 224 375 269 374 c 0
 299 374 321 359 336 328 c 0
 347 303 353 273 353 237 c 0
 353 224 352 211 351 199 c 0
459 665 m 0
 460 669 461 673 461 678 c 0
 461 698 444 717 421 717 c 0
 408 717 392 710 384 698 c 0
 376 684 361 651 339 599 c 0
 316 546 299 511 290 494 c 1
 322 494 l 1
 439 634 l 2
 449 645 456 656 459 665 c 0
EndSplineSet
Validated: 41
EndChar

StartChar: uni1F08
Encoding: 7944 7944 62
Width: 687
Flags: MW
HStem: 257 31 486 38
AnchorPoint: "Base" 495 0 basechar 0
LayerCount: 2
Fore
SplineSet
658 0 m 1
 658 31 l 1
 623 31 l 2
 603 31 575 51 568 72 c 0
 539 151 511 230 483 309 c 0
 467 356 424 490 355 711 c 1
 325 711 l 1
 135 128 l 2
 114 64 80 32 32 32 c 0
 27 32 23 32 20 33 c 2
 21 0 l 1
 260 0 l 1
 260 31 l 1
 195 31 163 44 163 71 c 0
 163 76 164 81 166 86 c 0
 197 185 212 234 213 235 c 2
 416 235 l 1
 459 93 l 2
 461 87 462 81 462 76 c 0
 462 51 443 31 422 31 c 2
 356 31 l 1
 356 0 l 1
 658 0 l 1
403 274 m 1
 226 274 l 1
 315 553 l 1
 403 274 l 1
149 621 m 0
 149 682 104 719 52 718 c 0
 29 718 14 708 9 689 c 0
 3 668 9 652 26 641 c 1
 51 632 70 627 82 626 c 0
 89 624 92 618 92 609 c 0
 92 602 90 596 86 589 c 0
 73 566 51 554 20 553 c 1
 18 544 17 534 17 525 c 1
 21 524 26 523 32 523 c 0
 96 523 149 562 149 621 c 0
EndSplineSet
Validated: 41
EndChar

StartChar: uni1F18
Encoding: 7960 7960 63
Width: 792
Flags: MW
HStem: 0 21G<733 733>
AnchorPoint: "Base" 650 0 basechar 0
LayerCount: 2
Fore
SplineSet
752 243 m 1
 723 243 l 1
 706 153 678 93 639 62 c 0
 610 39 566 27 505 27 c 0
 497 27 480 27 454 28 c 0
 431 29 413 29 399 28 c 1
 399 336 l 1
 476 336 l 2
 512 336 555 279 555 187 c 1
 582 187 l 1
 582 509 l 1
 555 509 l 1
 554 463 545 429 530 407 c 0
 512 380 494 367 476 367 c 2
 399 367 l 1
 399 674 l 1
 476 673 521 672 533 670 c 0
 576 665 610 649 635 623 c 0
 664 592 687 542 702 473 c 1
 729 473 l 1
 724 703 l 1
 204 703 l 1
 204 673 l 1
 267 673 l 2
 294 672 307 657 307 626 c 2
 307 485 l 1
 307 348 l 1
 307 69 l 2
 307 42 294 28 267 28 c 2
 205 28 l 1
 205 1 l 1
 733 0 l 1
 752 243 l 1
149 621 m 0
 149 682 104 719 52 718 c 0
 29 718 14 708 9 689 c 0
 3 668 9 652 26 641 c 1
 51 632 70 627 82 626 c 0
 89 624 92 618 92 609 c 0
 92 602 90 596 86 589 c 0
 73 566 51 554 20 553 c 1
 18 544 17 534 17 525 c 1
 21 524 26 523 32 523 c 0
 96 523 149 562 149 621 c 0
EndSplineSet
Validated: 41
EndChar

StartChar: uni1F28
Encoding: 7976 7976 64
Width: 840
Flags: MW
HStem: 0 21G
AnchorPoint: "Base" 650 0 basechar 0
LayerCount: 2
Fore
SplineSet
811 32 m 1
 751 31 l 2
 730 31 713 48 713 67 c 2
 713 638 l 2
 713 663 726 676 752 676 c 2
 810 676 l 1
 810 706 l 1
 532 706 l 1
 533 676 l 1
 592 676 l 2
 616 676 628 663 628 637 c 2
 628 382 l 1
 364 382 l 1
 363 637 l 2
 363 663 376 676 403 676 c 2
 462 676 l 1
 461 706 l 1
 183 706 l 1
 183 676 l 1
 242 676 l 2
 267 676 280 663 280 638 c 2
 280 71 l 2
 280 45 268 32 243 32 c 2
 184 32 l 1
 183 -1 l 1
 462 -1 l 1
 460 31 l 1
 402 31 l 2
 376 31 363 44 363 70 c 2
 364 348 l 1
 628 348 l 1
 628 70 l 2
 628 44 615 31 590 31 c 2
 532 31 l 1
 531 1 l 1
 811 1 l 1
 811 32 l 1
149 621 m 0
 149 682 104 719 52 718 c 0
 29 718 14 708 9 689 c 0
 3 668 9 652 26 641 c 1
 51 632 70 627 82 626 c 0
 89 624 92 618 92 609 c 0
 92 602 90 596 86 589 c 0
 73 566 51 554 20 553 c 1
 18 544 17 534 17 525 c 1
 21 524 26 523 32 523 c 0
 96 523 149 562 149 621 c 0
EndSplineSet
Validated: 41
EndChar

StartChar: uni1F38
Encoding: 7992 7992 65
Width: 530
Flags: MW
HStem: 0 21G<202 496 496 496>
AnchorPoint: "Base" 515 0 basechar 0
LayerCount: 2
Fore
SplineSet
496 0 m 1
 496 28 l 1
 434 28 l 2
 407 28 394 42 394 69 c 2
 393 633 l 2
 393 660 407 673 434 673 c 2
 496 673 l 1
 496 703 l 1
 201 703 l 1
 201 673 l 1
 263 673 l 2
 289 673 302 658 302 628 c 2
 303 69 l 2
 303 42 290 28 264 28 c 2
 202 28 l 1
 202 0 l 1
 496 0 l 1
149 621 m 0
 149 682 104 719 52 718 c 0
 29 718 14 708 9 689 c 0
 3 668 9 652 26 641 c 1
 51 632 70 627 82 626 c 0
 89 624 92 618 92 609 c 0
 92 602 90 596 86 589 c 0
 73 566 51 554 20 553 c 1
 18 544 17 534 17 525 c 1
 21 524 26 523 32 523 c 0
 96 523 149 562 149 621 c 0
EndSplineSet
Validated: 41
EndChar

StartChar: uni1F48
Encoding: 8008 8008 66
Width: 798
Flags: MW
HStem: -29 21
AnchorPoint: "Base" 630 0 basechar 0
LayerCount: 2
Fore
SplineSet
753 354 m 0
 754 453 732 536 686 603 c 0
 634 678 562 716 471 716 c 0
 390 716 323 677 268 598 c 0
 217 525 191 444 191 354 c 0
 191 257 216 174 266 104 c 0
 321 29 390 -9 475 -9 c 0
 563 -9 632 30 683 108 c 0
 728 176 751 258 753 354 c 0
645 358 m 0
 645 267 638 197 623 150 c 0
 597 65 548 23 475 23 c 0
 400 23 350 64 323 146 c 0
 308 194 300 265 300 358 c 0
 300 449 309 520 326 569 c 0
 353 645 402 683 473 683 c 0
 545 683 594 646 620 572 c 0
 637 525 645 453 645 358 c 0
149 621 m 0
 149 682 104 719 52 718 c 0
 29 718 14 708 9 689 c 0
 3 668 9 652 26 641 c 1
 51 632 70 627 82 626 c 0
 89 624 92 618 92 609 c 0
 92 602 90 596 86 589 c 0
 73 566 51 554 20 553 c 1
 18 544 17 534 17 525 c 1
 21 524 26 523 32 523 c 0
 96 523 149 562 149 621 c 0
EndSplineSet
Validated: 41
EndChar

StartChar: uni1F68
Encoding: 8040 8040 67
Width: 842
Flags: MW
HStem: -5 85 667 31
AnchorPoint: "Base" 670 0 basechar 0
LayerCount: 2
Fore
SplineSet
793 431 m 0
 792 514 763 582 706 634 c 0
 651 683 582 707 501 707 c 0
 418 708 348 682 291 631 c 0
 231 578 201 511 201 431 c 0
 201 278 272 178 414 132 c 1
 414 88 l 1
 278 88 l 2
 248 88 233 99 233 121 c 0
 233 124 233 129 234 138 c 0
 235 145 235 150 234 154 c 1
 210 154 l 1
 210 0 l 1
 445 0 l 1
 445 156 l 1
 394 188 358 227 339 273 c 0
 322 310 314 362 314 429 c 0
 313 499 328 556 357 601 c 0
 390 652 438 678 501 678 c 0
 558 678 604 651 637 596 c 0
 666 549 680 494 680 431 c 0
 680 302 639 210 557 156 c 1
 557 0 l 1
 789 0 l 1
 789 154 l 1
 766 154 l 1
 765 140 763 126 762 111 c 1
 757 98 742 91 717 91 c 2
 589 91 l 1
 589 134 l 1
 652 154 701 190 738 243 c 0
 775 296 794 359 793 431 c 0
149 621 m 0
 149 682 104 719 52 718 c 0
 29 718 14 708 9 689 c 0
 3 668 9 652 26 641 c 1
 51 632 70 627 82 626 c 0
 89 624 92 618 92 609 c 0
 92 602 90 596 86 589 c 0
 73 566 51 554 20 553 c 1
 18 544 17 534 17 525 c 1
 21 524 26 523 32 523 c 0
 96 523 149 562 149 621 c 0
EndSplineSet
Validated: 41
EndChar

StartChar: uni1F09
Encoding: 7945 7945 68
Width: 689
Flags: MW
HStem: 444 195
AnchorPoint: "Base" 495 0 basechar 0
LayerCount: 2
Fore
SplineSet
660 0 m 1
 660 31 l 1
 625 31 l 2
 605 31 577 51 570 72 c 0
 541 151 513 230 485 309 c 0
 469 356 426 490 357 711 c 1
 327 711 l 1
 137 128 l 2
 116 64 82 32 34 32 c 0
 29 32 25 32 22 33 c 2
 23 0 l 1
 262 0 l 1
 262 31 l 1
 197 31 165 44 165 71 c 0
 165 76 166 81 168 86 c 0
 199 185 214 234 215 235 c 2
 418 235 l 1
 461 93 l 2
 463 87 464 81 464 76 c 0
 464 51 445 31 424 31 c 2
 358 31 l 1
 358 0 l 1
 660 0 l 1
405 274 m 1
 228 274 l 1
 317 553 l 1
 405 274 l 1
145 684 m 0
 141 707 124 718 93 716 c 0
 75 715 58 708 42 696 c 0
 23 682 10 664 4 642 c 0
 1 632 0 622 0 613 c 0
 0 586 11 563 33 545 c 0
 52 529 76 521 103 521 c 2
 111 521 l 1
 112 526 112 535 111 549 c 1
 72 555 51 569 49 591 c 0
 46 608 51 619 62 624 c 0
 66 626 76 628 91 629 c 0
 105 630 116 633 125 638 c 0
 143 648 150 663 145 684 c 0
EndSplineSet
Validated: 41
EndChar

StartChar: uni1F19
Encoding: 7961 7961 69
Width: 781
Flags: MW
HStem: 0 21G<722 722> 444 195
AnchorPoint: "Base" 650 0 basechar 0
LayerCount: 2
Fore
SplineSet
741 243 m 1
 712 243 l 1
 695 153 667 93 628 62 c 0
 599 39 555 27 494 27 c 0
 486 27 469 27 443 28 c 0
 420 29 402 29 388 28 c 1
 388 336 l 1
 465 336 l 2
 501 336 544 279 544 187 c 1
 571 187 l 1
 571 509 l 1
 544 509 l 1
 543 463 534 429 519 407 c 0
 501 380 483 367 465 367 c 2
 388 367 l 1
 388 674 l 1
 465 673 510 672 522 670 c 0
 565 665 599 649 624 623 c 0
 653 592 676 542 691 473 c 1
 718 473 l 1
 713 703 l 1
 193 703 l 1
 193 673 l 1
 256 673 l 2
 283 672 296 657 296 626 c 2
 296 485 l 1
 296 348 l 1
 296 69 l 2
 296 42 283 28 256 28 c 2
 194 28 l 1
 194 1 l 1
 722 0 l 1
 741 243 l 1
145 684 m 0
 141 707 124 718 93 716 c 0
 75 715 58 708 42 696 c 0
 23 682 10 664 4 642 c 0
 1 632 0 622 0 613 c 0
 0 586 11 563 33 545 c 0
 52 529 76 521 103 521 c 2
 111 521 l 1
 112 526 112 535 111 549 c 1
 72 555 51 569 49 591 c 0
 46 608 51 619 62 624 c 0
 66 626 76 628 91 629 c 0
 105 630 116 633 125 638 c 0
 143 648 150 663 145 684 c 0
EndSplineSet
Validated: 41
EndChar

StartChar: uni1F29
Encoding: 7977 7977 70
Width: 840
Flags: MW
HStem: 0 21G 444 195
AnchorPoint: "Base" 650 0 basechar 0
LayerCount: 2
Fore
SplineSet
811 32 m 1
 751 31 l 2
 730 31 713 48 713 67 c 2
 713 638 l 2
 713 663 726 676 752 676 c 2
 810 676 l 1
 810 706 l 1
 532 706 l 1
 533 676 l 1
 592 676 l 2
 616 676 628 663 628 637 c 2
 628 382 l 1
 364 382 l 1
 363 637 l 2
 363 663 376 676 403 676 c 2
 462 676 l 1
 461 706 l 1
 183 706 l 1
 183 676 l 1
 242 676 l 2
 267 676 280 663 280 638 c 2
 280 71 l 2
 280 45 268 32 243 32 c 2
 184 32 l 1
 183 -1 l 1
 462 -1 l 1
 460 31 l 1
 402 31 l 2
 376 31 363 44 363 70 c 2
 364 348 l 1
 628 348 l 1
 628 70 l 2
 628 44 615 31 590 31 c 2
 532 31 l 1
 531 1 l 1
 811 1 l 1
 811 32 l 1
145 684 m 0
 141 707 124 718 93 716 c 0
 75 715 58 708 42 696 c 0
 23 682 10 664 4 642 c 0
 1 632 0 622 0 613 c 0
 0 586 11 563 33 545 c 0
 52 529 76 521 103 521 c 2
 111 521 l 1
 112 526 112 535 111 549 c 1
 72 555 51 569 49 591 c 0
 46 608 51 619 62 624 c 0
 66 626 76 628 91 629 c 0
 105 630 116 633 125 638 c 0
 143 648 150 663 145 684 c 0
EndSplineSet
Validated: 41
EndChar

StartChar: uni1F39
Encoding: 7993 7993 71
Width: 535
Flags: MW
HStem: 0 21G<207 501 501 501> 444 195
AnchorPoint: "Base" 515 0 basechar 0
LayerCount: 2
Fore
SplineSet
501 0 m 1
 501 28 l 1
 439 28 l 2
 412 28 399 42 399 69 c 2
 398 633 l 2
 398 660 412 673 439 673 c 2
 501 673 l 1
 501 703 l 1
 206 703 l 1
 206 673 l 1
 268 673 l 2
 294 673 307 658 307 628 c 2
 308 69 l 2
 308 42 295 28 269 28 c 2
 207 28 l 1
 207 0 l 1
 501 0 l 1
145 684 m 0
 141 707 124 718 93 716 c 0
 75 715 58 708 42 696 c 0
 23 682 10 664 4 642 c 0
 1 632 0 622 0 613 c 0
 0 586 11 563 33 545 c 0
 52 529 76 521 103 521 c 2
 111 521 l 1
 112 526 112 535 111 549 c 1
 72 555 51 569 49 591 c 0
 46 608 51 619 62 624 c 0
 66 626 76 628 91 629 c 0
 105 630 116 633 125 638 c 0
 143 648 150 663 145 684 c 0
EndSplineSet
Validated: 41
EndChar

StartChar: uni1F49
Encoding: 8009 8009 72
Width: 800
Flags: MW
HStem: -29 21 444 195
AnchorPoint: "Base" 630 0 basechar 0
LayerCount: 2
Fore
SplineSet
755 354 m 0
 756 453 734 536 688 603 c 0
 636 678 564 716 473 716 c 0
 392 716 325 677 270 598 c 0
 219 525 193 444 193 354 c 0
 193 257 218 174 268 104 c 0
 323 29 392 -9 477 -9 c 0
 565 -9 634 30 685 108 c 0
 730 176 753 258 755 354 c 0
647 358 m 0
 647 267 640 197 625 150 c 0
 599 65 550 23 477 23 c 0
 402 23 352 64 325 146 c 0
 310 194 302 265 302 358 c 0
 302 449 311 520 328 569 c 0
 355 645 404 683 475 683 c 0
 547 683 596 646 622 572 c 0
 639 525 647 453 647 358 c 0
145 684 m 0
 141 707 124 718 93 716 c 0
 75 715 58 708 42 696 c 0
 23 682 10 664 4 642 c 0
 1 632 0 622 0 613 c 0
 0 586 11 563 33 545 c 0
 52 529 76 521 103 521 c 2
 111 521 l 1
 112 526 112 535 111 549 c 1
 72 555 51 569 49 591 c 0
 46 608 51 619 62 624 c 0
 66 626 76 628 91 629 c 0
 105 630 116 633 125 638 c 0
 143 648 150 663 145 684 c 0
EndSplineSet
Validated: 41
EndChar

StartChar: uni1F59
Encoding: 8025 8025 73
Width: 843
Flags: MW
HStem: 89 20G 444 195
AnchorPoint: "Base" 670 0 basechar 0
LayerCount: 2
Fore
SplineSet
816 621 m 1
 803 675 784 703 759 705 c 0
 725 708 692 682 660 626 c 0
 635 582 608 521 577 444 c 0
 561 405 545 366 530 327 c 1
 489 432 457 505 436 548 c 0
 377 663 336 707 285 708 c 0
 245 708 211 679 183 621 c 1
 201 604 l 2
 202 605 208 613 220 626 c 0
 230 637 239 643 246 642 c 0
 275 641 308 605 343 536 c 0
 406 414 444 330 457 283 c 1
 457 69 l 2
 457 42 444 28 417 28 c 2
 354 28 l 1
 354 0 l 1
 649 0 l 1
 649 28 l 1
 587 28 l 2
 560 28 547 42 547 69 c 2
 547 284 l 1
 583 377 624 467 669 554 c 0
 696 605 723 631 749 631 c 0
 760 631 772 627 783 619 c 0
 792 612 797 609 797 608 c 2
 816 621 l 1
145 684 m 0
 141 707 124 718 93 716 c 0
 75 715 58 708 42 696 c 0
 23 682 10 664 4 642 c 0
 1 632 0 622 0 613 c 0
 0 586 11 563 33 545 c 0
 52 529 76 521 103 521 c 2
 111 521 l 1
 112 526 112 535 111 549 c 1
 72 555 51 569 49 591 c 0
 46 608 51 619 62 624 c 0
 66 626 76 628 91 629 c 0
 105 630 116 633 125 638 c 0
 143 648 150 663 145 684 c 0
EndSplineSet
Validated: 41
EndChar

StartChar: uni1F69
Encoding: 8041 8041 74
Width: 846
Flags: MW
HStem: -5 85 444 195 667 31
AnchorPoint: "Base" 670 0 basechar 0
LayerCount: 2
Fore
SplineSet
797 431 m 0
 796 514 767 582 710 634 c 0
 655 683 586 707 505 707 c 0
 422 708 352 682 295 631 c 0
 235 578 205 511 205 431 c 0
 205 278 276 178 418 132 c 1
 418 88 l 1
 282 88 l 2
 252 88 237 99 237 121 c 0
 237 124 237 129 238 138 c 0
 239 145 239 150 238 154 c 1
 214 154 l 1
 214 0 l 1
 449 0 l 1
 449 156 l 1
 398 188 362 227 343 273 c 0
 326 310 318 362 318 429 c 0
 317 499 332 556 361 601 c 0
 394 652 442 678 505 678 c 0
 562 678 608 651 641 596 c 0
 670 549 684 494 684 431 c 0
 684 302 643 210 561 156 c 1
 561 0 l 1
 793 0 l 1
 793 154 l 1
 770 154 l 1
 769 140 767 126 766 111 c 1
 761 98 746 91 721 91 c 2
 593 91 l 1
 593 134 l 1
 656 154 705 190 742 243 c 0
 779 296 798 359 797 431 c 0
145 684 m 0
 141 707 124 718 93 716 c 0
 75 715 58 708 42 696 c 0
 23 682 10 664 4 642 c 0
 1 632 0 622 0 613 c 0
 0 586 11 563 33 545 c 0
 52 529 76 521 103 521 c 2
 111 521 l 1
 112 526 112 535 111 549 c 1
 72 555 51 569 49 591 c 0
 46 608 51 619 62 624 c 0
 66 626 76 628 91 629 c 0
 105 630 116 633 125 638 c 0
 143 648 150 663 145 684 c 0
EndSplineSet
Validated: 41
EndChar

StartChar: uni1F0A
Encoding: 7946 7946 75
Width: 845
Flags: MW
HStem: 257 31 486 38 530 83
VStem: 34 45
AnchorPoint: "Base" 640 0 basechar 0
LayerCount: 2
Fore
SplineSet
816 0 m 1
 816 31 l 1
 781 31 l 2
 761 31 733 51 726 72 c 0
 697 151 669 230 641 309 c 0
 625 356 582 490 513 711 c 1
 483 711 l 1
 293 128 l 2
 272 64 238 32 190 32 c 0
 185 32 181 32 178 33 c 2
 179 0 l 1
 418 0 l 1
 418 31 l 1
 353 31 321 44 321 71 c 0
 321 76 322 81 324 86 c 0
 355 185 370 234 371 235 c 2
 574 235 l 1
 617 93 l 2
 619 87 620 81 620 76 c 0
 620 51 601 31 580 31 c 2
 514 31 l 1
 514 0 l 1
 816 0 l 1
561 274 m 1
 384 274 l 1
 473 553 l 1
 561 274 l 1
322 496 m 1
 266 621 232 691 221 705 c 0
 214 713 203 717 188 717 c 0
 165 717 155 703 155 683 c 0
 155 671 159 660 168 650 c 0
 253 546 296 495 296 496 c 2
 322 496 l 1
137 599 m 0
 137 651 91 687 39 687 c 0
 27 687 17 682 9 671 c 0
 3 662 0 652 0 641 c 0
 0 616 18 604 53 604 c 0
 57 604 61 604 65 605 c 0
 78 606 92 591 92 576 c 0
 93 559 87 546 76 535 c 0
 73 530 63 523 48 513 c 1
 59 497 l 1
 82 504 102 518 119 540 c 0
 131 555 137 575 137 599 c 0
EndSplineSet
Validated: 41
EndChar

StartChar: uni1F1A
Encoding: 7962 7962 76
Width: 937
Flags: MW
HStem: 0 21G<878 878> 530 83
VStem: 34 45
AnchorPoint: "Base" 800 0 basechar 0
LayerCount: 2
Fore
SplineSet
897 243 m 1
 868 243 l 1
 851 153 823 93 784 62 c 0
 755 39 711 27 650 27 c 0
 642 27 625 27 599 28 c 0
 576 29 558 29 544 28 c 1
 544 336 l 1
 621 336 l 2
 657 336 700 279 700 187 c 1
 727 187 l 1
 727 509 l 1
 700 509 l 1
 699 463 690 429 675 407 c 0
 657 380 639 367 621 367 c 2
 544 367 l 1
 544 674 l 1
 621 673 666 672 678 670 c 0
 721 665 755 649 780 623 c 0
 809 592 832 542 847 473 c 1
 874 473 l 1
 869 703 l 1
 349 703 l 1
 349 673 l 1
 412 673 l 2
 439 672 452 657 452 626 c 2
 452 485 l 1
 452 348 l 1
 452 69 l 2
 452 42 439 28 412 28 c 2
 350 28 l 1
 350 1 l 1
 878 0 l 1
 897 243 l 1
322 496 m 1
 266 621 232 691 221 705 c 0
 214 713 203 717 188 717 c 0
 165 717 155 703 155 683 c 0
 155 671 159 660 168 650 c 0
 253 546 296 495 296 496 c 2
 322 496 l 1
137 599 m 0
 137 651 91 687 39 687 c 0
 27 687 17 682 9 671 c 0
 3 662 0 652 0 641 c 0
 0 616 18 604 53 604 c 0
 57 604 61 604 65 605 c 0
 78 606 92 591 92 576 c 0
 93 559 87 546 76 535 c 0
 73 530 63 523 48 513 c 1
 59 497 l 1
 82 504 102 518 119 540 c 0
 131 555 137 575 137 599 c 0
EndSplineSet
Validated: 41
EndChar

StartChar: uni1F2A
Encoding: 7978 7978 77
Width: 1010
Flags: MW
HStem: 0 21G 530 83
VStem: 34 45
AnchorPoint: "Base" 840 0 basechar 0
LayerCount: 2
Fore
SplineSet
981 32 m 1
 921 31 l 2
 900 31 883 48 883 67 c 2
 883 638 l 2
 883 663 896 676 922 676 c 2
 980 676 l 1
 980 706 l 1
 702 706 l 1
 703 676 l 1
 762 676 l 2
 786 676 798 663 798 637 c 2
 798 382 l 1
 534 382 l 1
 533 637 l 2
 533 663 546 676 573 676 c 2
 632 676 l 1
 631 706 l 1
 353 706 l 1
 353 676 l 1
 412 676 l 2
 437 676 450 663 450 638 c 2
 450 71 l 2
 450 45 438 32 413 32 c 2
 354 32 l 1
 353 -1 l 1
 632 -1 l 1
 630 31 l 1
 572 31 l 2
 546 31 533 44 533 70 c 2
 534 348 l 1
 798 348 l 1
 798 70 l 2
 798 44 785 31 760 31 c 2
 702 31 l 1
 701 1 l 1
 981 1 l 1
 981 32 l 1
322 496 m 1
 266 621 232 691 221 705 c 0
 214 713 203 717 188 717 c 0
 165 717 155 703 155 683 c 0
 155 671 159 660 168 650 c 0
 253 546 296 495 296 496 c 2
 322 496 l 1
137 599 m 0
 137 651 91 687 39 687 c 0
 27 687 17 682 9 671 c 0
 3 662 0 652 0 641 c 0
 0 616 18 604 53 604 c 0
 57 604 61 604 65 605 c 0
 78 606 92 591 92 576 c 0
 93 559 87 546 76 535 c 0
 73 530 63 523 48 513 c 1
 59 497 l 1
 82 504 102 518 119 540 c 0
 131 555 137 575 137 599 c 0
EndSplineSet
Validated: 41
EndChar

StartChar: uni1F3A
Encoding: 7994 7994 78
Width: 702
Flags: MW
HStem: 0 21G<374 668 668 668> 530 83
VStem: 34 45
AnchorPoint: "Base" 680 0 basechar 0
LayerCount: 2
Fore
SplineSet
668 0 m 1
 668 28 l 1
 606 28 l 2
 579 28 566 42 566 69 c 2
 565 633 l 2
 565 660 579 673 606 673 c 2
 668 673 l 1
 668 703 l 1
 373 703 l 1
 373 673 l 1
 435 673 l 2
 461 673 474 658 474 628 c 2
 475 69 l 2
 475 42 462 28 436 28 c 2
 374 28 l 1
 374 0 l 1
 668 0 l 1
322 496 m 1
 266 621 232 691 221 705 c 0
 214 713 203 717 188 717 c 0
 165 717 155 703 155 683 c 0
 155 671 159 660 168 650 c 0
 253 546 296 495 296 496 c 2
 322 496 l 1
137 599 m 0
 137 651 91 687 39 687 c 0
 27 687 17 682 9 671 c 0
 3 662 0 652 0 641 c 0
 0 616 18 604 53 604 c 0
 57 604 61 604 65 605 c 0
 78 606 92 591 92 576 c 0
 93 559 87 546 76 535 c 0
 73 530 63 523 48 513 c 1
 59 497 l 1
 82 504 102 518 119 540 c 0
 131 555 137 575 137 599 c 0
EndSplineSet
Validated: 41
EndChar

StartChar: uni1F4A
Encoding: 8010 8010 79
Width: 973
Flags: MW
HStem: -29 21 530 83
VStem: 34 45
AnchorPoint: "Base" 800 0 basechar 0
LayerCount: 2
Fore
SplineSet
928 354 m 0
 929 453 907 536 861 603 c 0
 809 678 737 716 646 716 c 0
 565 716 498 677 443 598 c 0
 392 525 366 444 366 354 c 0
 366 257 391 174 441 104 c 0
 496 29 565 -9 650 -9 c 0
 738 -9 807 30 858 108 c 0
 903 176 926 258 928 354 c 0
820 358 m 0
 820 267 813 197 798 150 c 0
 772 65 723 23 650 23 c 0
 575 23 525 64 498 146 c 0
 483 194 475 265 475 358 c 0
 475 449 484 520 501 569 c 0
 528 645 577 683 648 683 c 0
 720 683 769 646 795 572 c 0
 812 525 820 453 820 358 c 0
322 496 m 1
 266 621 232 691 221 705 c 0
 214 713 203 717 188 717 c 0
 165 717 155 703 155 683 c 0
 155 671 159 660 168 650 c 0
 253 546 296 495 296 496 c 2
 322 496 l 1
137 599 m 0
 137 651 91 687 39 687 c 0
 27 687 17 682 9 671 c 0
 3 662 0 652 0 641 c 0
 0 616 18 604 53 604 c 0
 57 604 61 604 65 605 c 0
 78 606 92 591 92 576 c 0
 93 559 87 546 76 535 c 0
 73 530 63 523 48 513 c 1
 59 497 l 1
 82 504 102 518 119 540 c 0
 131 555 137 575 137 599 c 0
EndSplineSet
Validated: 41
EndChar

StartChar: uni1F6A
Encoding: 8042 8042 80
Width: 1014
Flags: MW
HStem: -5 85 530 83 667 31
VStem: 34 45
AnchorPoint: "Base" 830 0 basechar 0
LayerCount: 2
Fore
SplineSet
965 431 m 0
 964 514 935 582 878 634 c 0
 823 683 754 707 673 707 c 0
 590 708 520 682 463 631 c 0
 403 578 373 511 373 431 c 0
 373 278 444 178 586 132 c 1
 586 88 l 1
 450 88 l 2
 420 88 405 99 405 121 c 0
 405 124 405 129 406 138 c 0
 407 145 407 150 406 154 c 1
 382 154 l 1
 382 0 l 1
 617 0 l 1
 617 156 l 1
 566 188 530 227 511 273 c 0
 494 310 486 362 486 429 c 0
 485 499 500 556 529 601 c 0
 562 652 610 678 673 678 c 0
 730 678 776 651 809 596 c 0
 838 549 852 494 852 431 c 0
 852 302 811 210 729 156 c 1
 729 0 l 1
 961 0 l 1
 961 154 l 1
 938 154 l 1
 937 140 935 126 934 111 c 1
 929 98 914 91 889 91 c 2
 761 91 l 1
 761 134 l 1
 824 154 873 190 910 243 c 0
 947 296 966 359 965 431 c 0
322 496 m 1
 266 621 232 691 221 705 c 0
 214 713 203 717 188 717 c 0
 165 717 155 703 155 683 c 0
 155 671 159 660 168 650 c 0
 253 546 296 495 296 496 c 2
 322 496 l 1
137 599 m 0
 137 651 91 687 39 687 c 0
 27 687 17 682 9 671 c 0
 3 662 0 652 0 641 c 0
 0 616 18 604 53 604 c 0
 57 604 61 604 65 605 c 0
 78 606 92 591 92 576 c 0
 93 559 87 546 76 535 c 0
 73 530 63 523 48 513 c 1
 59 497 l 1
 82 504 102 518 119 540 c 0
 131 555 137 575 137 599 c 0
EndSplineSet
Validated: 41
EndChar

StartChar: uni1F0B
Encoding: 7947 7947 81
Width: 858
Flags: MW
HStem: 257 31 486 38 528 83
VStem: -57 45
AnchorPoint: "Base" 640 0 basechar 0
LayerCount: 2
Fore
SplineSet
829 0 m 1
 829 31 l 1
 794 31 l 2
 774 31 746 51 739 72 c 0
 710 151 682 230 654 309 c 0
 638 356 595 490 526 711 c 1
 496 711 l 1
 306 128 l 2
 285 64 251 32 203 32 c 0
 198 32 194 32 191 33 c 2
 192 0 l 1
 431 0 l 1
 431 31 l 1
 366 31 334 44 334 71 c 0
 334 76 335 81 337 86 c 0
 368 185 383 234 384 235 c 2
 587 235 l 1
 630 93 l 2
 632 87 633 81 633 76 c 0
 633 51 614 31 593 31 c 2
 527 31 l 1
 527 0 l 1
 829 0 l 1
574 274 m 1
 397 274 l 1
 486 553 l 1
 574 274 l 1
333 494 m 1
 277 620 243 690 232 703 c 0
 225 712 214 716 199 716 c 0
 176 716 166 701 166 681 c 0
 166 669 170 658 179 648 c 0
 264 544 307 493 307 494 c 2
 333 494 l 1
137 640 m 0
 137 651 134 660 128 669 c 0
 121 680 111 685 98 685 c 0
 46 685 0 649 0 598 c 0
 0 574 6 554 19 539 c 0
 36 517 56 502 79 495 c 1
 90 511 l 1
 75 522 65 529 61 533 c 0
 50 544 45 558 45 574 c 0
 45 589 59 606 72 603 c 0
 76 602 80 602 85 602 c 0
 120 602 137 615 137 640 c 0
EndSplineSet
Validated: 41
EndChar

StartChar: uni1F1B
Encoding: 7963 7963 82
Width: 952
Flags: MW
HStem: 0 21G<893 893> 528 83
VStem: -57 45
AnchorPoint: "Base" 800 0 basechar 0
LayerCount: 2
Fore
SplineSet
912 243 m 1
 883 243 l 1
 866 153 838 93 799 62 c 0
 770 39 726 27 665 27 c 0
 657 27 640 27 614 28 c 0
 591 29 573 29 559 28 c 1
 559 336 l 1
 636 336 l 2
 672 336 715 279 715 187 c 1
 742 187 l 1
 742 509 l 1
 715 509 l 1
 714 463 705 429 690 407 c 0
 672 380 654 367 636 367 c 2
 559 367 l 1
 559 674 l 1
 636 673 681 672 693 670 c 0
 736 665 770 649 795 623 c 0
 824 592 847 542 862 473 c 1
 889 473 l 1
 884 703 l 1
 364 703 l 1
 364 673 l 1
 427 673 l 2
 454 672 467 657 467 626 c 2
 467 485 l 1
 467 348 l 1
 467 69 l 2
 467 42 454 28 427 28 c 2
 365 28 l 1
 365 1 l 1
 893 0 l 1
 912 243 l 1
333 494 m 1
 277 620 243 690 232 703 c 0
 225 712 214 716 199 716 c 0
 176 716 166 701 166 681 c 0
 166 669 170 658 179 648 c 0
 264 544 307 493 307 494 c 2
 333 494 l 1
137 640 m 0
 137 651 134 660 128 669 c 0
 121 680 111 685 98 685 c 0
 46 685 0 649 0 598 c 0
 0 574 6 554 19 539 c 0
 36 517 56 502 79 495 c 1
 90 511 l 1
 75 522 65 529 61 533 c 0
 50 544 45 558 45 574 c 0
 45 589 59 606 72 603 c 0
 76 602 80 602 85 602 c 0
 120 602 137 615 137 640 c 0
EndSplineSet
Validated: 41
EndChar

StartChar: uni1F25
Encoding: 7973 7973 83
Width: 501
Flags: MW
HStem: 528 83
VStem: 207 45
AnchorPoint: "Base" 340 0 basechar 0
LayerCount: 2
Fore
SplineSet
444 244 m 0
 448 263 450 281 450 298 c 0
 450 367 411 406 351 406 c 0
 339 406 326 404 313 401 c 0
 266 390 224 350 189 279 c 1
 190 312 184 341 171 364 c 0
 156 391 135 404 106 404 c 0
 77 405 55 391 40 362 c 0
 31 345 22 317 13 278 c 1
 31 278 l 1
 48 323 71 344 101 343 c 0
 115 343 127 335 137 319 c 0
 146 304 150 288 150 269 c 0
 150 262 149 255 148 248 c 0
 119 125 97 42 83 1 c 1
 78 1 101 1 154 0 c 1
 191 182 l 1
 223 311 270 376 331 376 c 0
 368 376 387 351 387 301 c 0
 387 280 383 256 376 229 c 0
 329 30 293 -121 268 -226 c 1
 306 -226 l 2
 332 -225 345 -225 345 -226 c 1
 354 -187 369 -113 392 -3 c 0
 415 107 432 189 444 244 c 0
474 701 m 0
 485 688 485 663 469 644 c 0
 451 622 341 488 341 490 c 0
 341 491 315 490 315 490 c 1
 334 535 399 680 416 699 c 0
 426 710 459 719 474 701 c 0
321 636 m 0
 321 602 279 595 256 599 c 0
 242 601 229 583 229 570 c 0
 229 532 256 519 274 507 c 1
 262 491 l 1
 247 496 218 515 202 534 c 0
 189 551 180 585 186 611 c 0
 195 650 233 681 282 681 c 0
 309 681 321 654 321 636 c 0
EndSplineSet
Validated: 41
EndChar

StartChar: uni1F2B
Encoding: 7979 7979 84
Width: 1023
Flags: MW
HStem: 0 21G 528 83
VStem: -57 45
AnchorPoint: "Base" 840 0 basechar 0
LayerCount: 2
Fore
SplineSet
994 32 m 1
 934 31 l 2
 913 31 896 48 896 67 c 2
 896 638 l 2
 896 663 909 676 935 676 c 2
 993 676 l 1
 993 706 l 1
 715 706 l 1
 716 676 l 1
 775 676 l 2
 799 676 811 663 811 637 c 2
 811 382 l 1
 547 382 l 1
 546 637 l 2
 546 663 559 676 586 676 c 2
 645 676 l 1
 644 706 l 1
 366 706 l 1
 366 676 l 1
 425 676 l 2
 450 676 463 663 463 638 c 2
 463 71 l 2
 463 45 451 32 426 32 c 2
 367 32 l 1
 366 -1 l 1
 645 -1 l 1
 643 31 l 1
 585 31 l 2
 559 31 546 44 546 70 c 2
 547 348 l 1
 811 348 l 1
 811 70 l 2
 811 44 798 31 773 31 c 2
 715 31 l 1
 714 1 l 1
 994 1 l 1
 994 32 l 1
333 494 m 1
 277 620 243 690 232 703 c 0
 225 712 214 716 199 716 c 0
 176 716 166 701 166 681 c 0
 166 669 170 658 179 648 c 0
 264 544 307 493 307 494 c 2
 333 494 l 1
137 640 m 0
 137 651 134 660 128 669 c 0
 121 680 111 685 98 685 c 0
 46 685 0 649 0 598 c 0
 0 574 6 554 19 539 c 0
 36 517 56 502 79 495 c 1
 90 511 l 1
 75 522 65 529 61 533 c 0
 50 544 45 558 45 574 c 0
 45 589 59 606 72 603 c 0
 76 602 80 602 85 602 c 0
 120 602 137 615 137 640 c 0
EndSplineSet
Validated: 41
EndChar

StartChar: uni1F3B
Encoding: 7995 7995 85
Width: 712
Flags: MW
HStem: 0 21G<384 678 678 678> 528 83
VStem: -57 45
AnchorPoint: "Base" 690 0 basechar 0
LayerCount: 2
Fore
SplineSet
678 0 m 1
 678 28 l 1
 616 28 l 2
 589 28 576 42 576 69 c 2
 575 633 l 2
 575 660 589 673 616 673 c 2
 678 673 l 1
 678 703 l 1
 383 703 l 1
 383 673 l 1
 445 673 l 2
 471 673 484 658 484 628 c 2
 485 69 l 2
 485 42 472 28 446 28 c 2
 384 28 l 1
 384 0 l 1
 678 0 l 1
333 494 m 1
 277 620 243 690 232 703 c 0
 225 712 214 716 199 716 c 0
 176 716 166 701 166 681 c 0
 166 669 170 658 179 648 c 0
 264 544 307 493 307 494 c 2
 333 494 l 1
137 640 m 0
 137 651 134 660 128 669 c 0
 121 680 111 685 98 685 c 0
 46 685 0 649 0 598 c 0
 0 574 6 554 19 539 c 0
 36 517 56 502 79 495 c 1
 90 511 l 1
 75 522 65 529 61 533 c 0
 50 544 45 558 45 574 c 0
 45 589 59 606 72 603 c 0
 76 602 80 602 85 602 c 0
 120 602 137 615 137 640 c 0
EndSplineSet
Validated: 41
EndChar

StartChar: uni1F4B
Encoding: 8011 8011 86
Width: 984
Flags: MW
HStem: -29 21 528 83
VStem: -57 45
AnchorPoint: "Base" 820 0 basechar 0
LayerCount: 2
Fore
SplineSet
939 354 m 0
 940 453 918 536 872 603 c 0
 820 678 748 716 657 716 c 0
 576 716 509 677 454 598 c 0
 403 525 377 444 377 354 c 0
 377 257 402 174 452 104 c 0
 507 29 576 -9 661 -9 c 0
 749 -9 818 30 869 108 c 0
 914 176 937 258 939 354 c 0
831 358 m 0
 831 267 824 197 809 150 c 0
 783 65 734 23 661 23 c 0
 586 23 536 64 509 146 c 0
 494 194 486 265 486 358 c 0
 486 449 495 520 512 569 c 0
 539 645 588 683 659 683 c 0
 731 683 780 646 806 572 c 0
 823 525 831 453 831 358 c 0
333 494 m 1
 277 620 243 690 232 703 c 0
 225 712 214 716 199 716 c 0
 176 716 166 701 166 681 c 0
 166 669 170 658 179 648 c 0
 264 544 307 493 307 494 c 2
 333 494 l 1
137 640 m 0
 137 651 134 660 128 669 c 0
 121 680 111 685 98 685 c 0
 46 685 0 649 0 598 c 0
 0 574 6 554 19 539 c 0
 36 517 56 502 79 495 c 1
 90 511 l 1
 75 522 65 529 61 533 c 0
 50 544 45 558 45 574 c 0
 45 589 59 606 72 603 c 0
 76 602 80 602 85 602 c 0
 120 602 137 615 137 640 c 0
EndSplineSet
Validated: 41
EndChar

StartChar: uni1F5B
Encoding: 8027 8027 87
Width: 1026
Flags: MW
HStem: 89 20G 528 83
VStem: -57 45
AnchorPoint: "Base" 850 0 basechar 0
LayerCount: 2
Fore
SplineSet
999 621 m 1
 986 675 967 703 942 705 c 0
 908 708 875 682 843 626 c 0
 818 582 791 521 760 444 c 0
 744 405 728 366 713 327 c 1
 672 432 640 505 619 548 c 0
 560 663 519 707 468 708 c 0
 428 708 394 679 366 621 c 1
 384 604 l 2
 385 605 391 613 403 626 c 0
 413 637 422 643 429 642 c 0
 458 641 491 605 526 536 c 0
 589 414 627 330 640 283 c 1
 640 69 l 2
 640 42 627 28 600 28 c 2
 537 28 l 1
 537 0 l 1
 832 0 l 1
 832 28 l 1
 770 28 l 2
 743 28 730 42 730 69 c 2
 730 284 l 1
 766 377 807 467 852 554 c 0
 879 605 906 631 932 631 c 0
 943 631 955 627 966 619 c 0
 975 612 980 609 980 608 c 2
 999 621 l 1
333 494 m 1
 277 620 243 690 232 703 c 0
 225 712 214 716 199 716 c 0
 176 716 166 701 166 681 c 0
 166 669 170 658 179 648 c 0
 264 544 307 493 307 494 c 2
 333 494 l 1
137 640 m 0
 137 651 134 660 128 669 c 0
 121 680 111 685 98 685 c 0
 46 685 0 649 0 598 c 0
 0 574 6 554 19 539 c 0
 36 517 56 502 79 495 c 1
 90 511 l 1
 75 522 65 529 61 533 c 0
 50 544 45 558 45 574 c 0
 45 589 59 606 72 603 c 0
 76 602 80 602 85 602 c 0
 120 602 137 615 137 640 c 0
EndSplineSet
Validated: 41
EndChar

StartChar: uni1F6B
Encoding: 8043 8043 88
Width: 1026
Flags: MW
HStem: -5 85 528 83 667 31
VStem: -57 45
AnchorPoint: "Base" 845 0 basechar 0
LayerCount: 2
Fore
SplineSet
977 431 m 0
 976 514 947 582 890 634 c 0
 835 683 766 707 685 707 c 0
 602 708 532 682 475 631 c 0
 415 578 385 511 385 431 c 0
 385 278 456 178 598 132 c 1
 598 88 l 1
 462 88 l 2
 432 88 417 99 417 121 c 0
 417 124 417 129 418 138 c 0
 419 145 419 150 418 154 c 1
 394 154 l 1
 394 0 l 1
 629 0 l 1
 629 156 l 1
 578 188 542 227 523 273 c 0
 506 310 498 362 498 429 c 0
 497 499 512 556 541 601 c 0
 574 652 622 678 685 678 c 0
 742 678 788 651 821 596 c 0
 850 549 864 494 864 431 c 0
 864 302 823 210 741 156 c 1
 741 0 l 1
 973 0 l 1
 973 154 l 1
 950 154 l 1
 949 140 947 126 946 111 c 1
 941 98 926 91 901 91 c 2
 773 91 l 1
 773 134 l 1
 836 154 885 190 922 243 c 0
 959 296 978 359 977 431 c 0
333 494 m 1
 277 620 243 690 232 703 c 0
 225 712 214 716 199 716 c 0
 176 716 166 701 166 681 c 0
 166 669 170 658 179 648 c 0
 264 544 307 493 307 494 c 2
 333 494 l 1
137 640 m 0
 137 651 134 660 128 669 c 0
 121 680 111 685 98 685 c 0
 46 685 0 649 0 598 c 0
 0 574 6 554 19 539 c 0
 36 517 56 502 79 495 c 1
 90 511 l 1
 75 522 65 529 61 533 c 0
 50 544 45 558 45 574 c 0
 45 589 59 606 72 603 c 0
 76 602 80 602 85 602 c 0
 120 602 137 615 137 640 c 0
EndSplineSet
Validated: 41
EndChar

StartChar: uni1F0C
Encoding: 7948 7948 89
Width: 828
Flags: MW
HStem: 257 31 486 38 526 83
VStem: -54 45
AnchorPoint: "Base" 630 0 basechar 0
LayerCount: 2
Fore
SplineSet
799 0 m 1
 799 31 l 1
 764 31 l 2
 744 31 716 51 709 72 c 0
 680 151 652 230 624 309 c 0
 608 356 565 490 496 711 c 1
 466 711 l 1
 276 128 l 2
 255 64 221 32 173 32 c 0
 168 32 164 32 161 33 c 2
 162 0 l 1
 401 0 l 1
 401 31 l 1
 336 31 304 44 304 71 c 0
 304 76 305 81 307 86 c 0
 338 185 353 234 354 235 c 2
 557 235 l 1
 600 93 l 2
 602 87 603 81 603 76 c 0
 603 51 584 31 563 31 c 2
 497 31 l 1
 497 0 l 1
 799 0 l 1
544 274 m 1
 367 274 l 1
 456 553 l 1
 544 274 l 1
305 679 m 0
 305 698 296 713 273 713 c 0
 258 713 247 709 240 701 c 0
 228 687 194 617 138 491 c 1
 155 491 164 491 165 492 c 1
 165 490 208 541 293 646 c 0
 301 656 305 667 305 679 c 0
136 595 m 0
 136 646 91 683 39 683 c 0
 14 683 0 658 0 637 c 0
 0 612 17 599 52 599 c 0
 57 599 61 599 65 600 c 0
 78 603 91 585 91 572 c 0
 92 555 87 541 76 530 c 0
 72 526 62 519 47 509 c 1
 58 492 l 1
 81 499 101 514 118 536 c 0
 130 551 136 571 136 595 c 0
EndSplineSet
Validated: 41
EndChar

StartChar: uni1F1C
Encoding: 7964 7964 90
Width: 949
Flags: MW
HStem: 0 21G<890 890> 526 83
VStem: -54 45
AnchorPoint: "Base" 810 0 basechar 0
LayerCount: 2
Fore
SplineSet
909 243 m 1
 880 243 l 1
 863 153 835 93 796 62 c 0
 767 39 723 27 662 27 c 0
 654 27 637 27 611 28 c 0
 588 29 570 29 556 28 c 1
 556 336 l 1
 633 336 l 2
 669 336 712 279 712 187 c 1
 739 187 l 1
 739 509 l 1
 712 509 l 1
 711 463 702 429 687 407 c 0
 669 380 651 367 633 367 c 2
 556 367 l 1
 556 674 l 1
 633 673 678 672 690 670 c 0
 733 665 767 649 792 623 c 0
 821 592 844 542 859 473 c 1
 886 473 l 1
 881 703 l 1
 361 703 l 1
 361 673 l 1
 424 673 l 2
 451 672 464 657 464 626 c 2
 464 485 l 1
 464 348 l 1
 464 69 l 2
 464 42 451 28 424 28 c 2
 362 28 l 1
 362 1 l 1
 890 0 l 1
 909 243 l 1
305 679 m 0
 305 698 296 713 273 713 c 0
 258 713 247 709 240 701 c 0
 228 687 194 617 138 491 c 1
 155 491 164 491 165 492 c 1
 165 490 208 541 293 646 c 0
 301 656 305 667 305 679 c 0
136 595 m 0
 136 646 91 683 39 683 c 0
 14 683 0 658 0 637 c 0
 0 612 17 599 52 599 c 0
 57 599 61 599 65 600 c 0
 78 603 91 585 91 572 c 0
 92 555 87 541 76 530 c 0
 72 526 62 519 47 509 c 1
 58 492 l 1
 81 499 101 514 118 536 c 0
 130 551 136 571 136 595 c 0
EndSplineSet
Validated: 41
EndChar

StartChar: uni1F2C
Encoding: 7980 7980 91
Width: 995
Flags: MW
HStem: 0 21G 526 83
VStem: -54 45
AnchorPoint: "Base" 820 0 basechar 0
LayerCount: 2
Fore
SplineSet
966 32 m 1
 906 31 l 2
 885 31 868 48 868 67 c 2
 868 638 l 2
 868 663 881 676 907 676 c 2
 965 676 l 1
 965 706 l 1
 687 706 l 1
 688 676 l 1
 747 676 l 2
 771 676 783 663 783 637 c 2
 783 382 l 1
 519 382 l 1
 518 637 l 2
 518 663 531 676 558 676 c 2
 617 676 l 1
 616 706 l 1
 338 706 l 1
 338 676 l 1
 397 676 l 2
 422 676 435 663 435 638 c 2
 435 71 l 2
 435 45 423 32 398 32 c 2
 339 32 l 1
 338 -1 l 1
 617 -1 l 1
 615 31 l 1
 557 31 l 2
 531 31 518 44 518 70 c 2
 519 348 l 1
 783 348 l 1
 783 70 l 2
 783 44 770 31 745 31 c 2
 687 31 l 1
 686 1 l 1
 966 1 l 1
 966 32 l 1
305 679 m 0
 305 698 296 713 273 713 c 0
 258 713 247 709 240 701 c 0
 228 687 194 617 138 491 c 1
 155 491 164 491 165 492 c 1
 165 490 208 541 293 646 c 0
 301 656 305 667 305 679 c 0
136 595 m 0
 136 646 91 683 39 683 c 0
 14 683 0 658 0 637 c 0
 0 612 17 599 52 599 c 0
 57 599 61 599 65 600 c 0
 78 603 91 585 91 572 c 0
 92 555 87 541 76 530 c 0
 72 526 62 519 47 509 c 1
 58 492 l 1
 81 499 101 514 118 536 c 0
 130 551 136 571 136 595 c 0
EndSplineSet
Validated: 41
EndChar

StartChar: uni1F3C
Encoding: 7996 7996 92
Width: 685
Flags: MW
HStem: 0 21G<357 651 651 651> 526 83
VStem: -54 45
AnchorPoint: "Base" 680 0 basechar 0
LayerCount: 2
Fore
SplineSet
651 0 m 1
 651 28 l 1
 589 28 l 2
 562 28 549 42 549 69 c 2
 548 633 l 2
 548 660 562 673 589 673 c 2
 651 673 l 1
 651 703 l 1
 356 703 l 1
 356 673 l 1
 418 673 l 2
 444 673 457 658 457 628 c 2
 458 69 l 2
 458 42 445 28 419 28 c 2
 357 28 l 1
 357 0 l 1
 651 0 l 1
305 679 m 0
 305 698 296 713 273 713 c 0
 258 713 247 709 240 701 c 0
 228 687 194 617 138 491 c 1
 155 491 164 491 165 492 c 1
 165 490 208 541 293 646 c 0
 301 656 305 667 305 679 c 0
136 595 m 0
 136 646 91 683 39 683 c 0
 14 683 0 658 0 637 c 0
 0 612 17 599 52 599 c 0
 57 599 61 599 65 600 c 0
 78 603 91 585 91 572 c 0
 92 555 87 541 76 530 c 0
 72 526 62 519 47 509 c 1
 58 492 l 1
 81 499 101 514 118 536 c 0
 130 551 136 571 136 595 c 0
EndSplineSet
Validated: 41
EndChar

StartChar: uni1F4C
Encoding: 8012 8012 93
Width: 956
Flags: MW
HStem: -29 21 526 83
VStem: -54 45
AnchorPoint: "Base" 800 0 basechar 0
LayerCount: 2
Fore
SplineSet
911 354 m 0
 912 453 890 536 844 603 c 0
 792 678 720 716 629 716 c 0
 548 716 481 677 426 598 c 0
 375 525 349 444 349 354 c 0
 349 257 374 174 424 104 c 0
 479 29 548 -9 633 -9 c 0
 721 -9 790 30 841 108 c 0
 886 176 909 258 911 354 c 0
803 358 m 0
 803 267 796 197 781 150 c 0
 755 65 706 23 633 23 c 0
 558 23 508 64 481 146 c 0
 466 194 458 265 458 358 c 0
 458 449 467 520 484 569 c 0
 511 645 560 683 631 683 c 0
 703 683 752 646 778 572 c 0
 795 525 803 453 803 358 c 0
305 679 m 0
 305 698 296 713 273 713 c 0
 258 713 247 709 240 701 c 0
 228 687 194 617 138 491 c 1
 155 491 164 491 165 492 c 1
 165 490 208 541 293 646 c 0
 301 656 305 667 305 679 c 0
136 595 m 0
 136 646 91 683 39 683 c 0
 14 683 0 658 0 637 c 0
 0 612 17 599 52 599 c 0
 57 599 61 599 65 600 c 0
 78 603 91 585 91 572 c 0
 92 555 87 541 76 530 c 0
 72 526 62 519 47 509 c 1
 58 492 l 1
 81 499 101 514 118 536 c 0
 130 551 136 571 136 595 c 0
EndSplineSet
Validated: 41
EndChar

StartChar: uni1F6C
Encoding: 8044 8044 94
Width: 999
Flags: MW
HStem: -5 85 526 83 667 31
VStem: -54 45
AnchorPoint: "Base" 820 0 basechar 0
LayerCount: 2
Fore
SplineSet
950 431 m 0
 949 514 920 582 863 634 c 0
 808 683 739 707 658 707 c 0
 575 708 505 682 448 631 c 0
 388 578 358 511 358 431 c 0
 358 278 429 178 571 132 c 1
 571 88 l 1
 435 88 l 2
 405 88 390 99 390 121 c 0
 390 124 390 129 391 138 c 0
 392 145 392 150 391 154 c 1
 367 154 l 1
 367 0 l 1
 602 0 l 1
 602 156 l 1
 551 188 515 227 496 273 c 0
 479 310 471 362 471 429 c 0
 470 499 485 556 514 601 c 0
 547 652 595 678 658 678 c 0
 715 678 761 651 794 596 c 0
 823 549 837 494 837 431 c 0
 837 302 796 210 714 156 c 1
 714 0 l 1
 946 0 l 1
 946 154 l 1
 923 154 l 1
 922 140 920 126 919 111 c 1
 914 98 899 91 874 91 c 2
 746 91 l 1
 746 134 l 1
 809 154 858 190 895 243 c 0
 932 296 951 359 950 431 c 0
305 679 m 0
 305 698 296 713 273 713 c 0
 258 713 247 709 240 701 c 0
 228 687 194 617 138 491 c 1
 155 491 164 491 165 492 c 1
 165 490 208 541 293 646 c 0
 301 656 305 667 305 679 c 0
136 595 m 0
 136 646 91 683 39 683 c 0
 14 683 0 658 0 637 c 0
 0 612 17 599 52 599 c 0
 57 599 61 599 65 600 c 0
 78 603 91 585 91 572 c 0
 92 555 87 541 76 530 c 0
 72 526 62 519 47 509 c 1
 58 492 l 1
 81 499 101 514 118 536 c 0
 130 551 136 571 136 595 c 0
EndSplineSet
Validated: 41
EndChar

StartChar: uni1F0D
Encoding: 7949 7949 95
Width: 821
Flags: MW
HStem: 257 31 486 38 528 83
VStem: 23 45
AnchorPoint: "Base" 630 0 basechar 0
LayerCount: 2
Fore
SplineSet
792 0 m 1
 792 31 l 1
 757 31 l 2
 737 31 709 51 702 72 c 0
 673 151 645 230 617 309 c 0
 601 356 558 490 489 711 c 1
 459 711 l 1
 269 128 l 2
 248 64 214 32 166 32 c 0
 161 32 157 32 154 33 c 2
 155 0 l 1
 394 0 l 1
 394 31 l 1
 329 31 297 44 297 71 c 0
 297 76 298 81 300 86 c 0
 331 185 346 234 347 235 c 2
 550 235 l 1
 593 93 l 2
 595 87 596 81 596 76 c 0
 596 51 577 31 556 31 c 2
 490 31 l 1
 490 0 l 1
 792 0 l 1
537 274 m 1
 360 274 l 1
 449 553 l 1
 537 274 l 1
290 701 m 0
 301 688 301 663 285 644 c 0
 267 622 157 488 157 490 c 0
 157 491 131 490 131 490 c 1
 150 535 215 680 232 699 c 0
 242 710 275 719 290 701 c 0
137 636 m 0
 137 602 95 595 72 599 c 0
 58 601 45 583 45 570 c 0
 45 532 72 519 90 507 c 1
 78 491 l 1
 63 496 34 515 18 534 c 0
 5 551 -4 585 2 611 c 0
 11 650 49 681 98 681 c 0
 125 681 137 654 137 636 c 0
EndSplineSet
Validated: 41
EndChar

StartChar: uni1F1D
Encoding: 7965 7965 96
Width: 931
Flags: MW
HStem: 0 21G<872 872> 528 83
VStem: 23 45
AnchorPoint: "Base" 800 0 basechar 0
LayerCount: 2
Fore
SplineSet
891 243 m 1
 862 243 l 1
 845 153 817 93 778 62 c 0
 749 39 705 27 644 27 c 0
 636 27 619 27 593 28 c 0
 570 29 552 29 538 28 c 1
 538 336 l 1
 615 336 l 2
 651 336 694 279 694 187 c 1
 721 187 l 1
 721 509 l 1
 694 509 l 1
 693 463 684 429 669 407 c 0
 651 380 633 367 615 367 c 2
 538 367 l 1
 538 674 l 1
 615 673 660 672 672 670 c 0
 715 665 749 649 774 623 c 0
 803 592 826 542 841 473 c 1
 868 473 l 1
 863 703 l 1
 343 703 l 1
 343 673 l 1
 406 673 l 2
 433 672 446 657 446 626 c 2
 446 485 l 1
 446 348 l 1
 446 69 l 2
 446 42 433 28 406 28 c 2
 344 28 l 1
 344 1 l 1
 872 0 l 1
 891 243 l 1
290 701 m 0
 301 688 301 663 285 644 c 0
 267 622 157 488 157 490 c 0
 157 491 131 490 131 490 c 1
 150 535 215 680 232 699 c 0
 242 710 275 719 290 701 c 0
137 636 m 0
 137 602 95 595 72 599 c 0
 58 601 45 583 45 570 c 0
 45 532 72 519 90 507 c 1
 78 491 l 1
 63 496 34 515 18 534 c 0
 5 551 -4 585 2 611 c 0
 11 650 49 681 98 681 c 0
 125 681 137 654 137 636 c 0
EndSplineSet
Validated: 41
EndChar

StartChar: uni1F2D
Encoding: 7981 7981 97
Width: 992
Flags: MW
HStem: 0 21G 528 83
VStem: 23 45
AnchorPoint: "Base" 820 0 basechar 0
LayerCount: 2
Fore
SplineSet
963 32 m 1
 903 31 l 2
 882 31 865 48 865 67 c 2
 865 638 l 2
 865 663 878 676 904 676 c 2
 962 676 l 1
 962 706 l 1
 684 706 l 1
 685 676 l 1
 744 676 l 2
 768 676 780 663 780 637 c 2
 780 382 l 1
 516 382 l 1
 515 637 l 2
 515 663 528 676 555 676 c 2
 614 676 l 1
 613 706 l 1
 335 706 l 1
 335 676 l 1
 394 676 l 2
 419 676 432 663 432 638 c 2
 432 71 l 2
 432 45 420 32 395 32 c 2
 336 32 l 1
 335 -1 l 1
 614 -1 l 1
 612 31 l 1
 554 31 l 2
 528 31 515 44 515 70 c 2
 516 348 l 1
 780 348 l 1
 780 70 l 2
 780 44 767 31 742 31 c 2
 684 31 l 1
 683 1 l 1
 963 1 l 1
 963 32 l 1
290 701 m 0
 301 688 301 663 285 644 c 0
 267 622 157 488 157 490 c 0
 157 491 131 490 131 490 c 1
 150 535 215 680 232 699 c 0
 242 710 275 719 290 701 c 0
137 636 m 0
 137 602 95 595 72 599 c 0
 58 601 45 583 45 570 c 0
 45 532 72 519 90 507 c 1
 78 491 l 1
 63 496 34 515 18 534 c 0
 5 551 -4 585 2 611 c 0
 11 650 49 681 98 681 c 0
 125 681 137 654 137 636 c 0
EndSplineSet
Validated: 41
EndChar

StartChar: uni1F3D
Encoding: 7997 7997 98
Width: 680
Flags: MW
HStem: 0 21G<352 646 646 646> 528 83
VStem: 23 45
AnchorPoint: "Base" 665 0 basechar 0
LayerCount: 2
Fore
SplineSet
646 0 m 1
 646 28 l 1
 584 28 l 2
 557 28 544 42 544 69 c 2
 543 633 l 2
 543 660 557 673 584 673 c 2
 646 673 l 1
 646 703 l 1
 351 703 l 1
 351 673 l 1
 413 673 l 2
 439 673 452 658 452 628 c 2
 453 69 l 2
 453 42 440 28 414 28 c 2
 352 28 l 1
 352 0 l 1
 646 0 l 1
290 701 m 0
 301 688 301 663 285 644 c 0
 267 622 157 488 157 490 c 0
 157 491 131 490 131 490 c 1
 150 535 215 680 232 699 c 0
 242 710 275 719 290 701 c 0
137 636 m 0
 137 602 95 595 72 599 c 0
 58 601 45 583 45 570 c 0
 45 532 72 519 90 507 c 1
 78 491 l 1
 63 496 34 515 18 534 c 0
 5 551 -4 585 2 611 c 0
 11 650 49 681 98 681 c 0
 125 681 137 654 137 636 c 0
EndSplineSet
Validated: 41
EndChar

StartChar: uni1F4D
Encoding: 8013 8013 99
Width: 952
Flags: MW
HStem: -29 21 528 83
VStem: 23 45
AnchorPoint: "Base" 800 0 basechar 0
LayerCount: 2
Fore
SplineSet
907 354 m 0
 908 453 886 536 840 603 c 0
 788 678 716 716 625 716 c 0
 544 716 477 677 422 598 c 0
 371 525 345 444 345 354 c 0
 345 257 370 174 420 104 c 0
 475 29 544 -9 629 -9 c 0
 717 -9 786 30 837 108 c 0
 882 176 905 258 907 354 c 0
799 358 m 0
 799 267 792 197 777 150 c 0
 751 65 702 23 629 23 c 0
 554 23 504 64 477 146 c 0
 462 194 454 265 454 358 c 0
 454 449 463 520 480 569 c 0
 507 645 556 683 627 683 c 0
 699 683 748 646 774 572 c 0
 791 525 799 453 799 358 c 0
290 701 m 0
 301 688 301 663 285 644 c 0
 267 622 157 488 157 490 c 0
 157 491 131 490 131 490 c 1
 150 535 215 680 232 699 c 0
 242 710 275 719 290 701 c 0
137 636 m 0
 137 602 95 595 72 599 c 0
 58 601 45 583 45 570 c 0
 45 532 72 519 90 507 c 1
 78 491 l 1
 63 496 34 515 18 534 c 0
 5 551 -4 585 2 611 c 0
 11 650 49 681 98 681 c 0
 125 681 137 654 137 636 c 0
EndSplineSet
Validated: 41
EndChar

StartChar: uni1F5D
Encoding: 8029 8029 100
Width: 994
Flags: MW
HStem: 89 20G 528 83
VStem: 23 45
AnchorPoint: "Base" 820 0 basechar 0
LayerCount: 2
Fore
SplineSet
967 621 m 1
 954 675 935 703 910 705 c 0
 876 708 843 682 811 626 c 0
 786 582 759 521 728 444 c 0
 712 405 696 366 681 327 c 1
 640 432 608 505 587 548 c 0
 528 663 487 707 436 708 c 0
 396 708 362 679 334 621 c 1
 352 604 l 2
 353 605 359 613 371 626 c 0
 381 637 390 643 397 642 c 0
 426 641 459 605 494 536 c 0
 557 414 595 330 608 283 c 1
 608 69 l 2
 608 42 595 28 568 28 c 2
 505 28 l 1
 505 0 l 1
 800 0 l 1
 800 28 l 1
 738 28 l 2
 711 28 698 42 698 69 c 2
 698 284 l 1
 734 377 775 467 820 554 c 0
 847 605 874 631 900 631 c 0
 911 631 923 627 934 619 c 0
 943 612 948 609 948 608 c 2
 967 621 l 1
290 701 m 0
 301 688 301 663 285 644 c 0
 267 622 157 488 157 490 c 0
 157 491 131 490 131 490 c 1
 150 535 215 680 232 699 c 0
 242 710 275 719 290 701 c 0
137 636 m 0
 137 602 95 595 72 599 c 0
 58 601 45 583 45 570 c 0
 45 532 72 519 90 507 c 1
 78 491 l 1
 63 496 34 515 18 534 c 0
 5 551 -4 585 2 611 c 0
 11 650 49 681 98 681 c 0
 125 681 137 654 137 636 c 0
EndSplineSet
Validated: 41
EndChar

StartChar: uni1F0E
Encoding: 7950 7950 101
Width: 836
Flags: MW
HStem: 257 31 486 38
AnchorPoint: "Base" 640 0 basechar 0
LayerCount: 2
Fore
SplineSet
807 0 m 1
 807 31 l 1
 772 31 l 2
 752 31 724 51 717 72 c 0
 688 151 660 230 632 309 c 0
 616 356 573 490 504 711 c 1
 474 711 l 1
 284 128 l 2
 263 64 229 32 181 32 c 0
 176 32 172 32 169 33 c 2
 170 0 l 1
 409 0 l 1
 409 31 l 1
 344 31 312 44 312 71 c 0
 312 76 313 81 315 86 c 0
 346 185 361 234 362 235 c 2
 565 235 l 1
 608 93 l 2
 610 87 611 81 611 76 c 0
 611 51 592 31 571 31 c 2
 505 31 l 1
 505 0 l 1
 807 0 l 1
552 274 m 1
 375 274 l 1
 464 553 l 1
 552 274 l 1
299 600 m 1
 299 616 290 636 272 659 c 0
 243 697 202 716 147 716 c 0
 78 716 29 677 0 600 c 1
 28 600 l 1
 51 646 91 669 147 669 c 0
 214 669 255 646 272 600 c 1
 299 600 l 1
225 525 m 0
 225 550 215 572 195 589 c 0
 176 605 153 613 127 613 c 0
 114 613 104 608 97 597 c 0
 91 588 88 579 88 568 c 0
 88 542 105 529 140 529 c 0
 145 529 149 530 153 531 c 0
 166 534 180 517 180 502 c 0
 180 486 175 472 164 461 c 0
 160 456 150 449 135 439 c 1
 147 423 l 1
 169 430 189 444 206 466 c 0
 219 481 225 501 225 525 c 0
EndSplineSet
Validated: 41
EndChar

StartChar: uni1F2E
Encoding: 7982 7982 102
Width: 990
Flags: MW
HStem: 0 21G
AnchorPoint: "Base" 820 0 basechar 0
LayerCount: 2
Fore
SplineSet
961 32 m 1
 901 31 l 2
 880 31 863 48 863 67 c 2
 863 638 l 2
 863 663 876 676 902 676 c 2
 960 676 l 1
 960 706 l 1
 682 706 l 1
 683 676 l 1
 742 676 l 2
 766 676 778 663 778 637 c 2
 778 382 l 1
 514 382 l 1
 513 637 l 2
 513 663 526 676 553 676 c 2
 612 676 l 1
 611 706 l 1
 333 706 l 1
 333 676 l 1
 392 676 l 2
 417 676 430 663 430 638 c 2
 430 71 l 2
 430 45 418 32 393 32 c 2
 334 32 l 1
 333 -1 l 1
 612 -1 l 1
 610 31 l 1
 552 31 l 2
 526 31 513 44 513 70 c 2
 514 348 l 1
 778 348 l 1
 778 70 l 2
 778 44 765 31 740 31 c 2
 682 31 l 1
 681 1 l 1
 961 1 l 1
 961 32 l 1
299 600 m 1
 299 616 290 636 272 659 c 0
 243 697 202 716 147 716 c 0
 78 716 29 677 0 600 c 1
 28 600 l 1
 51 646 91 669 147 669 c 0
 214 669 255 646 272 600 c 1
 299 600 l 1
225 525 m 0
 225 550 215 572 195 589 c 0
 176 605 153 613 127 613 c 0
 114 613 104 608 97 597 c 0
 91 588 88 579 88 568 c 0
 88 542 105 529 140 529 c 0
 145 529 149 530 153 531 c 0
 166 534 180 517 180 502 c 0
 180 486 175 472 164 461 c 0
 160 456 150 449 135 439 c 1
 147 423 l 1
 169 430 189 444 206 466 c 0
 219 481 225 501 225 525 c 0
EndSplineSet
Validated: 41
EndChar

StartChar: uni1F3E
Encoding: 7998 7998 103
Width: 680
Flags: MW
HStem: 0 21G<352 646 646 646>
AnchorPoint: "Base" 660 0 basechar 0
LayerCount: 2
Fore
SplineSet
646 0 m 1
 646 28 l 1
 584 28 l 2
 557 28 544 42 544 69 c 2
 543 633 l 2
 543 660 557 673 584 673 c 2
 646 673 l 1
 646 703 l 1
 351 703 l 1
 351 673 l 1
 413 673 l 2
 439 673 452 658 452 628 c 2
 453 69 l 2
 453 42 440 28 414 28 c 2
 352 28 l 1
 352 0 l 1
 646 0 l 1
299 600 m 1
 299 616 290 636 272 659 c 0
 243 697 202 716 147 716 c 0
 78 716 29 677 0 600 c 1
 28 600 l 1
 51 646 91 669 147 669 c 0
 214 669 255 646 272 600 c 1
 299 600 l 1
225 525 m 0
 225 550 215 572 195 589 c 0
 176 605 153 613 127 613 c 0
 114 613 104 608 97 597 c 0
 91 588 88 579 88 568 c 0
 88 542 105 529 140 529 c 0
 145 529 149 530 153 531 c 0
 166 534 180 517 180 502 c 0
 180 486 175 472 164 461 c 0
 160 456 150 449 135 439 c 1
 147 423 l 1
 169 430 189 444 206 466 c 0
 219 481 225 501 225 525 c 0
EndSplineSet
Validated: 41
EndChar

StartChar: uni1F6D
Encoding: 8045 8045 104
Width: 992
Flags: MW
HStem: -5 85 528 83 667 31
VStem: 23 45
AnchorPoint: "Base" 810 0 basechar 0
LayerCount: 2
Fore
SplineSet
943 431 m 0
 942 514 913 582 856 634 c 0
 801 683 732 707 651 707 c 0
 568 708 498 682 441 631 c 0
 381 578 351 511 351 431 c 0
 351 278 422 178 564 132 c 1
 564 88 l 1
 428 88 l 2
 398 88 383 99 383 121 c 0
 383 124 383 129 384 138 c 0
 385 145 385 150 384 154 c 1
 360 154 l 1
 360 0 l 1
 595 0 l 1
 595 156 l 1
 544 188 508 227 489 273 c 0
 472 310 464 362 464 429 c 0
 463 499 478 556 507 601 c 0
 540 652 588 678 651 678 c 0
 708 678 754 651 787 596 c 0
 816 549 830 494 830 431 c 0
 830 302 789 210 707 156 c 1
 707 0 l 1
 939 0 l 1
 939 154 l 1
 916 154 l 1
 915 140 913 126 912 111 c 1
 907 98 892 91 867 91 c 2
 739 91 l 1
 739 134 l 1
 802 154 851 190 888 243 c 0
 925 296 944 359 943 431 c 0
290 701 m 0
 301 688 301 663 285 644 c 0
 267 622 157 488 157 490 c 0
 157 491 131 490 131 490 c 1
 150 535 215 680 232 699 c 0
 242 710 275 719 290 701 c 0
137 636 m 0
 137 602 95 595 72 599 c 0
 58 601 45 583 45 570 c 0
 45 532 72 519 90 507 c 1
 78 491 l 1
 63 496 34 515 18 534 c 0
 5 551 -4 585 2 611 c 0
 11 650 49 681 98 681 c 0
 125 681 137 654 137 636 c 0
EndSplineSet
Validated: 41
EndChar

StartChar: uni1F0F
Encoding: 7951 7951 105
Width: 839
Flags: MW
HStem: 257 31 486 38
AnchorPoint: "Base" 640 0 basechar 0
LayerCount: 2
Fore
SplineSet
810 0 m 1
 810 31 l 1
 775 31 l 2
 755 31 727 51 720 72 c 0
 691 151 663 230 635 309 c 0
 619 356 576 490 507 711 c 1
 477 711 l 1
 287 128 l 2
 266 64 232 32 184 32 c 0
 179 32 175 32 172 33 c 2
 173 0 l 1
 412 0 l 1
 412 31 l 1
 347 31 315 44 315 71 c 0
 315 76 316 81 318 86 c 0
 349 185 364 234 365 235 c 2
 568 235 l 1
 611 93 l 2
 613 87 614 81 614 76 c 0
 614 51 595 31 574 31 c 2
 508 31 l 1
 508 0 l 1
 810 0 l 1
555 274 m 1
 378 274 l 1
 467 553 l 1
 555 274 l 1
300 599 m 1
 300 615 291 635 273 658 c 0
 244 695 202 714 147 714 c 0
 78 714 29 676 0 599 c 1
 28 599 l 1
 52 645 92 668 148 668 c 0
 214 668 255 645 272 599 c 1
 300 599 l 1
208 572 m 0
 208 583 205 592 198 601 c 0
 191 612 181 617 168 618 c 0
 141 618 119 610 100 594 c 0
 81 577 71 556 71 529 c 0
 71 506 77 486 89 471 c 0
 106 449 126 434 148 427 c 1
 160 443 l 1
 145 454 135 461 132 465 c 0
 121 476 115 490 116 506 c 0
 116 521 130 538 143 535 c 0
 146 534 150 534 155 534 c 0
 190 534 208 547 208 572 c 0
EndSplineSet
Validated: 41
EndChar

StartChar: uni1F3F
Encoding: 7999 7999 106
Width: 680
Flags: MW
HStem: -11 31 648 31
AnchorPoint: "Base" 660 0 basechar 0
LayerCount: 2
Fore
SplineSet
646 0 m 1
 646 28 l 1
 584 28 l 2
 557 28 544 42 544 69 c 2
 543 633 l 2
 543 660 557 673 584 673 c 2
 646 673 l 1
 646 703 l 1
 351 703 l 1
 351 673 l 1
 413 673 l 2
 439 673 452 658 452 628 c 2
 453 69 l 2
 453 42 440 28 414 28 c 2
 352 28 l 1
 352 0 l 1
 646 0 l 1
300 599 m 1
 300 615 291 635 273 658 c 0
 244 695 202 714 147 714 c 0
 78 714 29 676 0 599 c 1
 28 599 l 1
 52 645 92 668 148 668 c 0
 214 668 255 645 272 599 c 1
 300 599 l 1
208 572 m 0
 208 583 205 592 198 601 c 0
 191 612 181 617 168 618 c 0
 141 618 119 610 100 594 c 0
 81 577 71 556 71 529 c 0
 71 506 77 486 89 471 c 0
 106 449 126 434 148 427 c 1
 160 443 l 1
 145 454 135 461 132 465 c 0
 121 476 115 490 116 506 c 0
 116 521 130 538 143 535 c 0
 146 534 150 534 155 534 c 0
 190 534 208 547 208 572 c 0
EndSplineSet
Validated: 41
EndChar

StartChar: uni1F5F
Encoding: 8031 8031 107
Width: 994
Flags: MW
HStem: 89 20G
AnchorPoint: "Base" 820 0 basechar 0
LayerCount: 2
Fore
SplineSet
967 621 m 1
 954 675 935 703 910 705 c 0
 876 708 843 682 811 626 c 0
 786 582 759 521 728 444 c 0
 712 405 696 366 681 327 c 1
 640 432 608 505 587 548 c 0
 528 663 487 707 436 708 c 0
 396 708 362 679 334 621 c 1
 352 604 l 2
 353 605 359 613 371 626 c 0
 381 637 390 643 397 642 c 0
 426 641 459 605 494 536 c 0
 557 414 595 330 608 283 c 1
 608 69 l 2
 608 42 595 28 568 28 c 2
 505 28 l 1
 505 0 l 1
 800 0 l 1
 800 28 l 1
 738 28 l 2
 711 28 698 42 698 69 c 2
 698 284 l 1
 734 377 775 467 820 554 c 0
 847 605 874 631 900 631 c 0
 911 631 923 627 934 619 c 0
 943 612 948 609 948 608 c 2
 967 621 l 1
300 599 m 1
 300 615 291 635 273 658 c 0
 244 695 202 714 147 714 c 0
 78 714 29 676 0 599 c 1
 28 599 l 1
 52 645 92 668 148 668 c 0
 214 668 255 645 272 599 c 1
 300 599 l 1
208 572 m 0
 208 583 205 592 198 601 c 0
 191 612 181 617 168 618 c 0
 141 618 119 610 100 594 c 0
 81 577 71 556 71 529 c 0
 71 506 77 486 89 471 c 0
 106 449 126 434 148 427 c 1
 160 443 l 1
 145 454 135 461 132 465 c 0
 121 476 115 490 116 506 c 0
 116 521 130 538 143 535 c 0
 146 534 150 534 155 534 c 0
 190 534 208 547 208 572 c 0
EndSplineSet
Validated: 41
EndChar

StartChar: uni1F6E
Encoding: 8046 8046 108
Width: 991
Flags: MW
HStem: -5 85 667 31
AnchorPoint: "Base" 810 0 basechar 0
LayerCount: 2
Fore
SplineSet
942 431 m 0
 941 514 912 582 855 634 c 0
 800 683 731 707 650 707 c 0
 567 708 497 682 440 631 c 0
 380 578 350 511 350 431 c 0
 350 278 421 178 563 132 c 1
 563 88 l 1
 427 88 l 2
 397 88 382 99 382 121 c 0
 382 124 382 129 383 138 c 0
 384 145 384 150 383 154 c 1
 359 154 l 1
 359 0 l 1
 594 0 l 1
 594 156 l 1
 543 188 507 227 488 273 c 0
 471 310 463 362 463 429 c 0
 462 499 477 556 506 601 c 0
 539 652 587 678 650 678 c 0
 707 678 753 651 786 596 c 0
 815 549 829 494 829 431 c 0
 829 302 788 210 706 156 c 1
 706 0 l 1
 938 0 l 1
 938 154 l 1
 915 154 l 1
 914 140 912 126 911 111 c 1
 906 98 891 91 866 91 c 2
 738 91 l 1
 738 134 l 1
 801 154 850 190 887 243 c 0
 924 296 943 359 942 431 c 0
299 600 m 1
 299 616 290 636 272 659 c 0
 243 697 202 716 147 716 c 0
 78 716 29 677 0 600 c 1
 28 600 l 1
 51 646 91 669 147 669 c 0
 214 669 255 646 272 600 c 1
 299 600 l 1
225 525 m 0
 225 550 215 572 195 589 c 0
 176 605 153 613 127 613 c 0
 114 613 104 608 97 597 c 0
 91 588 88 579 88 568 c 0
 88 542 105 529 140 529 c 0
 145 529 149 530 153 531 c 0
 166 534 180 517 180 502 c 0
 180 486 175 472 164 461 c 0
 160 456 150 449 135 439 c 1
 147 423 l 1
 169 430 189 444 206 466 c 0
 219 481 225 501 225 525 c 0
EndSplineSet
Validated: 41
EndChar

StartChar: uni1F6F
Encoding: 8047 8047 109
Width: 992
Flags: MW
HStem: -5 85 667 31
AnchorPoint: "Base" 810 0 basechar 0
LayerCount: 2
Fore
SplineSet
943 431 m 0
 942 514 913 582 856 634 c 0
 801 683 732 707 651 707 c 0
 568 708 498 682 441 631 c 0
 381 578 351 511 351 431 c 0
 351 278 422 178 564 132 c 1
 564 88 l 1
 428 88 l 2
 398 88 383 99 383 121 c 0
 383 124 383 129 384 138 c 0
 385 145 385 150 384 154 c 1
 360 154 l 1
 360 0 l 1
 595 0 l 1
 595 156 l 1
 544 188 508 227 489 273 c 0
 472 310 464 362 464 429 c 0
 463 499 478 556 507 601 c 0
 540 652 588 678 651 678 c 0
 708 678 754 651 787 596 c 0
 816 549 830 494 830 431 c 0
 830 302 789 210 707 156 c 1
 707 0 l 1
 939 0 l 1
 939 154 l 1
 916 154 l 1
 915 140 913 126 912 111 c 1
 907 98 892 91 867 91 c 2
 739 91 l 1
 739 134 l 1
 802 154 851 190 888 243 c 0
 925 296 944 359 943 431 c 0
300 599 m 1
 300 615 291 635 273 658 c 0
 244 695 202 714 147 714 c 0
 78 714 29 676 0 599 c 1
 28 599 l 1
 52 645 92 668 148 668 c 0
 214 668 255 645 272 599 c 1
 300 599 l 1
208 572 m 0
 208 583 205 592 198 601 c 0
 191 612 181 617 168 618 c 0
 141 618 119 610 100 594 c 0
 81 577 71 556 71 529 c 0
 71 506 77 486 89 471 c 0
 106 449 126 434 148 427 c 1
 160 443 l 1
 145 454 135 461 132 465 c 0
 121 476 115 490 116 506 c 0
 116 521 130 538 143 535 c 0
 146 534 150 534 155 534 c 0
 190 534 208 547 208 572 c 0
EndSplineSet
Validated: 41
EndChar

StartChar: uni1F2F
Encoding: 7983 7983 110
Width: 990
Flags: MW
HStem: 0 21G
AnchorPoint: "Base" 820 0 basechar 0
LayerCount: 2
Fore
SplineSet
961 32 m 1
 901 31 l 2
 880 31 863 48 863 67 c 2
 863 638 l 2
 863 663 876 676 902 676 c 2
 960 676 l 1
 960 706 l 1
 682 706 l 1
 683 676 l 1
 742 676 l 2
 766 676 778 663 778 637 c 2
 778 382 l 1
 514 382 l 1
 513 637 l 2
 513 663 526 676 553 676 c 2
 612 676 l 1
 611 706 l 1
 333 706 l 1
 333 676 l 1
 392 676 l 2
 417 676 430 663 430 638 c 2
 430 71 l 2
 430 45 418 32 393 32 c 2
 334 32 l 1
 333 -1 l 1
 612 -1 l 1
 610 31 l 1
 552 31 l 2
 526 31 513 44 513 70 c 2
 514 348 l 1
 778 348 l 1
 778 70 l 2
 778 44 765 31 740 31 c 2
 682 31 l 1
 681 1 l 1
 961 1 l 1
 961 32 l 1
300 599 m 1
 300 615 291 635 273 658 c 0
 244 695 202 714 147 714 c 0
 78 714 29 676 0 599 c 1
 28 599 l 1
 52 645 92 668 148 668 c 0
 214 668 255 645 272 599 c 1
 300 599 l 1
208 572 m 0
 208 583 205 592 198 601 c 0
 191 612 181 617 168 618 c 0
 141 618 119 610 100 594 c 0
 81 577 71 556 71 529 c 0
 71 506 77 486 89 471 c 0
 106 449 126 434 148 427 c 1
 160 443 l 1
 145 454 135 461 132 465 c 0
 121 476 115 490 116 506 c 0
 116 521 130 538 143 535 c 0
 146 534 150 534 155 534 c 0
 190 534 208 547 208 572 c 0
EndSplineSet
Validated: 41
EndChar

StartChar: uni1F80
Encoding: 8064 8064 111
Width: 538
Flags: MW
HStem: 61 21 260 36 781 21G
VStem: -856 29
AnchorPoint: "Base" 411 -180 basechar 0
LayerCount: 2
Fore
SplineSet
496 97 m 0
 493 98 488 98 483 97 c 1
 467 56 446 36 419 36 c 0
 392 36 373 59 374 88 c 1
 468 393 l 1
 388 393 l 1
 365 260 l 1
 367 339 341 384 288 396 c 0
 275 399 261 400 248 400 c 0
 197 400 152 382 113 345 c 0
 73 308 50 261 44 204 c 0
 43 192 42 180 42 169 c 0
 42 110 58 65 91 34 c 0
 121 6 160 -8 209 -9 c 0
 242 -9 270 -3 293 8 c 0
 312 17 332 34 354 59 c 1
 353 14 375 -9 418 -9 c 0
 455 -9 491 38 496 97 c 0
346 232 m 0
 341 163 329 111 310 78 c 0
 287 35 254 15 211 17 c 0
 152 20 122 62 122 144 c 0
 122 163 124 184 128 207 c 0
 137 263 154 305 180 333 c 0
 203 357 230 369 261 369 c 0
 268 369 274 369 280 368 c 0
 311 362 331 339 341 300 c 0
 346 279 348 256 346 232 c 0
260 -185 m 1
 254 -175 l 1
 244 -182 236 -185 229 -185 c 0
 216 -185 211 -174 216 -151 c 2
 234 -67 l 1
 166 -67 l 1
 148 -152 l 2
 145 -161 144 -170 144 -178 c 0
 144 -208 159 -223 189 -223 c 0
 216 -223 240 -210 260 -185 c 1
450 621 m 0
 450 682 405 719 353 718 c 0
 330 718 315 708 310 689 c 0
 304 668 310 652 327 641 c 1
 352 632 371 627 383 626 c 0
 390 624 393 618 393 609 c 0
 393 602 391 596 387 589 c 0
 374 566 352 554 321 553 c 1
 319 544 318 534 318 525 c 1
 322 524 327 523 333 523 c 0
 397 523 450 562 450 621 c 0
EndSplineSet
Validated: 41
EndChar

StartChar: uni1F81
Encoding: 8065 8065 112
Width: 538
Flags: MW
HStem: -20 21 260 36 444 195 701 21G
VStem: -856 29
AnchorPoint: "Base" 411 -180 basechar 0
LayerCount: 2
Fore
SplineSet
496 97 m 0
 493 98 488 98 483 97 c 1
 467 56 446 36 419 36 c 0
 392 36 373 59 374 88 c 1
 468 393 l 1
 388 393 l 1
 365 260 l 1
 367 339 341 384 288 396 c 0
 275 399 261 400 248 400 c 0
 197 400 152 382 113 345 c 0
 73 308 50 261 44 204 c 0
 43 192 42 180 42 169 c 0
 42 110 58 65 91 34 c 0
 121 6 160 -8 209 -9 c 0
 242 -9 270 -3 293 8 c 0
 312 17 332 34 354 59 c 1
 353 14 375 -9 418 -9 c 0
 455 -9 491 38 496 97 c 0
346 232 m 0
 341 163 329 111 310 78 c 0
 287 35 254 15 211 17 c 0
 152 20 122 62 122 144 c 0
 122 163 124 184 128 207 c 0
 137 263 154 305 180 333 c 0
 203 357 230 369 261 369 c 0
 268 369 274 369 280 368 c 0
 311 362 331 339 341 300 c 0
 346 279 348 256 346 232 c 0
260 -185 m 1
 254 -175 l 1
 244 -182 236 -185 229 -185 c 0
 216 -185 211 -174 216 -151 c 2
 234 -67 l 1
 166 -67 l 1
 148 -152 l 2
 145 -161 144 -170 144 -178 c 0
 144 -208 159 -223 189 -223 c 0
 216 -223 240 -210 260 -185 c 1
415 684 m 0
 411 707 394 718 363 716 c 0
 345 715 328 708 312 696 c 0
 293 682 280 664 274 642 c 0
 271 632 270 622 270 613 c 0
 270 586 281 563 303 545 c 0
 322 529 346 521 373 521 c 2
 381 521 l 1
 382 526 382 535 381 549 c 1
 342 555 321 569 319 591 c 0
 316 608 321 619 332 624 c 0
 336 626 346 628 361 629 c 0
 375 630 386 633 395 638 c 0
 413 648 420 663 415 684 c 0
EndSplineSet
Validated: 41
EndChar

StartChar: uni1F82
Encoding: 8066 8066 113
Width: 538
Flags: MW
HStem: -7 21 260 36 530 83 716 21G
VStem: -856 29 171 45
AnchorPoint: "Base" 411 -180 basechar 0
LayerCount: 2
Fore
SplineSet
496 97 m 0
 493 98 488 98 483 97 c 1
 467 56 446 36 419 36 c 0
 392 36 373 59 374 88 c 1
 468 393 l 1
 388 393 l 1
 365 260 l 1
 367 339 341 384 288 396 c 0
 275 399 261 400 248 400 c 0
 197 400 152 382 113 345 c 0
 73 308 50 261 44 204 c 0
 43 192 42 180 42 169 c 0
 42 110 58 65 91 34 c 0
 121 6 160 -8 209 -9 c 0
 242 -9 270 -3 293 8 c 0
 312 17 332 34 354 59 c 1
 353 14 375 -9 418 -9 c 0
 455 -9 491 38 496 97 c 0
346 232 m 0
 341 163 329 111 310 78 c 0
 287 35 254 15 211 17 c 0
 152 20 122 62 122 144 c 0
 122 163 124 184 128 207 c 0
 137 263 154 305 180 333 c 0
 203 357 230 369 261 369 c 0
 268 369 274 369 280 368 c 0
 311 362 331 339 341 300 c 0
 346 279 348 256 346 232 c 0
260 -185 m 1
 254 -175 l 1
 244 -182 236 -185 229 -185 c 0
 216 -185 211 -174 216 -151 c 2
 234 -67 l 1
 166 -67 l 1
 148 -152 l 2
 145 -161 144 -170 144 -178 c 0
 144 -208 159 -223 189 -223 c 0
 216 -223 240 -210 260 -185 c 1
459 496 m 1
 403 621 369 691 358 705 c 0
 351 713 340 717 325 717 c 0
 302 717 292 703 292 683 c 0
 292 671 296 660 305 650 c 0
 390 546 433 495 433 496 c 2
 459 496 l 1
274 599 m 0
 274 651 228 687 176 687 c 0
 164 687 154 682 146 671 c 0
 140 662 137 652 137 641 c 0
 137 616 155 604 190 604 c 0
 194 604 198 604 202 605 c 0
 215 606 229 591 229 576 c 0
 230 559 224 546 213 535 c 0
 210 530 200 523 185 513 c 1
 196 497 l 1
 219 504 239 518 256 540 c 0
 268 555 274 575 274 599 c 0
EndSplineSet
Validated: 41
EndChar

StartChar: uni1F83
Encoding: 8067 8067 114
Width: 538
Flags: MW
HStem: -16 21 260 36 528 83 707 21G
VStem: -856 29 78 45
AnchorPoint: "Base" 411 -180 basechar 0
LayerCount: 2
Fore
SplineSet
496 97 m 0
 493 98 488 98 483 97 c 1
 467 56 446 36 419 36 c 0
 392 36 373 59 374 88 c 1
 468 393 l 1
 388 393 l 1
 365 260 l 1
 367 339 341 384 288 396 c 0
 275 399 261 400 248 400 c 0
 197 400 152 382 113 345 c 0
 73 308 50 261 44 204 c 0
 43 192 42 180 42 169 c 0
 42 110 58 65 91 34 c 0
 121 6 160 -8 209 -9 c 0
 242 -9 270 -3 293 8 c 0
 312 17 332 34 354 59 c 1
 353 14 375 -9 418 -9 c 0
 455 -9 491 38 496 97 c 0
346 232 m 0
 341 163 329 111 310 78 c 0
 287 35 254 15 211 17 c 0
 152 20 122 62 122 144 c 0
 122 163 124 184 128 207 c 0
 137 263 154 305 180 333 c 0
 203 357 230 369 261 369 c 0
 268 369 274 369 280 368 c 0
 311 362 331 339 341 300 c 0
 346 279 348 256 346 232 c 0
260 -185 m 1
 254 -175 l 1
 244 -182 236 -185 229 -185 c 0
 216 -185 211 -174 216 -151 c 2
 234 -67 l 1
 166 -67 l 1
 148 -152 l 2
 145 -161 144 -170 144 -178 c 0
 144 -208 159 -223 189 -223 c 0
 216 -223 240 -210 260 -185 c 1
468 494 m 1
 412 620 378 690 367 703 c 0
 360 712 349 716 334 716 c 0
 311 716 301 701 301 681 c 0
 301 669 305 658 314 648 c 0
 399 544 442 493 442 494 c 2
 468 494 l 1
272 640 m 0
 272 651 269 660 263 669 c 0
 256 680 246 685 233 685 c 0
 181 685 135 649 135 598 c 0
 135 574 141 554 154 539 c 0
 171 517 191 502 214 495 c 1
 225 511 l 1
 210 522 200 529 196 533 c 0
 185 544 180 558 180 574 c 0
 180 589 194 606 207 603 c 0
 211 602 215 602 220 602 c 0
 255 602 272 615 272 640 c 0
EndSplineSet
Validated: 41
EndChar

StartChar: uni1F85
Encoding: 8069 8069 115
Width: 538
Flags: MW
HStem: -16 21 260 36 528 83
VStem: -856 29 273 45
AnchorPoint: "Base" 411 -180 basechar 0
LayerCount: 2
Fore
SplineSet
496 97 m 0
 493 98 488 98 483 97 c 1
 467 56 446 36 419 36 c 0
 392 36 373 59 374 88 c 1
 468 393 l 1
 388 393 l 1
 365 260 l 1
 367 339 341 384 288 396 c 0
 275 399 261 400 248 400 c 0
 197 400 152 382 113 345 c 0
 73 308 50 261 44 204 c 0
 43 192 42 180 42 169 c 0
 42 110 58 65 91 34 c 0
 121 6 160 -8 209 -9 c 0
 242 -9 270 -3 293 8 c 0
 312 17 332 34 354 59 c 1
 353 14 375 -9 418 -9 c 0
 455 -9 491 38 496 97 c 0
346 232 m 0
 341 163 329 111 310 78 c 0
 287 35 254 15 211 17 c 0
 152 20 122 62 122 144 c 0
 122 163 124 184 128 207 c 0
 137 263 154 305 180 333 c 0
 203 357 230 369 261 369 c 0
 268 369 274 369 280 368 c 0
 311 362 331 339 341 300 c 0
 346 279 348 256 346 232 c 0
260 -185 m 1
 254 -175 l 1
 244 -182 236 -185 229 -185 c 0
 216 -185 211 -174 216 -151 c 2
 234 -67 l 1
 166 -67 l 1
 148 -152 l 2
 145 -161 144 -170 144 -178 c 0
 144 -208 159 -223 189 -223 c 0
 216 -223 240 -210 260 -185 c 1
540 701 m 0
 551 688 551 663 535 644 c 0
 517 622 407 488 407 490 c 0
 407 491 381 490 381 490 c 1
 400 535 465 680 482 699 c 0
 492 710 525 719 540 701 c 0
387 636 m 0
 387 602 345 595 322 599 c 0
 308 601 295 583 295 570 c 0
 295 532 322 519 340 507 c 1
 328 491 l 1
 313 496 284 515 268 534 c 0
 255 551 246 585 252 611 c 0
 261 650 299 681 348 681 c 0
 375 681 387 654 387 636 c 0
EndSplineSet
Validated: 41
EndChar

StartChar: uni1F84
Encoding: 8068 8068 116
Width: 538
Flags: MW
HStem: -16 21 260 36 526 83
VStem: -856 29 191 45
AnchorPoint: "Base" 411 -180 basechar 0
LayerCount: 2
Fore
SplineSet
496 97 m 0
 493 98 488 98 483 97 c 1
 467 56 446 36 419 36 c 0
 392 36 373 59 374 88 c 1
 468 393 l 1
 388 393 l 1
 365 260 l 1
 367 339 341 384 288 396 c 0
 275 399 261 400 248 400 c 0
 197 400 152 382 113 345 c 0
 73 308 50 261 44 204 c 0
 43 192 42 180 42 169 c 0
 42 110 58 65 91 34 c 0
 121 6 160 -8 209 -9 c 0
 242 -9 270 -3 293 8 c 0
 312 17 332 34 354 59 c 1
 353 14 375 -9 418 -9 c 0
 455 -9 491 38 496 97 c 0
346 232 m 0
 341 163 329 111 310 78 c 0
 287 35 254 15 211 17 c 0
 152 20 122 62 122 144 c 0
 122 163 124 184 128 207 c 0
 137 263 154 305 180 333 c 0
 203 357 230 369 261 369 c 0
 268 369 274 369 280 368 c 0
 311 362 331 339 341 300 c 0
 346 279 348 256 346 232 c 0
260 -185 m 1
 254 -175 l 1
 244 -182 236 -185 229 -185 c 0
 216 -185 211 -174 216 -151 c 2
 234 -67 l 1
 166 -67 l 1
 148 -152 l 2
 145 -161 144 -170 144 -178 c 0
 144 -208 159 -223 189 -223 c 0
 216 -223 240 -210 260 -185 c 1
550 679 m 0
 550 698 541 713 518 713 c 0
 503 713 492 709 485 701 c 0
 473 687 439 617 383 491 c 1
 400 491 409 491 410 492 c 1
 410 490 453 541 538 646 c 0
 546 656 550 667 550 679 c 0
381 595 m 0
 381 646 336 683 284 683 c 0
 259 683 245 658 245 637 c 0
 245 612 262 599 297 599 c 0
 302 599 306 599 310 600 c 0
 323 603 336 585 336 572 c 0
 337 555 332 541 321 530 c 0
 317 526 307 519 292 509 c 1
 303 492 l 1
 326 499 346 514 363 536 c 0
 375 551 381 571 381 595 c 0
EndSplineSet
Validated: 41
EndChar

StartChar: uni1F86
Encoding: 8070 8070 117
Width: 538
Flags: MW
HStem: -16 21 260 36
VStem: -856 29
AnchorPoint: "Base" 411 -180 basechar 0
LayerCount: 2
Fore
SplineSet
496 97 m 0
 493 98 488 98 483 97 c 1
 467 56 446 36 419 36 c 0
 392 36 373 59 374 88 c 1
 468 393 l 1
 388 393 l 1
 365 260 l 1
 367 339 341 384 288 396 c 0
 275 399 261 400 248 400 c 0
 197 400 152 382 113 345 c 0
 73 308 50 261 44 204 c 0
 43 192 42 180 42 169 c 0
 42 110 58 65 91 34 c 0
 121 6 160 -8 209 -9 c 0
 242 -9 270 -3 293 8 c 0
 312 17 332 34 354 59 c 1
 353 14 375 -9 418 -9 c 0
 455 -9 491 38 496 97 c 0
346 232 m 0
 341 163 329 111 310 78 c 0
 287 35 254 15 211 17 c 0
 152 20 122 62 122 144 c 0
 122 163 124 184 128 207 c 0
 137 263 154 305 180 333 c 0
 203 357 230 369 261 369 c 0
 268 369 274 369 280 368 c 0
 311 362 331 339 341 300 c 0
 346 279 348 256 346 232 c 0
260 -185 m 1
 254 -175 l 1
 244 -182 236 -185 229 -185 c 0
 216 -185 211 -174 216 -151 c 2
 234 -67 l 1
 166 -67 l 1
 148 -152 l 2
 145 -161 144 -170 144 -178 c 0
 144 -208 159 -223 189 -223 c 0
 216 -223 240 -210 260 -185 c 1
446 600 m 1
 446 616 437 636 419 659 c 0
 390 697 349 716 294 716 c 0
 225 716 176 677 147 600 c 1
 175 600 l 1
 198 646 238 669 294 669 c 0
 361 669 402 646 419 600 c 1
 446 600 l 1
372 525 m 0
 372 550 362 572 342 589 c 0
 323 605 300 613 274 613 c 0
 261 613 251 608 244 597 c 0
 238 588 235 579 235 568 c 0
 235 542 252 529 287 529 c 0
 292 529 296 530 300 531 c 0
 313 534 327 517 327 502 c 0
 327 486 322 472 311 461 c 0
 307 456 297 449 282 439 c 1
 294 423 l 1
 316 430 336 444 353 466 c 0
 366 481 372 501 372 525 c 0
EndSplineSet
Validated: 41
EndChar

StartChar: uni1F87
Encoding: 8071 8071 118
Width: 538
Flags: MW
HStem: -16 21 260 36
VStem: -856 29
AnchorPoint: "Base" 411 -180 basechar 0
LayerCount: 2
Fore
SplineSet
496 97 m 0
 493 98 488 98 483 97 c 1
 467 56 446 36 419 36 c 0
 392 36 373 59 374 88 c 1
 468 393 l 1
 388 393 l 1
 365 260 l 1
 367 339 341 384 288 396 c 0
 275 399 261 400 248 400 c 0
 197 400 152 382 113 345 c 0
 73 308 50 261 44 204 c 0
 43 192 42 180 42 169 c 0
 42 110 58 65 91 34 c 0
 121 6 160 -8 209 -9 c 0
 242 -9 270 -3 293 8 c 0
 312 17 332 34 354 59 c 1
 353 14 375 -9 418 -9 c 0
 455 -9 491 38 496 97 c 0
346 232 m 0
 341 163 329 111 310 78 c 0
 287 35 254 15 211 17 c 0
 152 20 122 62 122 144 c 0
 122 163 124 184 128 207 c 0
 137 263 154 305 180 333 c 0
 203 357 230 369 261 369 c 0
 268 369 274 369 280 368 c 0
 311 362 331 339 341 300 c 0
 346 279 348 256 346 232 c 0
260 -185 m 1
 254 -175 l 1
 244 -182 236 -185 229 -185 c 0
 216 -185 211 -174 216 -151 c 2
 234 -67 l 1
 166 -67 l 1
 148 -152 l 2
 145 -161 144 -170 144 -178 c 0
 144 -208 159 -223 189 -223 c 0
 216 -223 240 -210 260 -185 c 1
452 599 m 1
 452 615 443 635 425 658 c 0
 396 695 354 714 299 714 c 0
 230 714 181 676 152 599 c 1
 180 599 l 1
 204 645 244 668 300 668 c 0
 366 668 407 645 424 599 c 1
 452 599 l 1
360 572 m 0
 360 583 357 592 350 601 c 0
 343 612 333 617 320 618 c 0
 293 618 271 610 252 594 c 0
 233 577 223 556 223 529 c 0
 223 506 229 486 241 471 c 0
 258 449 278 434 300 427 c 1
 312 443 l 1
 297 454 287 461 284 465 c 0
 273 476 267 490 268 506 c 0
 268 521 282 538 295 535 c 0
 298 534 302 534 307 534 c 0
 342 534 360 547 360 572 c 0
EndSplineSet
Validated: 41
EndChar

StartChar: uni1F90
Encoding: 8080 8080 119
Width: 500
Flags: MW
HStem: 490 78 708 21G
AnchorPoint: "Base" 340 -180 basechar 0
LayerCount: 2
Fore
SplineSet
444 244 m 0
 448 263 450 281 450 298 c 0
 450 367 411 406 351 406 c 0
 339 406 326 404 313 401 c 0
 266 390 224 350 189 279 c 1
 190 312 184 341 171 364 c 0
 156 391 135 404 106 404 c 0
 77 405 55 391 40 362 c 0
 31 345 22 317 13 278 c 1
 31 278 l 1
 48 323 71 344 101 343 c 0
 115 343 127 335 137 319 c 0
 146 304 150 288 150 269 c 0
 150 262 149 255 148 248 c 0
 119 125 97 42 83 1 c 1
 78 1 101 1 154 0 c 1
 191 182 l 1
 223 311 270 376 331 376 c 0
 368 376 387 351 387 301 c 0
 387 280 383 256 376 229 c 0
 329 30 293 -121 268 -226 c 1
 306 -226 l 2
 332 -225 345 -225 345 -226 c 1
 354 -187 369 -113 392 -3 c 0
 415 107 432 189 444 244 c 0
170 -185 m 1
 164 -175 l 1
 154 -182 146 -185 139 -185 c 0
 126 -185 121 -174 126 -151 c 2
 144 -67 l 1
 76 -67 l 1
 58 -152 l 2
 55 -161 54 -170 54 -178 c 0
 54 -208 69 -223 99 -223 c 0
 126 -223 150 -210 170 -185 c 1
361 621 m 0
 361 682 316 719 264 718 c 0
 241 718 226 708 221 689 c 0
 215 668 221 652 238 641 c 1
 263 632 282 627 294 626 c 0
 301 624 304 618 304 609 c 0
 304 602 302 596 298 589 c 0
 285 566 263 554 232 553 c 1
 230 544 229 534 229 525 c 1
 233 524 238 523 244 523 c 0
 308 523 361 562 361 621 c 0
EndSplineSet
Validated: 41
EndChar

StartChar: uni1F91
Encoding: 8081 8081 120
Width: 500
Flags: MW
HStem: 444 195 490 78 705 21G
AnchorPoint: "Base" 340 -180 basechar 0
LayerCount: 2
Fore
SplineSet
444 244 m 0x20
 448 263 450 281 450 298 c 0
 450 367 411 406 351 406 c 0
 339 406 326 404 313 401 c 0
 266 390 224 350 189 279 c 1
 190 312 184 341 171 364 c 0
 156 391 135 404 106 404 c 0
 77 405 55 391 40 362 c 0
 31 345 22 317 13 278 c 1
 31 278 l 1
 48 323 71 344 101 343 c 0
 115 343 127 335 137 319 c 0
 146 304 150 288 150 269 c 0
 150 262 149 255 148 248 c 0
 119 125 97 42 83 1 c 1
 78 1 101 1 154 0 c 1
 191 182 l 1
 223 311 270 376 331 376 c 0
 368 376 387 351 387 301 c 0
 387 280 383 256 376 229 c 0
 329 30 293 -121 268 -226 c 1
 306 -226 l 2
 332 -225 345 -225 345 -226 c 1
 354 -187 369 -113 392 -3 c 0
 415 107 432 189 444 244 c 0x20
170 -185 m 1
 164 -175 l 1
 154 -182 146 -185 139 -185 c 0
 126 -185 121 -174 126 -151 c 2
 144 -67 l 1
 76 -67 l 1
 58 -152 l 2
 55 -161 54 -170 54 -178 c 0
 54 -208 69 -223 99 -223 c 0
 126 -223 150 -210 170 -185 c 1
386 684 m 0
 382 707 365 718 334 716 c 0
 316 715 299 708 283 696 c 0
 264 682 251 664 245 642 c 0
 242 632 241 622 241 613 c 0
 241 586 252 563 274 545 c 0
 293 529 317 521 344 521 c 2
 352 521 l 1
 353 526 353 535 352 549 c 1
 313 555 292 569 290 591 c 0
 287 608 292 619 303 624 c 0
 307 626 317 628 332 629 c 0
 346 630 357 633 366 638 c 0
 384 648 391 663 386 684 c 0
EndSplineSet
Validated: 41
EndChar

StartChar: uni1F92
Encoding: 8082 8082 121
Width: 500
Flags: MW
HStem: 490 78 530 83 707 21G
VStem: 145 45
AnchorPoint: "Base" 340 -180 basechar 0
LayerCount: 2
Fore
SplineSet
444 244 m 0x30
 448 263 450 281 450 298 c 0
 450 367 411 406 351 406 c 0
 339 406 326 404 313 401 c 0
 266 390 224 350 189 279 c 1
 190 312 184 341 171 364 c 0
 156 391 135 404 106 404 c 0
 77 405 55 391 40 362 c 0
 31 345 22 317 13 278 c 1
 31 278 l 1
 48 323 71 344 101 343 c 0
 115 343 127 335 137 319 c 0
 146 304 150 288 150 269 c 0
 150 262 149 255 148 248 c 0
 119 125 97 42 83 1 c 1
 78 1 101 1 154 0 c 1
 191 182 l 1
 223 311 270 376 331 376 c 0
 368 376 387 351 387 301 c 0
 387 280 383 256 376 229 c 0
 329 30 293 -121 268 -226 c 1
 306 -226 l 2
 332 -225 345 -225 345 -226 c 1
 354 -187 369 -113 392 -3 c 0
 415 107 432 189 444 244 c 0x30
170 -185 m 1
 164 -175 l 1
 154 -182 146 -185 139 -185 c 0
 126 -185 121 -174 126 -151 c 2
 144 -67 l 1
 76 -67 l 1
 58 -152 l 2
 55 -161 54 -170 54 -178 c 0
 54 -208 69 -223 99 -223 c 0
 126 -223 150 -210 170 -185 c 1
433 496 m 1
 377 621 343 691 332 705 c 0
 325 713 314 717 299 717 c 0
 276 717 266 703 266 683 c 0
 266 671 270 660 279 650 c 0
 364 546 407 495 407 496 c 2
 433 496 l 1
248 599 m 0
 248 651 202 687 150 687 c 0
 138 687 128 682 120 671 c 0
 114 662 111 652 111 641 c 0
 111 616 129 604 164 604 c 0
 168 604 172 604 176 605 c 0
 189 606 203 591 203 576 c 0
 204 559 198 546 187 535 c 0
 184 530 174 523 159 513 c 1
 170 497 l 1
 193 504 213 518 230 540 c 0
 242 555 248 575 248 599 c 0
EndSplineSet
Validated: 41
EndChar

StartChar: uni1F93
Encoding: 8083 8083 122
Width: 500
Flags: MW
HStem: 490 78 528 83 707 21G
VStem: 78 45
AnchorPoint: "Base" 340 -180 basechar 0
LayerCount: 2
Fore
SplineSet
444 244 m 0x30
 448 263 450 281 450 298 c 0
 450 367 411 406 351 406 c 0
 339 406 326 404 313 401 c 0
 266 390 224 350 189 279 c 1
 190 312 184 341 171 364 c 0
 156 391 135 404 106 404 c 0
 77 405 55 391 40 362 c 0
 31 345 22 317 13 278 c 1
 31 278 l 1
 48 323 71 344 101 343 c 0
 115 343 127 335 137 319 c 0
 146 304 150 288 150 269 c 0
 150 262 149 255 148 248 c 0
 119 125 97 42 83 1 c 1
 78 1 101 1 154 0 c 1
 191 182 l 1
 223 311 270 376 331 376 c 0
 368 376 387 351 387 301 c 0
 387 280 383 256 376 229 c 0
 329 30 293 -121 268 -226 c 1
 306 -226 l 2
 332 -225 345 -225 345 -226 c 1
 354 -187 369 -113 392 -3 c 0
 415 107 432 189 444 244 c 0x30
170 -185 m 1
 164 -175 l 1
 154 -182 146 -185 139 -185 c 0
 126 -185 121 -174 126 -151 c 2
 144 -67 l 1
 76 -67 l 1
 58 -152 l 2
 55 -161 54 -170 54 -178 c 0
 54 -208 69 -223 99 -223 c 0
 126 -223 150 -210 170 -185 c 1
468 494 m 1
 412 620 378 690 367 703 c 0
 360 712 349 716 334 716 c 0
 311 716 301 701 301 681 c 0
 301 669 305 658 314 648 c 0
 399 544 442 493 442 494 c 2
 468 494 l 1
272 640 m 0
 272 651 269 660 263 669 c 0
 256 680 246 685 233 685 c 0
 181 685 135 649 135 598 c 0
 135 574 141 554 154 539 c 0
 171 517 191 502 214 495 c 1
 225 511 l 1
 210 522 200 529 196 533 c 0
 185 544 180 558 180 574 c 0
 180 589 194 606 207 603 c 0
 211 602 215 602 220 602 c 0
 255 602 272 615 272 640 c 0
EndSplineSet
Validated: 41
EndChar

StartChar: uni1F94
Encoding: 8084 8084 123
Width: 500
Flags: MW
HStem: 490 78 526 83
VStem: 120 45
AnchorPoint: "Base" 340 -180 basechar 0
LayerCount: 2
Fore
SplineSet
444 244 m 0x20
 448 263 450 281 450 298 c 0
 450 367 411 406 351 406 c 0
 339 406 326 404 313 401 c 0
 266 390 224 350 189 279 c 1
 190 312 184 341 171 364 c 0
 156 391 135 404 106 404 c 0
 77 405 55 391 40 362 c 0
 31 345 22 317 13 278 c 1
 31 278 l 1
 48 323 71 344 101 343 c 0
 115 343 127 335 137 319 c 0
 146 304 150 288 150 269 c 0
 150 262 149 255 148 248 c 0
 119 125 97 42 83 1 c 1
 78 1 101 1 154 0 c 1
 191 182 l 1
 223 311 270 376 331 376 c 0
 368 376 387 351 387 301 c 0
 387 280 383 256 376 229 c 0
 329 30 293 -121 268 -226 c 1
 306 -226 l 2
 332 -225 345 -225 345 -226 c 1
 354 -187 369 -113 392 -3 c 0
 415 107 432 189 444 244 c 0x20
170 -185 m 1
 164 -175 l 1
 154 -182 146 -185 139 -185 c 0
 126 -185 121 -174 126 -151 c 2
 144 -67 l 1
 76 -67 l 1
 58 -152 l 2
 55 -161 54 -170 54 -178 c 0
 54 -208 69 -223 99 -223 c 0
 126 -223 150 -210 170 -185 c 1
479 679 m 0
 479 698 470 713 447 713 c 0
 432 713 421 709 414 701 c 0
 402 687 368 617 312 491 c 1
 329 491 338 491 339 492 c 1
 339 490 382 541 467 646 c 0
 475 656 479 667 479 679 c 0
310 595 m 0
 310 646 265 683 213 683 c 0
 188 683 174 658 174 637 c 0
 174 612 191 599 226 599 c 0
 231 599 235 599 239 600 c 0
 252 603 265 585 265 572 c 0
 266 555 261 541 250 530 c 0
 246 526 236 519 221 509 c 1
 232 492 l 1
 255 499 275 514 292 536 c 0
 304 551 310 571 310 595 c 0
EndSplineSet
Validated: 41
EndChar

StartChar: uni1F96
Encoding: 8086 8086 124
Width: 500
Flags: MW
HStem: 490 78
AnchorPoint: "Base" 340 -180 basechar 0
LayerCount: 2
Fore
SplineSet
444 244 m 0
 448 263 450 281 450 298 c 0
 450 367 411 406 351 406 c 0
 339 406 326 404 313 401 c 0
 266 390 224 350 189 279 c 1
 190 312 184 341 171 364 c 0
 156 391 135 404 106 404 c 0
 77 405 55 391 40 362 c 0
 31 345 22 317 13 278 c 1
 31 278 l 1
 48 323 71 344 101 343 c 0
 115 343 127 335 137 319 c 0
 146 304 150 288 150 269 c 0
 150 262 149 255 148 248 c 0
 119 125 97 42 83 1 c 1
 78 1 101 1 154 0 c 1
 191 182 l 1
 223 311 270 376 331 376 c 0
 368 376 387 351 387 301 c 0
 387 280 383 256 376 229 c 0
 329 30 293 -121 268 -226 c 1
 306 -226 l 2
 332 -225 345 -225 345 -226 c 1
 354 -187 369 -113 392 -3 c 0
 415 107 432 189 444 244 c 0
170 -185 m 1
 164 -175 l 1
 154 -182 146 -185 139 -185 c 0
 126 -185 121 -174 126 -151 c 2
 144 -67 l 1
 76 -67 l 1
 58 -152 l 2
 55 -161 54 -170 54 -178 c 0
 54 -208 69 -223 99 -223 c 0
 126 -223 150 -210 170 -185 c 1
395 600 m 1
 395 616 386 636 368 659 c 0
 339 697 298 716 243 716 c 0
 174 716 125 677 96 600 c 1
 124 600 l 1
 147 646 187 669 243 669 c 0
 310 669 351 646 368 600 c 1
 395 600 l 1
321 525 m 0
 321 550 311 572 291 589 c 0
 272 605 249 613 223 613 c 0
 210 613 200 608 193 597 c 0
 187 588 184 579 184 568 c 0
 184 542 201 529 236 529 c 0
 241 529 245 530 249 531 c 0
 262 534 276 517 276 502 c 0
 276 486 271 472 260 461 c 0
 256 456 246 449 231 439 c 1
 243 423 l 1
 265 430 285 444 302 466 c 0
 315 481 321 501 321 525 c 0
EndSplineSet
Validated: 41
EndChar

StartChar: uni1F95
Encoding: 8085 8085 125
Width: 500
Flags: MW
HStem: 490 78 528 83
VStem: 207 45
AnchorPoint: "Base" 340 -180 basechar 0
LayerCount: 2
Fore
SplineSet
444 244 m 0x20
 448 263 450 281 450 298 c 0
 450 367 411 406 351 406 c 0
 339 406 326 404 313 401 c 0
 266 390 224 350 189 279 c 1
 190 312 184 341 171 364 c 0
 156 391 135 404 106 404 c 0
 77 405 55 391 40 362 c 0
 31 345 22 317 13 278 c 1
 31 278 l 1
 48 323 71 344 101 343 c 0
 115 343 127 335 137 319 c 0
 146 304 150 288 150 269 c 0
 150 262 149 255 148 248 c 0
 119 125 97 42 83 1 c 1
 78 1 101 1 154 0 c 1
 191 182 l 1
 223 311 270 376 331 376 c 0
 368 376 387 351 387 301 c 0
 387 280 383 256 376 229 c 0
 329 30 293 -121 268 -226 c 1
 306 -226 l 2
 332 -225 345 -225 345 -226 c 1
 354 -187 369 -113 392 -3 c 0
 415 107 432 189 444 244 c 0x20
170 -185 m 1
 164 -175 l 1
 154 -182 146 -185 139 -185 c 0
 126 -185 121 -174 126 -151 c 2
 144 -67 l 1
 76 -67 l 1
 58 -152 l 2
 55 -161 54 -170 54 -178 c 0
 54 -208 69 -223 99 -223 c 0
 126 -223 150 -210 170 -185 c 1
474 701 m 0
 485 688 485 663 469 644 c 0
 451 622 341 488 341 490 c 0
 341 491 315 490 315 490 c 1xa0
 334 535 399 680 416 699 c 0
 426 710 459 719 474 701 c 0
321 636 m 0
 321 602 279 595 256 599 c 0
 242 601 229 583 229 570 c 0
 229 532 256 519 274 507 c 1
 262 491 l 1
 247 496 218 515 202 534 c 0
 189 551 180 585 186 611 c 0x60
 195 650 233 681 282 681 c 0
 309 681 321 654 321 636 c 0
EndSplineSet
Validated: 41
EndChar

StartChar: uni1F97
Encoding: 8087 8087 126
Width: 500
Flags: MW
HStem: 490 78
AnchorPoint: "Base" 340 -180 basechar 0
LayerCount: 2
Fore
SplineSet
444 244 m 0
 448 263 450 281 450 298 c 0
 450 367 411 406 351 406 c 0
 339 406 326 404 313 401 c 0
 266 390 224 350 189 279 c 1
 190 312 184 341 171 364 c 0
 156 391 135 404 106 404 c 0
 77 405 55 391 40 362 c 0
 31 345 22 317 13 278 c 1
 31 278 l 1
 48 323 71 344 101 343 c 0
 115 343 127 335 137 319 c 0
 146 304 150 288 150 269 c 0
 150 262 149 255 148 248 c 0
 119 125 97 42 83 1 c 1
 78 1 101 1 154 0 c 1
 191 182 l 1
 223 311 270 376 331 376 c 0
 368 376 387 351 387 301 c 0
 387 280 383 256 376 229 c 0
 329 30 293 -121 268 -226 c 1
 306 -226 l 2
 332 -225 345 -225 345 -226 c 1
 354 -187 369 -113 392 -3 c 0
 415 107 432 189 444 244 c 0
170 -185 m 1
 164 -175 l 1
 154 -182 146 -185 139 -185 c 0
 126 -185 121 -174 126 -151 c 2
 144 -67 l 1
 76 -67 l 1
 58 -152 l 2
 55 -161 54 -170 54 -178 c 0
 54 -208 69 -223 99 -223 c 0
 126 -223 150 -210 170 -185 c 1
441 599 m 1
 441 615 432 635 414 658 c 0
 385 695 343 714 288 714 c 0
 219 714 170 676 141 599 c 1
 169 599 l 1
 193 645 233 668 289 668 c 0
 355 668 396 645 413 599 c 1
 441 599 l 1
349 572 m 0
 349 583 346 592 339 601 c 0
 332 612 322 617 309 618 c 0
 282 618 260 610 241 594 c 0
 222 577 212 556 212 529 c 0
 212 506 218 486 230 471 c 0
 247 449 267 434 289 427 c 1
 301 443 l 1
 286 454 276 461 273 465 c 0
 262 476 256 490 257 506 c 0
 257 521 271 538 284 535 c 0
 287 534 291 534 296 534 c 0
 331 534 349 547 349 572 c 0
EndSplineSet
Validated: 41
EndChar

StartChar: uni1FA0
Encoding: 8096 8096 127
Width: 700
Flags: MW
HStem: -3 21G 1 58 704 21G
VStem: 291 56
AnchorPoint: "Base" 511 -180 basechar 0
LayerCount: 2
Fore
SplineSet
671 187 m 0x30
 672 274 643 343 582 394 c 0
 575 400 566 405 555 409 c 1
 546 392 l 1
 553 387 559 380 564 373 c 0
 581 348 589 309 589 254 c 0
 589 221 587 193 583 169 c 0
 564 75 527 28 473 28 c 0
 435 28 408 39 392 61 c 0
 383 73 377 91 373 115 c 1
 383 134 392 154 401 174 c 0
 418 210 427 237 429 254 c 0
 433 303 416 327 379 327 c 0
 343 327 321 298 313 239 c 0
 310 218 309 182 310 131 c 1
 304 100 290 75 268 56 c 0
 248 38 226 29 203 29 c 0
 147 29 119 61 119 126 c 2
 119 142 l 1
 124 206 143 260 176 304 c 0
 189 321 214 347 253 380 c 0
 258 384 261 387 264 388 c 1
 260 397 257 404 256 408 c 1
 251 406 245 404 239 403 c 0
 181 384 133 352 96 307 c 0
 57 260 37 208 34 150 c 0
 30 55 86 -9 169 -9 c 0
 254 -9 304 23 339 102 c 1
 354 56 375 25 403 8 c 0
 423 -5 451 -11 488 -11 c 0
 543 -11 588 10 623 52 c 0
 654 90 670 135 671 187 c 0x30
383 -185 m 1
 377 -175 l 1
 367 -182 359 -185 352 -185 c 0
 339 -185 334 -174 339 -151 c 2
 357 -67 l 1
 289 -67 l 1
 271 -152 l 2
 268 -161 267 -170 267 -178 c 0
 267 -208 282 -223 312 -223 c 0
 339 -223 363 -210 383 -185 c 1
531 621 m 0
 531 682 486 719 434 718 c 0
 411 718 396 708 391 689 c 0
 385 668 391 652 408 641 c 1
 433 632 452 627 464 626 c 0
 471 624 474 618 474 609 c 0
 474 602 472 596 468 589 c 0
 455 566 433 554 402 553 c 1
 400 544 399 534 399 525 c 1
 403 524 408 523 414 523 c 0
 478 523 531 562 531 621 c 0
EndSplineSet
Validated: 41
EndChar

StartChar: uni1FA1
Encoding: 8097 8097 128
Width: 700
Flags: MW
HStem: -6 21G 1 58 444 195 702 21G
VStem: 291 56
AnchorPoint: "Base" 511 -180 basechar 0
LayerCount: 2
Fore
SplineSet
671 187 m 0x38
 672 274 643 343 582 394 c 0
 575 400 566 405 555 409 c 1
 546 392 l 1
 553 387 559 380 564 373 c 0
 581 348 589 309 589 254 c 0
 589 221 587 193 583 169 c 0
 564 75 527 28 473 28 c 0
 435 28 408 39 392 61 c 0
 383 73 377 91 373 115 c 1
 383 134 392 154 401 174 c 0
 418 210 427 237 429 254 c 0
 433 303 416 327 379 327 c 0
 343 327 321 298 313 239 c 0
 310 218 309 182 310 131 c 1
 304 100 290 75 268 56 c 0
 248 38 226 29 203 29 c 0
 147 29 119 61 119 126 c 2
 119 142 l 1
 124 206 143 260 176 304 c 0
 189 321 214 347 253 380 c 0
 258 384 261 387 264 388 c 1
 260 397 257 404 256 408 c 1
 251 406 245 404 239 403 c 0
 181 384 133 352 96 307 c 0
 57 260 37 208 34 150 c 0
 30 55 86 -9 169 -9 c 0
 254 -9 304 23 339 102 c 1
 354 56 375 25 403 8 c 0
 423 -5 451 -11 488 -11 c 0
 543 -11 588 10 623 52 c 0
 654 90 670 135 671 187 c 0x38
383 -185 m 1
 377 -175 l 1
 367 -182 359 -185 352 -185 c 0
 339 -185 334 -174 339 -151 c 2
 357 -67 l 1
 289 -67 l 1
 271 -152 l 2
 268 -161 267 -170 267 -178 c 0
 267 -208 282 -223 312 -223 c 0
 339 -223 363 -210 383 -185 c 1
519 684 m 0
 515 707 498 718 467 716 c 0
 449 715 432 708 416 696 c 0
 397 682 384 664 378 642 c 0
 375 632 374 622 374 613 c 0
 374 586 385 563 407 545 c 0
 426 529 450 521 477 521 c 2
 485 521 l 1
 486 526 486 535 485 549 c 1
 446 555 425 569 423 591 c 0
 420 608 425 619 436 624 c 0
 440 626 450 628 465 629 c 0
 479 630 490 633 499 638 c 0
 517 648 524 663 519 684 c 0
EndSplineSet
Validated: 41
EndChar

StartChar: uni1FA2
Encoding: 8098 8098 129
Width: 700
Flags: MW
HStem: -3 21G 1 58 530 83 707 21G
VStem: 280 45 291 56
AnchorPoint: "Base" 511 -180 basechar 0
LayerCount: 2
Fore
SplineSet
671 187 m 0x30
 672 274 643 343 582 394 c 0
 575 400 566 405 555 409 c 1
 546 392 l 1
 553 387 559 380 564 373 c 0
 581 348 589 309 589 254 c 0
 589 221 587 193 583 169 c 0
 564 75 527 28 473 28 c 0
 435 28 408 39 392 61 c 0
 383 73 377 91 373 115 c 1
 383 134 392 154 401 174 c 0
 418 210 427 237 429 254 c 0
 433 303 416 327 379 327 c 0
 343 327 321 298 313 239 c 0
 310 218 309 182 310 131 c 1
 304 100 290 75 268 56 c 0
 248 38 226 29 203 29 c 0
 147 29 119 61 119 126 c 2
 119 142 l 1
 124 206 143 260 176 304 c 0
 189 321 214 347 253 380 c 0
 258 384 261 387 264 388 c 1
 260 397 257 404 256 408 c 1
 251 406 245 404 239 403 c 0
 181 384 133 352 96 307 c 0
 57 260 37 208 34 150 c 0
 30 55 86 -9 169 -9 c 0
 254 -9 304 23 339 102 c 1
 354 56 375 25 403 8 c 0
 423 -5 451 -11 488 -11 c 0
 543 -11 588 10 623 52 c 0
 654 90 670 135 671 187 c 0x30
383 -185 m 1
 377 -175 l 1
 367 -182 359 -185 352 -185 c 0
 339 -185 334 -174 339 -151 c 2
 357 -67 l 1
 289 -67 l 1
 271 -152 l 2
 268 -161 267 -170 267 -178 c 0
 267 -208 282 -223 312 -223 c 0
 339 -223 363 -210 383 -185 c 1
566 496 m 1
 510 621 476 691 465 705 c 0
 458 713 447 717 432 717 c 0
 409 717 399 703 399 683 c 0
 399 671 403 660 412 650 c 0
 497 546 540 495 540 496 c 2
 566 496 l 1
381 599 m 0
 381 651 335 687 283 687 c 0
 271 687 261 682 253 671 c 0
 247 662 244 652 244 641 c 0
 244 616 262 604 297 604 c 0
 301 604 305 604 309 605 c 0
 322 606 336 591 336 576 c 0
 337 559 331 546 320 535 c 0
 317 530 307 523 292 513 c 1
 303 497 l 1
 326 504 346 518 363 540 c 0
 375 555 381 575 381 599 c 0
EndSplineSet
Validated: 41
EndChar

StartChar: uni1FA3
Encoding: 8099 8099 130
Width: 700
Flags: MW
HStem: -3 21G 1 58 528 83 707 21G
VStem: 229 45 291 56
AnchorPoint: "Base" 511 -180 basechar 0
LayerCount: 2
Fore
SplineSet
671 187 m 0x3c
 672 274 643 343 582 394 c 0
 575 400 566 405 555 409 c 1
 546 392 l 1
 553 387 559 380 564 373 c 0
 581 348 589 309 589 254 c 0
 589 221 587 193 583 169 c 0
 564 75 527 28 473 28 c 0
 435 28 408 39 392 61 c 0
 383 73 377 91 373 115 c 1
 383 134 392 154 401 174 c 0
 418 210 427 237 429 254 c 0
 433 303 416 327 379 327 c 0
 343 327 321 298 313 239 c 0
 310 218 309 182 310 131 c 1
 304 100 290 75 268 56 c 0
 248 38 226 29 203 29 c 0
 147 29 119 61 119 126 c 2
 119 142 l 1
 124 206 143 260 176 304 c 0
 189 321 214 347 253 380 c 0
 258 384 261 387 264 388 c 1
 260 397 257 404 256 408 c 1
 251 406 245 404 239 403 c 0
 181 384 133 352 96 307 c 0
 57 260 37 208 34 150 c 0
 30 55 86 -9 169 -9 c 0
 254 -9 304 23 339 102 c 1
 354 56 375 25 403 8 c 0
 423 -5 451 -11 488 -11 c 0
 543 -11 588 10 623 52 c 0
 654 90 670 135 671 187 c 0x3c
383 -185 m 1
 377 -175 l 1
 367 -182 359 -185 352 -185 c 0
 339 -185 334 -174 339 -151 c 2
 357 -67 l 1
 289 -67 l 1
 271 -152 l 2
 268 -161 267 -170 267 -178 c 0
 267 -208 282 -223 312 -223 c 0
 339 -223 363 -210 383 -185 c 1
617 494 m 1
 561 620 527 690 516 703 c 0
 509 712 498 716 483 716 c 0
 460 716 450 701 450 681 c 0
 450 669 454 658 463 648 c 0
 548 544 591 493 591 494 c 2
 617 494 l 1
421 640 m 0
 421 651 418 660 412 669 c 0
 405 680 395 685 382 685 c 0
 330 685 284 649 284 598 c 0
 284 574 290 554 303 539 c 0
 320 517 340 502 363 495 c 1
 374 511 l 1
 359 522 349 529 345 533 c 0
 334 544 329 558 329 574 c 0
 329 589 343 606 356 603 c 0
 360 602 364 602 369 602 c 0
 404 602 421 615 421 640 c 0
EndSplineSet
Validated: 41
EndChar

StartChar: uni1FA4
Encoding: 8100 8100 131
Width: 700
Flags: MW
HStem: -3 21G 1 58 526 83
VStem: 247 45 291 56
AnchorPoint: "Base" 511 -180 basechar 0
LayerCount: 2
Fore
SplineSet
671 187 m 0x20
 672 274 643 343 582 394 c 0
 575 400 566 405 555 409 c 1
 546 392 l 1
 553 387 559 380 564 373 c 0
 581 348 589 309 589 254 c 0
 589 221 587 193 583 169 c 0
 564 75 527 28 473 28 c 0
 435 28 408 39 392 61 c 0
 383 73 377 91 373 115 c 1
 383 134 392 154 401 174 c 0
 418 210 427 237 429 254 c 0
 433 303 416 327 379 327 c 0
 343 327 321 298 313 239 c 0
 310 218 309 182 310 131 c 1
 304 100 290 75 268 56 c 0
 248 38 226 29 203 29 c 0
 147 29 119 61 119 126 c 2
 119 142 l 1
 124 206 143 260 176 304 c 0
 189 321 214 347 253 380 c 0
 258 384 261 387 264 388 c 1
 260 397 257 404 256 408 c 1
 251 406 245 404 239 403 c 0
 181 384 133 352 96 307 c 0
 57 260 37 208 34 150 c 0
 30 55 86 -9 169 -9 c 0
 254 -9 304 23 339 102 c 1
 354 56 375 25 403 8 c 0
 423 -5 451 -11 488 -11 c 0
 543 -11 588 10 623 52 c 0
 654 90 670 135 671 187 c 0x20
383 -185 m 1
 377 -175 l 1
 367 -182 359 -185 352 -185 c 0
 339 -185 334 -174 339 -151 c 2
 357 -67 l 1
 289 -67 l 1
 271 -152 l 2
 268 -161 267 -170 267 -178 c 0
 267 -208 282 -223 312 -223 c 0
 339 -223 363 -210 383 -185 c 1
604 679 m 0
 604 698 595 713 572 713 c 0
 557 713 546 709 539 701 c 0
 527 687 493 617 437 491 c 1
 454 491 463 491 464 492 c 1
 464 490 507 541 592 646 c 0
 600 656 604 667 604 679 c 0
435 595 m 0
 435 646 390 683 338 683 c 0
 313 683 299 658 299 637 c 0
 299 612 316 599 351 599 c 0
 356 599 360 599 364 600 c 0
 377 603 390 585 390 572 c 0
 391 555 386 541 375 530 c 0
 371 526 361 519 346 509 c 1
 357 492 l 1
 380 499 400 514 417 536 c 0
 429 551 435 571 435 595 c 0
EndSplineSet
Validated: 41
EndChar

StartChar: uni1FA5
Encoding: 8101 8101 132
Width: 700
Flags: MW
HStem: -6 21G 1 58 528 83
VStem: 291 56 352 45
AnchorPoint: "Base" 511 -180 basechar 0
LayerCount: 2
Fore
SplineSet
671 187 m 0x38
 672 274 643 343 582 394 c 0
 575 400 566 405 555 409 c 1
 546 392 l 1
 553 387 559 380 564 373 c 0
 581 348 589 309 589 254 c 0
 589 221 587 193 583 169 c 0
 564 75 527 28 473 28 c 0
 435 28 408 39 392 61 c 0
 383 73 377 91 373 115 c 1
 383 134 392 154 401 174 c 0
 418 210 427 237 429 254 c 0
 433 303 416 327 379 327 c 0
 343 327 321 298 313 239 c 0
 310 218 309 182 310 131 c 1
 304 100 290 75 268 56 c 0
 248 38 226 29 203 29 c 0
 147 29 119 61 119 126 c 2
 119 142 l 1
 124 206 143 260 176 304 c 0
 189 321 214 347 253 380 c 0
 258 384 261 387 264 388 c 1
 260 397 257 404 256 408 c 1
 251 406 245 404 239 403 c 0
 181 384 133 352 96 307 c 0
 57 260 37 208 34 150 c 0
 30 55 86 -9 169 -9 c 0
 254 -9 304 23 339 102 c 1
 354 56 375 25 403 8 c 0
 423 -5 451 -11 488 -11 c 0
 543 -11 588 10 623 52 c 0
 654 90 670 135 671 187 c 0x38
383 -185 m 1
 377 -175 l 1
 367 -182 359 -185 352 -185 c 0
 339 -185 334 -174 339 -151 c 2
 357 -67 l 1
 289 -67 l 1
 271 -152 l 2
 268 -161 267 -170 267 -178 c 0
 267 -208 282 -223 312 -223 c 0
 339 -223 363 -210 383 -185 c 1
617 701 m 0
 628 688 628 663 612 644 c 0
 594 622 484 488 484 490 c 0
 484 491 458 490 458 490 c 1
 477 535 542 680 559 699 c 0
 569 710 602 719 617 701 c 0
464 636 m 0
 464 602 422 595 399 599 c 0
 385 601 372 583 372 570 c 0
 372 532 399 519 417 507 c 1
 405 491 l 1
 390 496 361 515 345 534 c 0
 332 551 323 585 329 611 c 0
 338 650 376 681 425 681 c 0
 452 681 464 654 464 636 c 0
EndSplineSet
Validated: 41
EndChar

StartChar: uni1FA6
Encoding: 8102 8102 133
Width: 700
Flags: MW
HStem: -3 21G 1 58
VStem: 291 56
AnchorPoint: "Base" 511 -180 basechar 0
LayerCount: 2
Fore
SplineSet
671 187 m 0x20
 672 274 643 343 582 394 c 0
 575 400 566 405 555 409 c 1
 546 392 l 1
 553 387 559 380 564 373 c 0
 581 348 589 309 589 254 c 0
 589 221 587 193 583 169 c 0
 564 75 527 28 473 28 c 0
 435 28 408 39 392 61 c 0
 383 73 377 91 373 115 c 1
 383 134 392 154 401 174 c 0
 418 210 427 237 429 254 c 0
 433 303 416 327 379 327 c 0
 343 327 321 298 313 239 c 0
 310 218 309 182 310 131 c 1
 304 100 290 75 268 56 c 0
 248 38 226 29 203 29 c 0
 147 29 119 61 119 126 c 2
 119 142 l 1
 124 206 143 260 176 304 c 0
 189 321 214 347 253 380 c 0
 258 384 261 387 264 388 c 1
 260 397 257 404 256 408 c 1
 251 406 245 404 239 403 c 0
 181 384 133 352 96 307 c 0
 57 260 37 208 34 150 c 0
 30 55 86 -9 169 -9 c 0
 254 -9 304 23 339 102 c 1
 354 56 375 25 403 8 c 0
 423 -5 451 -11 488 -11 c 0
 543 -11 588 10 623 52 c 0
 654 90 670 135 671 187 c 0x20
383 -185 m 1
 377 -175 l 1
 367 -182 359 -185 352 -185 c 0
 339 -185 334 -174 339 -151 c 2
 357 -67 l 1
 289 -67 l 1
 271 -152 l 2
 268 -161 267 -170 267 -178 c 0
 267 -208 282 -223 312 -223 c 0
 339 -223 363 -210 383 -185 c 1
559 600 m 1
 559 616 550 636 532 659 c 0
 503 697 462 716 407 716 c 0
 338 716 289 677 260 600 c 1
 288 600 l 1
 311 646 351 669 407 669 c 0
 474 669 515 646 532 600 c 1
 559 600 l 1
485 525 m 0
 485 550 475 572 455 589 c 0
 436 605 413 613 387 613 c 0
 374 613 364 608 357 597 c 0
 351 588 348 579 348 568 c 0
 348 542 365 529 400 529 c 0
 405 529 409 530 413 531 c 0
 426 534 440 517 440 502 c 0
 440 486 435 472 424 461 c 0
 420 456 410 449 395 439 c 1
 407 423 l 1
 429 430 449 444 466 466 c 0
 479 481 485 501 485 525 c 0
EndSplineSet
Validated: 41
EndChar

StartChar: uni1FA7
Encoding: 8103 8103 134
Width: 700
Flags: MW
HStem: -6 21G 1 58
VStem: 291 56
AnchorPoint: "Base" 511 -180 basechar 0
LayerCount: 2
Fore
SplineSet
671 187 m 0x20
 672 274 643 343 582 394 c 0
 575 400 566 405 555 409 c 1
 546 392 l 1
 553 387 559 380 564 373 c 0
 581 348 589 309 589 254 c 0
 589 221 587 193 583 169 c 0
 564 75 527 28 473 28 c 0
 435 28 408 39 392 61 c 0
 383 73 377 91 373 115 c 1
 383 134 392 154 401 174 c 0
 418 210 427 237 429 254 c 0
 433 303 416 327 379 327 c 0
 343 327 321 298 313 239 c 0
 310 218 309 182 310 131 c 1
 304 100 290 75 268 56 c 0
 248 38 226 29 203 29 c 0
 147 29 119 61 119 126 c 2
 119 142 l 1
 124 206 143 260 176 304 c 0
 189 321 214 347 253 380 c 0
 258 384 261 387 264 388 c 1
 260 397 257 404 256 408 c 1
 251 406 245 404 239 403 c 0
 181 384 133 352 96 307 c 0
 57 260 37 208 34 150 c 0
 30 55 86 -9 169 -9 c 0
 254 -9 304 23 339 102 c 1
 354 56 375 25 403 8 c 0
 423 -5 451 -11 488 -11 c 0
 543 -11 588 10 623 52 c 0
 654 90 670 135 671 187 c 0x20
383 -185 m 1
 377 -175 l 1
 367 -182 359 -185 352 -185 c 0
 339 -185 334 -174 339 -151 c 2
 357 -67 l 1
 289 -67 l 1
 271 -152 l 2
 268 -161 267 -170 267 -178 c 0
 267 -208 282 -223 312 -223 c 0
 339 -223 363 -210 383 -185 c 1
587 599 m 1
 587 615 578 635 560 658 c 0
 531 695 489 714 434 714 c 0
 365 714 316 676 287 599 c 1
 315 599 l 1
 339 645 379 668 435 668 c 0
 501 668 542 645 559 599 c 1
 587 599 l 1
495 572 m 0
 495 583 492 592 485 601 c 0
 478 612 468 617 455 618 c 0
 428 618 406 610 387 594 c 0
 368 577 358 556 358 529 c 0
 358 506 364 486 376 471 c 0
 393 449 413 434 435 427 c 1
 447 443 l 1
 432 454 422 461 419 465 c 0
 408 476 402 490 403 506 c 0
 403 521 417 538 430 535 c 0
 433 534 437 534 442 534 c 0
 477 534 495 547 495 572 c 0
EndSplineSet
Validated: 41
EndChar

StartChar: uni1FB7
Encoding: 8119 8119 135
Width: 538
Flags: MW
HStem: -16 21 260 36
VStem: -856 29
AnchorPoint: "Base" 411 -180 basechar 0
LayerCount: 2
Fore
SplineSet
496 97 m 0
 493 98 488 98 483 97 c 1
 467 56 446 36 419 36 c 0
 392 36 373 59 374 88 c 1
 468 393 l 1
 388 393 l 1
 365 260 l 1
 367 339 341 384 288 396 c 0
 275 399 261 400 248 400 c 0
 197 400 152 382 113 345 c 0
 73 308 50 261 44 204 c 0
 43 192 42 180 42 169 c 0
 42 110 58 65 91 34 c 0
 121 6 160 -8 209 -9 c 0
 242 -9 270 -3 293 8 c 0
 312 17 332 34 354 59 c 1
 353 14 375 -9 418 -9 c 0
 455 -9 491 38 496 97 c 0
346 232 m 0
 341 163 329 111 310 78 c 0
 287 35 254 15 211 17 c 0
 152 20 122 62 122 144 c 0
 122 163 124 184 128 207 c 0
 137 263 154 305 180 333 c 0
 203 357 230 369 261 369 c 0
 268 369 274 369 280 368 c 0
 311 362 331 339 341 300 c 0
 346 279 348 256 346 232 c 0
260 -185 m 1
 254 -175 l 1
 244 -182 236 -185 229 -185 c 0
 216 -185 211 -174 216 -151 c 2
 234 -67 l 1
 166 -67 l 1
 148 -152 l 2
 145 -161 144 -170 144 -178 c 0
 144 -208 159 -223 189 -223 c 0
 216 -223 240 -210 260 -185 c 1
459 511 m 1
 459 526 450 546 432 570 c 0
 404 607 362 626 307 626 c 0
 238 626 189 588 160 511 c 1
 188 511 l 1
 212 556 252 579 308 579 c 0
 374 579 415 556 432 511 c 1
 459 511 l 1
EndSplineSet
Validated: 41
EndChar

StartChar: uni1FB4
Encoding: 8116 8116 136
Width: 538
Flags: MW
HStem: -16 21 260 36
VStem: -856 29
AnchorPoint: "Base" 411 -180 basechar 0
LayerCount: 2
Fore
SplineSet
496 97 m 0
 493 98 488 98 483 97 c 1
 467 56 446 36 419 36 c 0
 392 36 373 59 374 88 c 1
 468 393 l 1
 388 393 l 1
 365 260 l 1
 367 339 341 384 288 396 c 0
 275 399 261 400 248 400 c 0
 197 400 152 382 113 345 c 0
 73 308 50 261 44 204 c 0
 43 192 42 180 42 169 c 0
 42 110 58 65 91 34 c 0
 121 6 160 -8 209 -9 c 0
 242 -9 270 -3 293 8 c 0
 312 17 332 34 354 59 c 1
 353 14 375 -9 418 -9 c 0
 455 -9 491 38 496 97 c 0
346 232 m 0
 341 163 329 111 310 78 c 0
 287 35 254 15 211 17 c 0
 152 20 122 62 122 144 c 0
 122 163 124 184 128 207 c 0
 137 263 154 305 180 333 c 0
 203 357 230 369 261 369 c 0
 268 369 274 369 280 368 c 0
 311 362 331 339 341 300 c 0
 346 279 348 256 346 232 c 0
260 -185 m 1
 254 -175 l 1
 244 -182 236 -185 229 -185 c 0
 216 -185 211 -174 216 -151 c 2
 234 -67 l 1
 166 -67 l 1
 148 -152 l 2
 145 -161 144 -170 144 -178 c 0
 144 -208 159 -223 189 -223 c 0
 216 -223 240 -210 260 -185 c 1
460 665 m 0
 461 669 462 673 462 678 c 0
 462 698 445 717 422 717 c 0
 409 717 393 710 385 698 c 0
 377 684 362 651 340 599 c 0
 317 546 300 511 291 494 c 1
 323 494 l 1
 440 634 l 2
 450 645 457 656 460 665 c 0
EndSplineSet
Validated: 41
EndChar

StartChar: uni1FB3
Encoding: 8115 8115 137
Width: 538
Flags: MW
HStem: 260 36
VStem: -856 29
AnchorPoint: "Base" 411 -180 basechar 0
LayerCount: 2
Fore
SplineSet
496 97 m 0
 493 98 488 98 483 97 c 1
 467 56 446 36 419 36 c 0
 392 36 373 59 374 88 c 1
 468 393 l 1
 388 393 l 1
 365 260 l 1
 367 339 341 384 288 396 c 0
 275 399 261 400 248 400 c 0
 197 400 152 382 113 345 c 0
 73 308 50 261 44 204 c 0
 43 192 42 180 42 169 c 0
 42 110 58 65 91 34 c 0
 121 6 160 -8 209 -9 c 0
 242 -9 270 -3 293 8 c 0
 312 17 332 34 354 59 c 1
 353 14 375 -9 418 -9 c 0
 455 -9 491 38 496 97 c 0
346 232 m 0
 341 163 329 111 310 78 c 0
 287 35 254 15 211 17 c 0
 152 20 122 62 122 144 c 0
 122 163 124 184 128 207 c 0
 137 263 154 305 180 333 c 0
 203 357 230 369 261 369 c 0
 268 369 274 369 280 368 c 0
 311 362 331 339 341 300 c 0
 346 279 348 256 346 232 c 0
260 -185 m 1
 254 -175 l 1
 244 -182 236 -185 229 -185 c 0
 216 -185 211 -174 216 -151 c 2
 234 -67 l 1
 166 -67 l 1
 148 -152 l 2
 145 -161 144 -170 144 -178 c 0
 144 -208 159 -223 189 -223 c 0
 216 -223 240 -210 260 -185 c 1
EndSplineSet
Validated: 41
EndChar

StartChar: uni1FB2
Encoding: 8114 8114 138
Width: 538
Flags: MW
HStem: -16 21 260 36
VStem: -856 29
AnchorPoint: "Base" 411 -180 basechar 0
LayerCount: 2
Fore
SplineSet
496 97 m 0
 493 98 488 98 483 97 c 1
 467 56 446 36 419 36 c 0
 392 36 373 59 374 88 c 1
 468 393 l 1
 388 393 l 1
 365 260 l 1
 367 339 341 384 288 396 c 0
 275 399 261 400 248 400 c 0
 197 400 152 382 113 345 c 0
 73 308 50 261 44 204 c 0
 43 192 42 180 42 169 c 0
 42 110 58 65 91 34 c 0
 121 6 160 -8 209 -9 c 0
 242 -9 270 -3 293 8 c 0
 312 17 332 34 354 59 c 1
 353 14 375 -9 418 -9 c 0
 455 -9 491 38 496 97 c 0
346 232 m 0
 341 163 329 111 310 78 c 0
 287 35 254 15 211 17 c 0
 152 20 122 62 122 144 c 0
 122 163 124 184 128 207 c 0
 137 263 154 305 180 333 c 0
 203 357 230 369 261 369 c 0
 268 369 274 369 280 368 c 0
 311 362 331 339 341 300 c 0
 346 279 348 256 346 232 c 0
260 -185 m 1
 254 -175 l 1
 244 -182 236 -185 229 -185 c 0
 216 -185 211 -174 216 -151 c 2
 234 -67 l 1
 166 -67 l 1
 148 -152 l 2
 145 -161 144 -170 144 -178 c 0
 144 -208 159 -223 189 -223 c 0
 216 -223 240 -210 260 -185 c 1
395 493 m 1
 363 493 l 1
 244 641 l 2
 239 648 228 663 224 673 c 0
 213 700 250 738 289 719 c 0
 296 716 301 711 305 705 c 0
 329 663 367 544 395 493 c 1
EndSplineSet
Validated: 41
EndChar

StartChar: uni1FB1
Encoding: 8113 8113 139
Width: 538
Flags: MW
HStem: 260 36
VStem: -856 29
LayerCount: 2
Fore
SplineSet
406 508 m 1
 176 508 l 1
 176 558 l 1
 406 558 l 1
 406 508 l 1
496 97 m 0
 493 98 488 98 483 97 c 1
 467 56 446 36 419 36 c 0
 392 36 373 59 374 88 c 1
 468 393 l 1
 388 393 l 1
 365 260 l 1
 367 339 341 384 288 396 c 0
 275 399 261 400 248 400 c 0
 197 400 152 382 113 345 c 0
 73 308 50 261 44 204 c 0
 43 192 42 180 42 169 c 0
 42 110 58 65 91 34 c 0
 121 6 160 -8 209 -9 c 0
 242 -9 270 -3 293 8 c 0
 312 17 332 34 354 59 c 1
 353 14 375 -9 418 -9 c 0
 455 -9 491 38 496 97 c 0
346 232 m 0
 341 163 329 111 310 78 c 0
 287 35 254 15 211 17 c 0
 152 20 122 62 122 144 c 0
 122 163 124 184 128 207 c 0
 137 263 154 305 180 333 c 0
 203 357 230 369 261 369 c 0
 268 369 274 369 280 368 c 0
 311 362 331 339 341 300 c 0
 346 279 348 256 346 232 c 0
EndSplineSet
Validated: 41
EndChar

StartChar: uni1FB0
Encoding: 8112 8112 140
Width: 538
Flags: MW
HStem: 260 36
VStem: -856 29
LayerCount: 2
Fore
SplineSet
496 97 m 0
 493 98 488 98 483 97 c 1
 467 56 446 36 419 36 c 0
 392 36 373 59 374 88 c 1
 468 393 l 1
 388 393 l 1
 365 260 l 1
 367 339 341 384 288 396 c 0
 275 399 261 400 248 400 c 0
 197 400 152 382 113 345 c 0
 73 308 50 261 44 204 c 0
 43 192 42 180 42 169 c 0
 42 110 58 65 91 34 c 0
 121 6 160 -8 209 -9 c 0
 242 -9 270 -3 293 8 c 0
 312 17 332 34 354 59 c 1
 353 14 375 -9 418 -9 c 0
 455 -9 491 38 496 97 c 0
346 232 m 0
 341 163 329 111 310 78 c 0
 287 35 254 15 211 17 c 0
 152 20 122 62 122 144 c 0
 122 163 124 184 128 207 c 0
 137 263 154 305 180 333 c 0
 203 357 230 369 261 369 c 0
 268 369 274 369 280 368 c 0
 311 362 331 339 341 300 c 0
 346 279 348 256 346 232 c 0
435 622 m 1
 435 607 426 587 408 563 c 0
 380 526 338 507 283 507 c 0
 214 507 165 545 136 622 c 1
 164 622 l 1
 188 577 228 554 284 554 c 0
 350 554 391 577 408 622 c 1
 435 622 l 1
EndSplineSet
Validated: 41
EndChar

StartChar: uni1FC7
Encoding: 8135 8135 141
Width: 500
Flags: MW
HStem: 490 78
AnchorPoint: "Base" 340 -180 basechar 0
LayerCount: 2
Fore
SplineSet
444 244 m 0
 448 263 450 281 450 298 c 0
 450 367 411 406 351 406 c 0
 339 406 326 404 313 401 c 0
 266 390 224 350 189 279 c 1
 190 312 184 341 171 364 c 0
 156 391 135 404 106 404 c 0
 77 405 55 391 40 362 c 0
 31 345 22 317 13 278 c 1
 31 278 l 1
 48 323 71 344 101 343 c 0
 115 343 127 335 137 319 c 0
 146 304 150 288 150 269 c 0
 150 262 149 255 148 248 c 0
 119 125 97 42 83 1 c 1
 78 1 101 1 154 0 c 1
 191 182 l 1
 223 311 270 376 331 376 c 0
 368 376 387 351 387 301 c 0
 387 280 383 256 376 229 c 0
 329 30 293 -121 268 -226 c 1
 306 -226 l 2
 332 -225 345 -225 345 -226 c 1
 354 -187 369 -113 392 -3 c 0
 415 107 432 189 444 244 c 0
170 -185 m 1
 164 -175 l 1
 154 -182 146 -185 139 -185 c 0
 126 -185 121 -174 126 -151 c 2
 144 -67 l 1
 76 -67 l 1
 58 -152 l 2
 55 -161 54 -170 54 -178 c 0
 54 -208 69 -223 99 -223 c 0
 126 -223 150 -210 170 -185 c 1
444 511 m 1
 444 526 435 546 417 570 c 0
 389 607 347 626 292 626 c 0
 223 626 174 588 145 511 c 1
 173 511 l 1
 197 556 237 579 293 579 c 0
 359 579 400 556 417 511 c 1
 444 511 l 1
EndSplineSet
Validated: 41
EndChar

StartChar: uni1FD0
Encoding: 8144 8144 142
Width: 263
Flags: MW
HStem: -205 25
LayerCount: 2
Fore
SplineSet
310 622 m 1
 310 607 301 587 283 563 c 0
 255 526 213 507 158 507 c 0
 89 507 40 545 11 622 c 1
 39 622 l 1
 63 577 103 554 159 554 c 0
 225 554 266 577 283 622 c 1
 310 622 l 1
251 120 m 1
 224 120 l 1
 208 69 183 43 149 43 c 0
 125 43 113 58 113 89 c 0
 113 110 119 146 131 196 c 0
 140 236 152 283 167 336 c 0
 178 375 184 395 183 395 c 0
 157 396 132 396 108 396 c 1
 69 249 49 153 46 108 c 0
 44 68 52 37 71 16 c 0
 86 -1 106 -10 130 -10 c 0
 161 -10 188 3 211 30 c 0
 230 53 243 83 251 120 c 1
EndSplineSet
Validated: 41
EndChar

StartChar: uni1FD1
Encoding: 8145 8145 143
Width: 263
Flags: MW
HStem: -205 25
LayerCount: 2
Fore
SplineSet
277 508 m 1
 47 508 l 1
 47 558 l 1
 277 558 l 1
 277 508 l 1
251 120 m 1
 224 120 l 1
 208 69 183 43 149 43 c 0
 125 43 113 58 113 89 c 0
 113 110 119 146 131 196 c 0
 140 236 152 283 167 336 c 0
 178 375 184 395 183 395 c 0
 157 396 132 396 108 396 c 1
 69 249 49 153 46 108 c 0
 44 68 52 37 71 16 c 0
 86 -1 106 -10 130 -10 c 0
 161 -10 188 3 211 30 c 0
 230 53 243 83 251 120 c 1
EndSplineSet
Validated: 41
EndChar

StartChar: uni1FD7
Encoding: 8151 8151 144
Width: 263
Flags: MW
HStem: -205 25
LayerCount: 2
Fore
SplineSet
251 120 m 1
 224 120 l 1
 208 69 183 43 149 43 c 0
 125 43 113 58 113 89 c 0
 113 110 119 146 131 196 c 0
 140 236 152 283 167 336 c 0
 178 375 184 395 183 395 c 0
 157 396 132 396 108 396 c 1
 69 249 49 153 46 108 c 0
 44 68 52 37 71 16 c 0
 86 -1 106 -10 130 -10 c 0
 161 -10 188 3 211 30 c 0
 230 53 243 83 251 120 c 1
332 522 m 0
 332 546 310 567 285 567 c 0
 261 567 240 547 240 522 c 0
 240 497 261 475 285 475 c 0
 310 475 332 497 332 522 c 0
102 522 m 0
 102 546 81 567 56 567 c 0
 31 567 9 547 9 522 c 0
 9 497 31 475 56 475 c 0
 81 475 102 497 102 522 c 0
323 600 m 1
 323 616 314 636 296 659 c 0
 267 697 226 716 171 716 c 0
 102 716 53 677 24 600 c 1
 52 600 l 1
 75 646 115 669 171 669 c 0
 238 669 279 646 296 600 c 1
 323 600 l 1
EndSplineSet
Validated: 41
EndChar

StartChar: uni1FE1
Encoding: 8161 8161 145
Width: 438
Flags: MW
HStem: -100 23
LayerCount: 2
Fore
SplineSet
362 508 m 1
 132 508 l 1
 132 558 l 1
 362 558 l 1
 362 508 l 1
405 270 m 0
 408 292 409 310 409 324 c 0
 409 377 392 404 358 404 c 0
 333 404 322 389 323 359 c 0
 324 348 327 330 334 305 c 0
 341 280 345 262 346 250 c 0
 349 202 342 159 326 121 c 0
 315 92 301 72 286 60 c 0
 262 41 235 31 206 31 c 0
 165 31 135 58 135 99 c 0
 135 114 139 139 148 176 c 0
 161 231 171 272 176 299 c 0
 178 310 179 320 179 329 c 0
 179 379 154 404 103 404 c 0
 56 404 24 377 6 323 c 1
 28 324 l 1
 39 345 54 356 75 356 c 0
 79 356 83 356 88 355 c 0
 101 352 108 340 108 318 c 0
 108 296 101 260 87 209 c 0
 74 158 67 121 67 96 c 0
 67 59 81 32 110 13 c 0
 131 -1 154 -8 179 -8 c 0
 299 -8 382 81 405 270 c 0
EndSplineSet
Validated: 41
EndChar

StartChar: uni1FE0
Encoding: 8160 8160 146
Width: 438
Flags: MW
HStem: -100 23
LayerCount: 2
Fore
SplineSet
417 622 m 1
 417 607 408 587 390 563 c 0
 362 526 320 507 265 507 c 0
 196 507 147 545 118 622 c 1
 146 622 l 1
 170 577 210 554 266 554 c 0
 332 554 373 577 390 622 c 1
 417 622 l 1
405 270 m 0
 408 292 409 310 409 324 c 0
 409 377 392 404 358 404 c 0
 333 404 322 389 323 359 c 0
 324 348 327 330 334 305 c 0
 341 280 345 262 346 250 c 0
 349 202 342 159 326 121 c 0
 315 92 301 72 286 60 c 0
 262 41 235 31 206 31 c 0
 165 31 135 58 135 99 c 0
 135 114 139 139 148 176 c 0
 161 231 171 272 176 299 c 0
 178 310 179 320 179 329 c 0
 179 379 154 404 103 404 c 0
 56 404 24 377 6 323 c 1
 28 324 l 1
 39 345 54 356 75 356 c 0
 79 356 83 356 88 355 c 0
 101 352 108 340 108 318 c 0
 108 296 101 260 87 209 c 0
 74 158 67 121 67 96 c 0
 67 59 81 32 110 13 c 0
 131 -1 154 -8 179 -8 c 0
 299 -8 382 81 405 270 c 0
EndSplineSet
Validated: 41
EndChar

StartChar: uni1FE7
Encoding: 8167 8167 147
Width: 438
Flags: MW
HStem: -100 23
AnchorPoint: "Base" 380 0 basechar 0
LayerCount: 2
Fore
SplineSet
405 270 m 0
 408 292 409 310 409 324 c 0
 409 377 392 404 358 404 c 0
 333 404 322 389 323 359 c 0
 324 348 327 330 334 305 c 0
 341 280 345 262 346 250 c 0
 349 202 342 159 326 121 c 0
 315 92 301 72 286 60 c 0
 262 41 235 31 206 31 c 0
 165 31 135 58 135 99 c 0
 135 114 139 139 148 176 c 0
 161 231 171 272 176 299 c 0
 178 310 179 320 179 329 c 0
 179 379 154 404 103 404 c 0
 56 404 24 377 6 323 c 1
 28 324 l 1
 39 345 54 356 75 356 c 0
 79 356 83 356 88 355 c 0
 101 352 108 340 108 318 c 0
 108 296 101 260 87 209 c 0
 74 158 67 121 67 96 c 0
 67 59 81 32 110 13 c 0
 131 -1 154 -8 179 -8 c 0
 299 -8 382 81 405 270 c 0
399 522 m 0
 399 546 377 567 352 567 c 0
 328 567 307 547 307 522 c 0
 307 497 328 475 352 475 c 0
 377 475 399 497 399 522 c 0
169 522 m 0
 169 546 148 567 123 567 c 0
 98 567 76 547 76 522 c 0
 76 497 98 475 123 475 c 0
 148 475 169 497 169 522 c 0
390 600 m 1
 390 616 381 636 363 659 c 0
 334 697 293 716 238 716 c 0
 169 716 120 677 91 600 c 1
 119 600 l 1
 142 646 182 669 238 669 c 0
 305 669 346 646 363 600 c 1
 390 600 l 1
EndSplineSet
Validated: 41
EndChar

StartChar: uni1FF7
Encoding: 8183 8183 148
Width: 700
Flags: MW
HStem: -3 21G 1 58
VStem: 291 56
AnchorPoint: "Base" 511 -180 basechar 0
LayerCount: 2
Fore
SplineSet
671 187 m 0x20
 672 274 643 343 582 394 c 0
 575 400 566 405 555 409 c 1
 546 392 l 1
 553 387 559 380 564 373 c 0
 581 348 589 309 589 254 c 0
 589 221 587 193 583 169 c 0
 564 75 527 28 473 28 c 0
 435 28 408 39 392 61 c 0
 383 73 377 91 373 115 c 1
 383 134 392 154 401 174 c 0
 418 210 427 237 429 254 c 0
 433 303 416 327 379 327 c 0
 343 327 321 298 313 239 c 0
 310 218 309 182 310 131 c 1
 304 100 290 75 268 56 c 0
 248 38 226 29 203 29 c 0
 147 29 119 61 119 126 c 2
 119 142 l 1
 124 206 143 260 176 304 c 0
 189 321 214 347 253 380 c 0
 258 384 261 387 264 388 c 1
 260 397 257 404 256 408 c 1
 251 406 245 404 239 403 c 0
 181 384 133 352 96 307 c 0
 57 260 37 208 34 150 c 0
 30 55 86 -9 169 -9 c 0
 254 -9 304 23 339 102 c 1
 354 56 375 25 403 8 c 0
 423 -5 451 -11 488 -11 c 0
 543 -11 588 10 623 52 c 0
 654 90 670 135 671 187 c 0x20
383 -185 m 1
 377 -175 l 1
 367 -182 359 -185 352 -185 c 0
 339 -185 334 -174 339 -151 c 2
 357 -67 l 1
 289 -67 l 1
 271 -152 l 2
 268 -161 267 -170 267 -178 c 0
 267 -208 282 -223 312 -223 c 0
 339 -223 363 -210 383 -185 c 1
573 511 m 1
 573 526 564 546 546 570 c 0
 518 607 476 626 421 626 c 0
 352 626 303 588 274 511 c 1
 302 511 l 1
 326 556 366 579 422 579 c 0
 488 579 529 556 546 511 c 1
 573 511 l 1
EndSplineSet
Validated: 41
EndChar

StartChar: uni1FB8
Encoding: 8120 8120 149
Width: 688
Flags: MW
HStem: 257 31 486 38
LayerCount: 2
Fore
SplineSet
492 861 m 1
 492 846 483 826 465 802 c 0
 437 765 395 746 340 746 c 0
 271 746 222 784 193 861 c 1
 221 861 l 1
 245 816 285 793 341 793 c 0
 407 793 448 816 465 861 c 1
 492 861 l 1
659 0 m 1
 659 31 l 1
 624 31 l 2
 604 31 576 51 569 72 c 0
 540 151 512 230 484 309 c 0
 468 356 425 490 356 711 c 1
 326 711 l 1
 136 128 l 2
 115 64 81 32 33 32 c 0
 28 32 24 32 21 33 c 2
 22 0 l 1
 261 0 l 1
 261 31 l 1
 196 31 164 44 164 71 c 0
 164 76 165 81 167 86 c 0
 198 185 213 234 214 235 c 2
 417 235 l 1
 460 93 l 2
 462 87 463 81 463 76 c 0
 463 51 444 31 423 31 c 2
 357 31 l 1
 357 0 l 1
 659 0 l 1
404 274 m 1
 227 274 l 1
 316 553 l 1
 404 274 l 1
EndSplineSet
Validated: 9
EndChar

StartChar: uni1FB9
Encoding: 8121 8121 150
Width: 688
Flags: MW
HStem: 257 31 486 38
LayerCount: 2
Fore
SplineSet
459 744 m 1
 229 744 l 1
 229 794 l 1
 459 794 l 1
 459 744 l 1
659 0 m 1
 659 31 l 1
 624 31 l 2
 604 31 576 51 569 72 c 0
 540 151 512 230 484 309 c 0
 468 356 425 490 356 711 c 1
 326 711 l 1
 136 128 l 2
 115 64 81 32 33 32 c 0
 28 32 24 32 21 33 c 2
 22 0 l 1
 261 0 l 1
 261 31 l 1
 196 31 164 44 164 71 c 0
 164 76 165 81 167 86 c 0
 198 185 213 234 214 235 c 2
 417 235 l 1
 460 93 l 2
 462 87 463 81 463 76 c 0
 463 51 444 31 423 31 c 2
 357 31 l 1
 357 0 l 1
 659 0 l 1
404 274 m 1
 227 274 l 1
 316 553 l 1
 404 274 l 1
EndSplineSet
Validated: 9
EndChar

StartChar: uni1FBA
Encoding: 8122 8122 151
Width: 713
Flags: MW
HStem: 257 31 486 38
LayerCount: 2
Fore
SplineSet
684 0 m 1
 684 31 l 1
 649 31 l 2
 629 31 601 51 594 72 c 0
 565 151 537 230 509 309 c 0
 493 356 450 490 381 711 c 1
 351 711 l 1
 161 128 l 2
 140 64 106 32 58 32 c 0
 53 32 49 32 46 33 c 2
 47 0 l 1
 286 0 l 1
 286 31 l 1
 221 31 189 44 189 71 c 0
 189 76 190 81 192 86 c 0
 223 185 238 234 239 235 c 2
 442 235 l 1
 485 93 l 2
 487 87 488 81 488 76 c 0
 488 51 469 31 448 31 c 2
 382 31 l 1
 382 0 l 1
 684 0 l 1
429 274 m 1
 252 274 l 1
 341 553 l 1
 429 274 l 1
173 493 m 1
 141 493 l 1
 22 641 l 2
 17 648 6 663 2 673 c 0
 -9 700 28 738 67 719 c 0
 74 716 79 711 83 705 c 0
 107 663 145 544 173 493 c 1
EndSplineSet
Validated: 41
EndChar

StartChar: uni1FC8
Encoding: 8136 8136 152
Width: 792
Flags: MW
HStem: 0 21G<733 733>
LayerCount: 2
Fore
SplineSet
752 243 m 1
 723 243 l 1
 706 153 678 93 639 62 c 0
 610 39 566 27 505 27 c 0
 497 27 480 27 454 28 c 0
 431 29 413 29 399 28 c 1
 399 336 l 1
 476 336 l 2
 512 336 555 279 555 187 c 1
 582 187 l 1
 582 509 l 1
 555 509 l 1
 554 463 545 429 530 407 c 0
 512 380 494 367 476 367 c 2
 399 367 l 1
 399 674 l 1
 476 673 521 672 533 670 c 0
 576 665 610 649 635 623 c 0
 664 592 687 542 702 473 c 1
 729 473 l 1
 724 703 l 1
 204 703 l 1
 204 673 l 1
 267 673 l 2
 294 672 307 657 307 626 c 2
 307 485 l 1
 307 348 l 1
 307 69 l 2
 307 42 294 28 267 28 c 2
 205 28 l 1
 205 1 l 1
 733 0 l 1
 752 243 l 1
173 493 m 1
 141 493 l 1
 22 641 l 2
 17 648 6 663 2 673 c 0
 -9 700 28 738 67 719 c 0
 74 716 79 711 83 705 c 0
 107 663 145 544 173 493 c 1
EndSplineSet
Validated: 41
EndChar

StartChar: uni1FCA
Encoding: 8138 8138 153
Width: 865
Flags: MW
HStem: 0 21G
LayerCount: 2
Fore
SplineSet
836 32 m 1
 776 31 l 2
 755 31 738 48 738 67 c 2
 738 638 l 2
 738 663 751 676 777 676 c 2
 835 676 l 1
 835 706 l 1
 557 706 l 1
 558 676 l 1
 617 676 l 2
 641 676 653 663 653 637 c 2
 653 382 l 1
 389 382 l 1
 388 637 l 2
 388 663 401 676 428 676 c 2
 487 676 l 1
 486 706 l 1
 208 706 l 1
 208 676 l 1
 267 676 l 2
 292 676 305 663 305 638 c 2
 305 71 l 2
 305 45 293 32 268 32 c 2
 209 32 l 1
 208 -1 l 1
 487 -1 l 1
 485 31 l 1
 427 31 l 2
 401 31 388 44 388 70 c 2
 389 348 l 1
 653 348 l 1
 653 70 l 2
 653 44 640 31 615 31 c 2
 557 31 l 1
 556 1 l 1
 836 1 l 1
 836 32 l 1
173 493 m 1
 141 493 l 1
 22 641 l 2
 17 648 6 663 2 673 c 0
 -9 700 28 738 67 719 c 0
 74 716 79 711 83 705 c 0
 107 663 145 544 173 493 c 1
EndSplineSet
Validated: 41
EndChar

StartChar: uni1FD8
Encoding: 8152 8152 154
Width: 382
Flags: MW
HStem: 0 21G<54 348 348 348>
LayerCount: 2
Fore
SplineSet
354 861 m 1
 354 846 345 826 327 802 c 0
 299 765 257 746 202 746 c 0
 133 746 84 784 55 861 c 1
 83 861 l 1
 107 816 147 793 203 793 c 0
 269 793 310 816 327 861 c 1
 354 861 l 1
348 0 m 1
 348 28 l 1
 286 28 l 2
 259 28 246 42 246 69 c 2
 245 633 l 2
 245 660 259 673 286 673 c 2
 348 673 l 1
 348 703 l 1
 53 703 l 1
 53 673 l 1
 115 673 l 2
 141 673 154 658 154 628 c 2
 155 69 l 2
 155 42 142 28 116 28 c 2
 54 28 l 1
 54 0 l 1
 348 0 l 1
EndSplineSet
Validated: 9
EndChar

StartChar: uni1FD9
Encoding: 8153 8153 155
Width: 382
Flags: MW
HStem: 0 21G<54 348 348 348>
LayerCount: 2
Fore
SplineSet
318 744 m 1
 88 744 l 1
 88 794 l 1
 318 794 l 1
 318 744 l 1
348 0 m 1
 348 28 l 1
 286 28 l 2
 259 28 246 42 246 69 c 2
 245 633 l 2
 245 660 259 673 286 673 c 2
 348 673 l 1
 348 703 l 1
 53 703 l 1
 53 673 l 1
 115 673 l 2
 141 673 154 658 154 628 c 2
 155 69 l 2
 155 42 142 28 116 28 c 2
 54 28 l 1
 54 0 l 1
 348 0 l 1
EndSplineSet
Validated: 9
EndChar

StartChar: uni1FDA
Encoding: 8154 8154 156
Width: 531
Flags: MW
HStem: 0 21G<203 497 497 497>
LayerCount: 2
Fore
SplineSet
497 0 m 1
 497 28 l 1
 435 28 l 2
 408 28 395 42 395 69 c 2
 394 633 l 2
 394 660 408 673 435 673 c 2
 497 673 l 1
 497 703 l 1
 202 703 l 1
 202 673 l 1
 264 673 l 2
 290 673 303 658 303 628 c 2
 304 69 l 2
 304 42 291 28 265 28 c 2
 203 28 l 1
 203 0 l 1
 497 0 l 1
173 493 m 1
 141 493 l 1
 22 641 l 2
 17 648 6 663 2 673 c 0
 -9 700 28 738 67 719 c 0
 74 716 79 711 83 705 c 0
 107 663 145 544 173 493 c 1
EndSplineSet
Validated: 41
EndChar

StartChar: uni1FE8
Encoding: 8168 8168 157
Width: 694
Flags: MW
HStem: 89 20G
LayerCount: 2
Fore
SplineSet
533 861 m 1
 533 846 524 826 506 802 c 0
 478 765 436 746 381 746 c 0
 312 746 263 784 234 861 c 1
 262 861 l 1
 286 816 326 793 382 793 c 0
 448 793 489 816 506 861 c 1
 533 861 l 1
667 621 m 1
 654 675 635 703 610 705 c 0
 576 708 543 682 511 626 c 0
 486 582 459 521 428 444 c 0
 412 405 396 366 381 327 c 1
 340 432 308 505 287 548 c 0
 228 663 187 707 136 708 c 0
 96 708 62 679 34 621 c 1
 52 604 l 2
 53 605 59 613 71 626 c 0
 81 637 90 643 97 642 c 0
 126 641 159 605 194 536 c 0
 257 414 295 330 308 283 c 1
 308 69 l 2
 308 42 295 28 268 28 c 2
 205 28 l 1
 205 0 l 1
 500 0 l 1
 500 28 l 1
 438 28 l 2
 411 28 398 42 398 69 c 2
 398 284 l 1
 434 377 475 467 520 554 c 0
 547 605 574 631 600 631 c 0
 611 631 623 627 634 619 c 0
 643 612 648 609 648 608 c 2
 667 621 l 1
EndSplineSet
Validated: 41
EndChar

StartChar: uni1FE9
Encoding: 8169 8169 158
Width: 694
Flags: MW
HStem: 89 20G
LayerCount: 2
Fore
SplineSet
485 744 m 1
 255 744 l 1
 255 794 l 1
 485 794 l 1
 485 744 l 1
667 621 m 1
 654 675 635 703 610 705 c 0
 576 708 543 682 511 626 c 0
 486 582 459 521 428 444 c 0
 412 405 396 366 381 327 c 1
 340 432 308 505 287 548 c 0
 228 663 187 707 136 708 c 0
 96 708 62 679 34 621 c 1
 52 604 l 2
 53 605 59 613 71 626 c 0
 81 637 90 643 97 642 c 0
 126 641 159 605 194 536 c 0
 257 414 295 330 308 283 c 1
 308 69 l 2
 308 42 295 28 268 28 c 2
 205 28 l 1
 205 0 l 1
 500 0 l 1
 500 28 l 1
 438 28 l 2
 411 28 398 42 398 69 c 2
 398 284 l 1
 434 377 475 467 520 554 c 0
 547 605 574 631 600 631 c 0
 611 631 623 627 634 619 c 0
 643 612 648 609 648 608 c 2
 667 621 l 1
EndSplineSet
Validated: 41
EndChar

StartChar: uni1FEA
Encoding: 8170 8170 159
Width: 867
Flags: MW
HStem: 89 20G
LayerCount: 2
Fore
SplineSet
840 621 m 1
 827 675 808 703 783 705 c 0
 749 708 716 682 684 626 c 0
 659 582 632 521 601 444 c 0
 585 405 569 366 554 327 c 1
 513 432 481 505 460 548 c 0
 401 663 360 707 309 708 c 0
 269 708 235 679 207 621 c 1
 225 604 l 2
 226 605 232 613 244 626 c 0
 254 637 263 643 270 642 c 0
 299 641 332 605 367 536 c 0
 430 414 468 330 481 283 c 1
 481 69 l 2
 481 42 468 28 441 28 c 2
 378 28 l 1
 378 0 l 1
 673 0 l 1
 673 28 l 1
 611 28 l 2
 584 28 571 42 571 69 c 2
 571 284 l 1
 607 377 648 467 693 554 c 0
 720 605 747 631 773 631 c 0
 784 631 796 627 807 619 c 0
 816 612 821 609 821 608 c 2
 840 621 l 1
173 493 m 1
 141 493 l 1
 22 641 l 2
 17 648 6 663 2 673 c 0
 -9 700 28 738 67 719 c 0
 74 716 79 711 83 705 c 0
 107 663 145 544 173 493 c 1
EndSplineSet
Validated: 41
EndChar

StartChar: uni1FEC
Encoding: 8172 8172 160
Width: 759
Flags: MW
HStem: 0 21G<198 493 493 493> 444 195
LayerCount: 2
Fore
SplineSet
717 528 m 0
 714 645 642 703 500 703 c 2
 200 703 l 1
 200 673 l 1
 259 673 l 2
 286 673 300 659 300 631 c 2
 300 68 l 2
 300 41 287 28 261 28 c 2
 198 28 l 1
 198 0 l 1
 493 0 l 1
 493 28 l 1
 431 28 l 2
 405 28 392 41 392 66 c 2
 391 334 l 1
 468 333 526 336 565 343 c 0
 608 350 644 368 671 396 c 0
 703 429 718 473 717 528 c 0
628 527 m 0
 632 426 569 364 470 364 c 2
 391 364 l 1
 392 668 l 1
 489 669 l 2
 578 669 624 622 628 527 c 0
145 684 m 0
 141 707 124 718 93 716 c 0
 75 715 58 708 42 696 c 0
 23 682 10 664 4 642 c 0
 1 632 0 622 0 613 c 0
 0 586 11 563 33 545 c 0
 52 529 76 521 103 521 c 2
 111 521 l 1
 112 526 112 535 111 549 c 1
 72 555 51 569 49 591 c 0
 46 608 51 619 62 624 c 0
 66 626 76 628 91 629 c 0
 105 630 116 633 125 638 c 0
 143 648 150 663 145 684 c 0
EndSplineSet
Validated: 41
EndChar

StartChar: uni1F88
Encoding: 8072 8072 161
Width: 677
Flags: MW
HStem: 257 31 486 38
VStem: 70 70
LayerCount: 2
Fore
SplineSet
648 0 m 1
 648 31 l 1
 613 31 l 2
 593 31 565 51 558 72 c 0
 529 151 501 230 473 309 c 0
 457 356 414 490 345 711 c 1
 315 711 l 1
 125 128 l 2
 104 64 70 32 22 32 c 0
 17 32 13 32 10 33 c 2
 11 0 l 1
 250 0 l 1
 250 31 l 1
 185 31 153 44 153 71 c 0
 153 76 154 81 156 86 c 0
 187 185 202 234 203 235 c 2
 406 235 l 1
 449 93 l 2
 451 87 452 81 452 76 c 0
 452 51 433 31 412 31 c 2
 346 31 l 1
 346 0 l 1
 648 0 l 1
393 274 m 1
 216 274 l 1
 305 553 l 1
 393 274 l 1
359 -185 m 1
 353 -175 l 1
 343 -182 335 -185 328 -185 c 0
 315 -185 310 -174 315 -151 c 2
 333 -67 l 1
 265 -67 l 1
 247 -152 l 2
 244 -161 243 -170 243 -178 c 0
 243 -208 258 -223 288 -223 c 0
 315 -223 339 -210 359 -185 c 1
149 621 m 0
 149 682 104 719 52 718 c 0
 29 718 14 708 9 689 c 0
 3 668 9 652 26 641 c 1
 51 632 70 627 82 626 c 0
 89 624 92 618 92 609 c 0
 92 602 90 596 86 589 c 0
 73 566 51 554 20 553 c 1
 18 544 17 534 17 525 c 1
 21 524 26 523 32 523 c 0
 96 523 149 562 149 621 c 0
EndSplineSet
Validated: 41
EndChar

StartChar: uni1F89
Encoding: 8073 8073 162
Width: 690
Flags: MW
HStem: 257 31 444 195 486 38
VStem: 68 70
LayerCount: 2
Fore
SplineSet
661 0 m 1x90
 661 31 l 1
 626 31 l 2
 606 31 578 51 571 72 c 0
 542 151 514 230 486 309 c 0
 470 356 427 490 358 711 c 1
 328 711 l 1
 138 128 l 2
 117 64 83 32 35 32 c 0
 30 32 26 32 23 33 c 2
 24 0 l 1
 263 0 l 1
 263 31 l 1
 198 31 166 44 166 71 c 0
 166 76 167 81 169 86 c 0
 200 185 215 234 216 235 c 2
 419 235 l 1
 462 93 l 2
 464 87 465 81 465 76 c 0
 465 51 446 31 425 31 c 2
 359 31 l 1
 359 0 l 1
 661 0 l 1x90
406 274 m 1
 229 274 l 1
 318 553 l 1
 406 274 l 1
372 -185 m 1
 366 -175 l 1
 356 -182 348 -185 341 -185 c 0
 328 -185 323 -174 328 -151 c 2
 346 -67 l 1
 278 -67 l 1
 260 -152 l 2
 257 -161 256 -170 256 -178 c 0
 256 -208 271 -223 301 -223 c 0
 328 -223 352 -210 372 -185 c 1
145 684 m 0
 141 707 124 718 93 716 c 0
 75 715 58 708 42 696 c 0
 23 682 10 664 4 642 c 0
 1 632 0 622 0 613 c 0
 0 586 11 563 33 545 c 0
 52 529 76 521 103 521 c 2
 111 521 l 1
 112 526 112 535 111 549 c 1
 72 555 51 569 49 591 c 0
 46 608 51 619 62 624 c 0
 66 626 76 628 91 629 c 0
 105 630 116 633 125 638 c 0
 143 648 150 663 145 684 c 0
EndSplineSet
Validated: 41
EndChar

StartChar: uni1F8A
Encoding: 8074 8074 163
Width: 850
Flags: MW
HStem: 257 31 486 38 530 83
VStem: 34 45 382 70
LayerCount: 2
Fore
SplineSet
821 0 m 1
 821 31 l 1
 786 31 l 2
 766 31 738 51 731 72 c 0
 702 151 674 230 646 309 c 0
 630 356 587 490 518 711 c 1
 488 711 l 1
 298 128 l 2
 277 64 243 32 195 32 c 0
 190 32 186 32 183 33 c 2
 184 0 l 1
 423 0 l 1
 423 31 l 1
 358 31 326 44 326 71 c 0
 326 76 327 81 329 86 c 0
 360 185 375 234 376 235 c 2
 579 235 l 1
 622 93 l 2
 624 87 625 81 625 76 c 0
 625 51 606 31 585 31 c 2
 519 31 l 1
 519 0 l 1
 821 0 l 1
566 274 m 1
 389 274 l 1
 478 553 l 1
 566 274 l 1
532 -185 m 1
 526 -175 l 1
 516 -182 508 -185 501 -185 c 0
 488 -185 483 -174 488 -151 c 2
 506 -67 l 1
 438 -67 l 1
 420 -152 l 2
 417 -161 416 -170 416 -178 c 0
 416 -208 431 -223 461 -223 c 0
 488 -223 512 -210 532 -185 c 1
322 496 m 1
 266 621 232 691 221 705 c 0
 214 713 203 717 188 717 c 0
 165 717 155 703 155 683 c 0
 155 671 159 660 168 650 c 0
 253 546 296 495 296 496 c 2
 322 496 l 1
137 599 m 0
 137 651 91 687 39 687 c 0
 27 687 17 682 9 671 c 0
 3 662 0 652 0 641 c 0
 0 616 18 604 53 604 c 0
 57 604 61 604 65 605 c 0
 78 606 92 591 92 576 c 0
 93 559 87 546 76 535 c 0
 73 530 63 523 48 513 c 1
 59 497 l 1
 82 504 102 518 119 540 c 0
 131 555 137 575 137 599 c 0
EndSplineSet
Validated: 41
EndChar

StartChar: uni1F8B
Encoding: 8075 8075 164
Width: 855
Flags: MW
HStem: 257 31 486 38 528 83
VStem: -57 45 418 70
LayerCount: 2
Fore
SplineSet
826 0 m 1
 826 31 l 1
 791 31 l 2
 771 31 743 51 736 72 c 0
 707 151 679 230 651 309 c 0
 635 356 592 490 523 711 c 1
 493 711 l 1
 303 128 l 2
 282 64 248 32 200 32 c 0
 195 32 191 32 188 33 c 2
 189 0 l 1
 428 0 l 1
 428 31 l 1
 363 31 331 44 331 71 c 0
 331 76 332 81 334 86 c 0
 365 185 380 234 381 235 c 2
 584 235 l 1
 627 93 l 2
 629 87 630 81 630 76 c 0
 630 51 611 31 590 31 c 2
 524 31 l 1
 524 0 l 1
 826 0 l 1
571 274 m 1
 394 274 l 1
 483 553 l 1
 571 274 l 1
537 -185 m 1
 531 -175 l 1
 521 -182 513 -185 506 -185 c 0
 493 -185 488 -174 493 -151 c 2
 511 -67 l 1
 443 -67 l 1
 425 -152 l 2
 422 -161 421 -170 421 -178 c 0
 421 -208 436 -223 466 -223 c 0
 493 -223 517 -210 537 -185 c 1
333 494 m 1
 277 620 243 690 232 703 c 0
 225 712 214 716 199 716 c 0
 176 716 166 701 166 681 c 0
 166 669 170 658 179 648 c 0
 264 544 307 493 307 494 c 2
 333 494 l 1
137 640 m 0
 137 651 134 660 128 669 c 0
 121 680 111 685 98 685 c 0
 46 685 0 649 0 598 c 0
 0 574 6 554 19 539 c 0
 36 517 56 502 79 495 c 1
 90 511 l 1
 75 522 65 529 61 533 c 0
 50 544 45 558 45 574 c 0
 45 589 59 606 72 603 c 0
 76 602 80 602 85 602 c 0
 120 602 137 615 137 640 c 0
EndSplineSet
Validated: 41
EndChar

StartChar: uni1F8C
Encoding: 8076 8076 165
Width: 838
Flags: MW
HStem: 257 31 486 38 526 83
VStem: -54 45 322 70
LayerCount: 2
Fore
SplineSet
809 0 m 1
 809 31 l 1
 774 31 l 2
 754 31 726 51 719 72 c 0
 690 151 662 230 634 309 c 0
 618 356 575 490 506 711 c 1
 476 711 l 1
 286 128 l 2
 265 64 231 32 183 32 c 0
 178 32 174 32 171 33 c 2
 172 0 l 1
 411 0 l 1
 411 31 l 1
 346 31 314 44 314 71 c 0
 314 76 315 81 317 86 c 0
 348 185 363 234 364 235 c 2
 567 235 l 1
 610 93 l 2
 612 87 613 81 613 76 c 0
 613 51 594 31 573 31 c 2
 507 31 l 1
 507 0 l 1
 809 0 l 1
554 274 m 1
 377 274 l 1
 466 553 l 1
 554 274 l 1
520 -185 m 1
 514 -175 l 1
 504 -182 496 -185 489 -185 c 0
 476 -185 471 -174 476 -151 c 2
 494 -67 l 1
 426 -67 l 1
 408 -152 l 2
 405 -161 404 -170 404 -178 c 0
 404 -208 419 -223 449 -223 c 0
 476 -223 500 -210 520 -185 c 1
305 679 m 0
 305 698 296 713 273 713 c 0
 258 713 247 709 240 701 c 0
 228 687 194 617 138 491 c 1
 155 491 164 491 165 492 c 1
 165 490 208 541 293 646 c 0
 301 656 305 667 305 679 c 0
136 595 m 0
 136 646 91 683 39 683 c 0
 14 683 0 658 0 637 c 0
 0 612 17 599 52 599 c 0
 57 599 61 599 65 600 c 0
 78 603 91 585 91 572 c 0
 92 555 87 541 76 530 c 0
 72 526 62 519 47 509 c 1
 58 492 l 1
 81 499 101 514 118 536 c 0
 130 551 136 571 136 595 c 0
EndSplineSet
Validated: 41
EndChar

StartChar: uni1F8D
Encoding: 8077 8077 166
Width: 821
Flags: MW
HStem: 257 31 486 38 528 83
VStem: 23 45 316 70
LayerCount: 2
Fore
SplineSet
792 0 m 1
 792 31 l 1
 757 31 l 2
 737 31 709 51 702 72 c 0
 673 151 645 230 617 309 c 0
 601 356 558 490 489 711 c 1
 459 711 l 1
 269 128 l 2
 248 64 214 32 166 32 c 0
 161 32 157 32 154 33 c 2
 155 0 l 1
 394 0 l 1
 394 31 l 1
 329 31 297 44 297 71 c 0
 297 76 298 81 300 86 c 0
 331 185 346 234 347 235 c 2
 550 235 l 1
 593 93 l 2
 595 87 596 81 596 76 c 0
 596 51 577 31 556 31 c 2
 490 31 l 1
 490 0 l 1
 792 0 l 1
537 274 m 1
 360 274 l 1
 449 553 l 1
 537 274 l 1
503 -185 m 1
 497 -175 l 1
 487 -182 479 -185 472 -185 c 0
 459 -185 454 -174 459 -151 c 2
 477 -67 l 1
 409 -67 l 1
 391 -152 l 2
 388 -161 387 -170 387 -178 c 0
 387 -208 402 -223 432 -223 c 0
 459 -223 483 -210 503 -185 c 1
290 701 m 0
 301 688 301 663 285 644 c 0
 267 622 157 488 157 490 c 0
 157 491 131 490 131 490 c 1
 150 535 215 680 232 699 c 0
 242 710 275 719 290 701 c 0
137 636 m 0
 137 602 95 595 72 599 c 0
 58 601 45 583 45 570 c 0
 45 532 72 519 90 507 c 1
 78 491 l 1
 63 496 34 515 18 534 c 0
 5 551 -4 585 2 611 c 0
 11 650 49 681 98 681 c 0
 125 681 137 654 137 636 c 0
EndSplineSet
Validated: 41
EndChar

StartChar: uni1F8E
Encoding: 8078 8078 167
Width: 836
Flags: MW
HStem: 257 31 486 38
VStem: 231 70
LayerCount: 2
Fore
SplineSet
807 0 m 1
 807 31 l 1
 772 31 l 2
 752 31 724 51 717 72 c 0
 688 151 660 230 632 309 c 0
 616 356 573 490 504 711 c 1
 474 711 l 1
 284 128 l 2
 263 64 229 32 181 32 c 0
 176 32 172 32 169 33 c 2
 170 0 l 1
 409 0 l 1
 409 31 l 1
 344 31 312 44 312 71 c 0
 312 76 313 81 315 86 c 0
 346 185 361 234 362 235 c 2
 565 235 l 1
 608 93 l 2
 610 87 611 81 611 76 c 0
 611 51 592 31 571 31 c 2
 505 31 l 1
 505 0 l 1
 807 0 l 1
552 274 m 1
 375 274 l 1
 464 553 l 1
 552 274 l 1
518 -185 m 1
 512 -175 l 1
 502 -182 494 -185 487 -185 c 0
 474 -185 469 -174 474 -151 c 2
 492 -67 l 1
 424 -67 l 1
 406 -152 l 2
 403 -161 402 -170 402 -178 c 0
 402 -208 417 -223 447 -223 c 0
 474 -223 498 -210 518 -185 c 1
299 600 m 1
 299 616 290 636 272 659 c 0
 243 697 202 716 147 716 c 0
 78 716 29 677 0 600 c 1
 28 600 l 1
 51 646 91 669 147 669 c 0
 214 669 255 646 272 600 c 1
 299 600 l 1
225 525 m 0
 225 550 215 572 195 589 c 0
 176 605 153 613 127 613 c 0
 114 613 104 608 97 597 c 0
 91 588 88 579 88 568 c 0
 88 542 105 529 140 529 c 0
 145 529 149 530 153 531 c 0
 166 534 180 517 180 502 c 0
 180 486 175 472 164 461 c 0
 160 456 150 449 135 439 c 1
 147 423 l 1
 169 430 189 444 206 466 c 0
 219 481 225 501 225 525 c 0
EndSplineSet
Validated: 41
EndChar

StartChar: uni1F8F
Encoding: 8079 8079 168
Width: 839
Flags: MW
HStem: 257 31 486 38
VStem: 291 70
LayerCount: 2
Fore
SplineSet
810 0 m 1
 810 31 l 1
 775 31 l 2
 755 31 727 51 720 72 c 0
 691 151 663 230 635 309 c 0
 619 356 576 490 507 711 c 1
 477 711 l 1
 287 128 l 2
 266 64 232 32 184 32 c 0
 179 32 175 32 172 33 c 2
 173 0 l 1
 412 0 l 1
 412 31 l 1
 347 31 315 44 315 71 c 0
 315 76 316 81 318 86 c 0
 349 185 364 234 365 235 c 2
 568 235 l 1
 611 93 l 2
 613 87 614 81 614 76 c 0
 614 51 595 31 574 31 c 2
 508 31 l 1
 508 0 l 1
 810 0 l 1
555 274 m 1
 378 274 l 1
 467 553 l 1
 555 274 l 1
521 -185 m 1
 515 -175 l 1
 505 -182 497 -185 490 -185 c 0
 477 -185 472 -174 477 -151 c 2
 495 -67 l 1
 427 -67 l 1
 409 -152 l 2
 406 -161 405 -170 405 -178 c 0
 405 -208 420 -223 450 -223 c 0
 477 -223 501 -210 521 -185 c 1
300 599 m 1
 300 615 291 635 273 658 c 0
 244 695 202 714 147 714 c 0
 78 714 29 676 0 599 c 1
 28 599 l 1
 52 645 92 668 148 668 c 0
 214 668 255 645 272 599 c 1
 300 599 l 1
208 572 m 0
 208 583 205 592 198 601 c 0
 191 612 181 617 168 618 c 0
 141 618 119 610 100 594 c 0
 81 577 71 556 71 529 c 0
 71 506 77 486 89 471 c 0
 106 449 126 434 148 427 c 1
 160 443 l 1
 145 454 135 461 132 465 c 0
 121 476 115 490 116 506 c 0
 116 521 130 538 143 535 c 0
 146 534 150 534 155 534 c 0
 190 534 208 547 208 572 c 0
EndSplineSet
Validated: 41
EndChar

StartChar: uni1F98
Encoding: 8088 8088 169
Width: 844
Flags: MW
HStem: 0 21G
VStem: 373 70
LayerCount: 2
Fore
SplineSet
815 32 m 1
 755 31 l 2
 734 31 717 48 717 67 c 2
 717 638 l 2
 717 663 730 676 756 676 c 2
 814 676 l 1
 814 706 l 1
 536 706 l 1
 537 676 l 1
 596 676 l 2
 620 676 632 663 632 637 c 2
 632 382 l 1
 368 382 l 1
 367 637 l 2
 367 663 380 676 407 676 c 2
 466 676 l 1
 465 706 l 1
 187 706 l 1
 187 676 l 1
 246 676 l 2
 271 676 284 663 284 638 c 2
 284 71 l 2
 284 45 272 32 247 32 c 2
 188 32 l 1
 187 -1 l 1
 466 -1 l 1
 464 31 l 1
 406 31 l 2
 380 31 367 44 367 70 c 2
 368 348 l 1
 632 348 l 1
 632 70 l 2
 632 44 619 31 594 31 c 2
 536 31 l 1
 535 1 l 1
 815 1 l 1
 815 32 l 1
552 -185 m 1
 546 -175 l 1
 536 -182 528 -185 521 -185 c 0
 508 -185 503 -174 508 -151 c 2
 526 -67 l 1
 458 -67 l 1
 440 -152 l 2
 437 -161 436 -170 436 -178 c 0
 436 -208 451 -223 481 -223 c 0
 508 -223 532 -210 552 -185 c 1
149 621 m 0
 149 682 104 719 52 718 c 0
 29 718 14 708 9 689 c 0
 3 668 9 652 26 641 c 1
 51 632 70 627 82 626 c 0
 89 624 92 618 92 609 c 0
 92 602 90 596 86 589 c 0
 73 566 51 554 20 553 c 1
 18 544 17 534 17 525 c 1
 21 524 26 523 32 523 c 0
 96 523 149 562 149 621 c 0
EndSplineSet
Validated: 41
EndChar

StartChar: uni1F99
Encoding: 8089 8089 170
Width: 853
Flags: MW
HStem: 0 21G 444 195
VStem: 361 70
LayerCount: 2
Fore
SplineSet
824 32 m 1
 764 31 l 2
 743 31 726 48 726 67 c 2
 726 638 l 2
 726 663 739 676 765 676 c 2
 823 676 l 1
 823 706 l 1
 545 706 l 1
 546 676 l 1
 605 676 l 2
 629 676 641 663 641 637 c 2
 641 382 l 1
 377 382 l 1
 376 637 l 2
 376 663 389 676 416 676 c 2
 475 676 l 1
 474 706 l 1
 196 706 l 1
 196 676 l 1
 255 676 l 2
 280 676 293 663 293 638 c 2
 293 71 l 2
 293 45 281 32 256 32 c 2
 197 32 l 1
 196 -1 l 1
 475 -1 l 1
 473 31 l 1
 415 31 l 2
 389 31 376 44 376 70 c 2
 377 348 l 1
 641 348 l 1
 641 70 l 2
 641 44 628 31 603 31 c 2
 545 31 l 1
 544 1 l 1
 824 1 l 1
 824 32 l 1
561 -185 m 1
 555 -175 l 1
 545 -182 537 -185 530 -185 c 0
 517 -185 512 -174 517 -151 c 2
 535 -67 l 1
 467 -67 l 1
 449 -152 l 2
 446 -161 445 -170 445 -178 c 0
 445 -208 460 -223 490 -223 c 0
 517 -223 541 -210 561 -185 c 1
145 684 m 0
 141 707 124 718 93 716 c 0
 75 715 58 708 42 696 c 0
 23 682 10 664 4 642 c 0
 1 632 0 622 0 613 c 0
 0 586 11 563 33 545 c 0
 52 529 76 521 103 521 c 2
 111 521 l 1
 112 526 112 535 111 549 c 1
 72 555 51 569 49 591 c 0
 46 608 51 619 62 624 c 0
 66 626 76 628 91 629 c 0
 105 630 116 633 125 638 c 0
 143 648 150 663 145 684 c 0
EndSplineSet
Validated: 41
EndChar

StartChar: uni1F9A
Encoding: 8090 8090 171
Width: 1011
Flags: MW
HStem: 0 21G 530 83
VStem: 34 45 719 70
LayerCount: 2
Fore
SplineSet
982 32 m 1
 922 31 l 2
 901 31 884 48 884 67 c 2
 884 638 l 2
 884 663 897 676 923 676 c 2
 981 676 l 1
 981 706 l 1
 703 706 l 1
 704 676 l 1
 763 676 l 2
 787 676 799 663 799 637 c 2
 799 382 l 1
 535 382 l 1
 534 637 l 2
 534 663 547 676 574 676 c 2
 633 676 l 1
 632 706 l 1
 354 706 l 1
 354 676 l 1
 413 676 l 2
 438 676 451 663 451 638 c 2
 451 71 l 2
 451 45 439 32 414 32 c 2
 355 32 l 1
 354 -1 l 1
 633 -1 l 1
 631 31 l 1
 573 31 l 2
 547 31 534 44 534 70 c 2
 535 348 l 1
 799 348 l 1
 799 70 l 2
 799 44 786 31 761 31 c 2
 703 31 l 1
 702 1 l 1
 982 1 l 1
 982 32 l 1
719 -185 m 1
 713 -175 l 1
 703 -182 695 -185 688 -185 c 0
 675 -185 670 -174 675 -151 c 2
 693 -67 l 1
 625 -67 l 1
 607 -152 l 2
 604 -161 603 -170 603 -178 c 0
 603 -208 618 -223 648 -223 c 0
 675 -223 699 -210 719 -185 c 1
322 496 m 1
 266 621 232 691 221 705 c 0
 214 713 203 717 188 717 c 0
 165 717 155 703 155 683 c 0
 155 671 159 660 168 650 c 0
 253 546 296 495 296 496 c 2
 322 496 l 1
137 599 m 0
 137 651 91 687 39 687 c 0
 27 687 17 682 9 671 c 0
 3 662 0 652 0 641 c 0
 0 616 18 604 53 604 c 0
 57 604 61 604 65 605 c 0
 78 606 92 591 92 576 c 0
 93 559 87 546 76 535 c 0
 73 530 63 523 48 513 c 1
 59 497 l 1
 82 504 102 518 119 540 c 0
 131 555 137 575 137 599 c 0
EndSplineSet
Validated: 41
EndChar

StartChar: uni1F9B
Encoding: 8091 8091 172
Width: 1023
Flags: MW
HStem: 0 21G 528 83
VStem: -57 45 740 70
LayerCount: 2
Fore
SplineSet
994 32 m 1
 934 31 l 2
 913 31 896 48 896 67 c 2
 896 638 l 2
 896 663 909 676 935 676 c 2
 993 676 l 1
 993 706 l 1
 715 706 l 1
 716 676 l 1
 775 676 l 2
 799 676 811 663 811 637 c 2
 811 382 l 1
 547 382 l 1
 546 637 l 2
 546 663 559 676 586 676 c 2
 645 676 l 1
 644 706 l 1
 366 706 l 1
 366 676 l 1
 425 676 l 2
 450 676 463 663 463 638 c 2
 463 71 l 2
 463 45 451 32 426 32 c 2
 367 32 l 1
 366 -1 l 1
 645 -1 l 1
 643 31 l 1
 585 31 l 2
 559 31 546 44 546 70 c 2
 547 348 l 1
 811 348 l 1
 811 70 l 2
 811 44 798 31 773 31 c 2
 715 31 l 1
 714 1 l 1
 994 1 l 1
 994 32 l 1
731 -185 m 1
 725 -175 l 1
 715 -182 707 -185 700 -185 c 0
 687 -185 682 -174 687 -151 c 2
 705 -67 l 1
 637 -67 l 1
 619 -152 l 2
 616 -161 615 -170 615 -178 c 0
 615 -208 630 -223 660 -223 c 0
 687 -223 711 -210 731 -185 c 1
333 494 m 1
 277 620 243 690 232 703 c 0
 225 712 214 716 199 716 c 0
 176 716 166 701 166 681 c 0
 166 669 170 658 179 648 c 0
 264 544 307 493 307 494 c 2
 333 494 l 1
137 640 m 0
 137 651 134 660 128 669 c 0
 121 680 111 685 98 685 c 0
 46 685 0 649 0 598 c 0
 0 574 6 554 19 539 c 0
 36 517 56 502 79 495 c 1
 90 511 l 1
 75 522 65 529 61 533 c 0
 50 544 45 558 45 574 c 0
 45 589 59 606 72 603 c 0
 76 602 80 602 85 602 c 0
 120 602 137 615 137 640 c 0
EndSplineSet
Validated: 41
EndChar

StartChar: uni1F9C
Encoding: 8092 8092 173
Width: 997
Flags: MW
HStem: 0 21G 526 83
VStem: -54 45 687 70
LayerCount: 2
Fore
SplineSet
968 32 m 1
 908 31 l 2
 887 31 870 48 870 67 c 2
 870 638 l 2
 870 663 883 676 909 676 c 2
 967 676 l 1
 967 706 l 1
 689 706 l 1
 690 676 l 1
 749 676 l 2
 773 676 785 663 785 637 c 2
 785 382 l 1
 521 382 l 1
 520 637 l 2
 520 663 533 676 560 676 c 2
 619 676 l 1
 618 706 l 1
 340 706 l 1
 340 676 l 1
 399 676 l 2
 424 676 437 663 437 638 c 2
 437 71 l 2
 437 45 425 32 400 32 c 2
 341 32 l 1
 340 -1 l 1
 619 -1 l 1
 617 31 l 1
 559 31 l 2
 533 31 520 44 520 70 c 2
 521 348 l 1
 785 348 l 1
 785 70 l 2
 785 44 772 31 747 31 c 2
 689 31 l 1
 688 1 l 1
 968 1 l 1
 968 32 l 1
705 -185 m 1
 699 -175 l 1
 689 -182 681 -185 674 -185 c 0
 661 -185 656 -174 661 -151 c 2
 679 -67 l 1
 611 -67 l 1
 593 -152 l 2
 590 -161 589 -170 589 -178 c 0
 589 -208 604 -223 634 -223 c 0
 661 -223 685 -210 705 -185 c 1
305 679 m 0
 305 698 296 713 273 713 c 0
 258 713 247 709 240 701 c 0
 228 687 194 617 138 491 c 1
 155 491 164 491 165 492 c 1
 165 490 208 541 293 646 c 0
 301 656 305 667 305 679 c 0
136 595 m 0
 136 646 91 683 39 683 c 0
 14 683 0 658 0 637 c 0
 0 612 17 599 52 599 c 0
 57 599 61 599 65 600 c 0
 78 603 91 585 91 572 c 0
 92 555 87 541 76 530 c 0
 72 526 62 519 47 509 c 1
 58 492 l 1
 81 499 101 514 118 536 c 0
 130 551 136 571 136 595 c 0
EndSplineSet
Validated: 41
EndChar

StartChar: uni1F9D
Encoding: 8093 8093 174
Width: 990
Flags: MW
HStem: 0 21G 528 83
VStem: 23 45 671 70
LayerCount: 2
Fore
SplineSet
961 32 m 1
 901 31 l 2
 880 31 863 48 863 67 c 2
 863 638 l 2
 863 663 876 676 902 676 c 2
 960 676 l 1
 960 706 l 1
 682 706 l 1
 683 676 l 1
 742 676 l 2
 766 676 778 663 778 637 c 2
 778 382 l 1
 514 382 l 1
 513 637 l 2
 513 663 526 676 553 676 c 2
 612 676 l 1
 611 706 l 1
 333 706 l 1
 333 676 l 1
 392 676 l 2
 417 676 430 663 430 638 c 2
 430 71 l 2
 430 45 418 32 393 32 c 2
 334 32 l 1
 333 -1 l 1
 612 -1 l 1
 610 31 l 1
 552 31 l 2
 526 31 513 44 513 70 c 2
 514 348 l 1
 778 348 l 1
 778 70 l 2
 778 44 765 31 740 31 c 2
 682 31 l 1
 681 1 l 1
 961 1 l 1
 961 32 l 1
698 -185 m 1
 692 -175 l 1
 682 -182 674 -185 667 -185 c 0
 654 -185 649 -174 654 -151 c 2
 672 -67 l 1
 604 -67 l 1
 586 -152 l 2
 583 -161 582 -170 582 -178 c 0
 582 -208 597 -223 627 -223 c 0
 654 -223 678 -210 698 -185 c 1
290 701 m 0
 301 688 301 663 285 644 c 0
 267 622 157 488 157 490 c 0
 157 491 131 490 131 490 c 1
 150 535 215 680 232 699 c 0
 242 710 275 719 290 701 c 0
137 636 m 0
 137 602 95 595 72 599 c 0
 58 601 45 583 45 570 c 0
 45 532 72 519 90 507 c 1
 78 491 l 1
 63 496 34 515 18 534 c 0
 5 551 -4 585 2 611 c 0
 11 650 49 681 98 681 c 0
 125 681 137 654 137 636 c 0
EndSplineSet
Validated: 41
EndChar

StartChar: uni1F9E
Encoding: 8094 8094 175
Width: 990
Flags: MW
HStem: 0 21G
VStem: 630 70
LayerCount: 2
Fore
SplineSet
961 32 m 1
 901 31 l 2
 880 31 863 48 863 67 c 2
 863 638 l 2
 863 663 876 676 902 676 c 2
 960 676 l 1
 960 706 l 1
 682 706 l 1
 683 676 l 1
 742 676 l 2
 766 676 778 663 778 637 c 2
 778 382 l 1
 514 382 l 1
 513 637 l 2
 513 663 526 676 553 676 c 2
 612 676 l 1
 611 706 l 1
 333 706 l 1
 333 676 l 1
 392 676 l 2
 417 676 430 663 430 638 c 2
 430 71 l 2
 430 45 418 32 393 32 c 2
 334 32 l 1
 333 -1 l 1
 612 -1 l 1
 610 31 l 1
 552 31 l 2
 526 31 513 44 513 70 c 2
 514 348 l 1
 778 348 l 1
 778 70 l 2
 778 44 765 31 740 31 c 2
 682 31 l 1
 681 1 l 1
 961 1 l 1
 961 32 l 1
698 -185 m 1
 692 -175 l 1
 682 -182 674 -185 667 -185 c 0
 654 -185 649 -174 654 -151 c 2
 672 -67 l 1
 604 -67 l 1
 586 -152 l 2
 583 -161 582 -170 582 -178 c 0
 582 -208 597 -223 627 -223 c 0
 654 -223 678 -210 698 -185 c 1
299 600 m 1
 299 616 290 636 272 659 c 0
 243 697 202 716 147 716 c 0
 78 716 29 677 0 600 c 1
 28 600 l 1
 51 646 91 669 147 669 c 0
 214 669 255 646 272 600 c 1
 299 600 l 1
225 525 m 0
 225 550 215 572 195 589 c 0
 176 605 153 613 127 613 c 0
 114 613 104 608 97 597 c 0
 91 588 88 579 88 568 c 0
 88 542 105 529 140 529 c 0
 145 529 149 530 153 531 c 0
 166 534 180 517 180 502 c 0
 180 486 175 472 164 461 c 0
 160 456 150 449 135 439 c 1
 147 423 l 1
 169 430 189 444 206 466 c 0
 219 481 225 501 225 525 c 0
EndSplineSet
Validated: 41
EndChar

StartChar: uni1F9F
Encoding: 8095 8095 176
Width: 991
Flags: MW
HStem: 0 21G
VStem: 637 70
LayerCount: 2
Fore
SplineSet
962 32 m 1
 902 31 l 2
 881 31 864 48 864 67 c 2
 864 638 l 2
 864 663 877 676 903 676 c 2
 961 676 l 1
 961 706 l 1
 683 706 l 1
 684 676 l 1
 743 676 l 2
 767 676 779 663 779 637 c 2
 779 382 l 1
 515 382 l 1
 514 637 l 2
 514 663 527 676 554 676 c 2
 613 676 l 1
 612 706 l 1
 334 706 l 1
 334 676 l 1
 393 676 l 2
 418 676 431 663 431 638 c 2
 431 71 l 2
 431 45 419 32 394 32 c 2
 335 32 l 1
 334 -1 l 1
 613 -1 l 1
 611 31 l 1
 553 31 l 2
 527 31 514 44 514 70 c 2
 515 348 l 1
 779 348 l 1
 779 70 l 2
 779 44 766 31 741 31 c 2
 683 31 l 1
 682 1 l 1
 962 1 l 1
 962 32 l 1
699 -185 m 1
 693 -175 l 1
 683 -182 675 -185 668 -185 c 0
 655 -185 650 -174 655 -151 c 2
 673 -67 l 1
 605 -67 l 1
 587 -152 l 2
 584 -161 583 -170 583 -178 c 0
 583 -208 598 -223 628 -223 c 0
 655 -223 679 -210 699 -185 c 1
300 599 m 1
 300 615 291 635 273 658 c 0
 244 695 202 714 147 714 c 0
 78 714 29 676 0 599 c 1
 28 599 l 1
 52 645 92 668 148 668 c 0
 214 668 255 645 272 599 c 1
 300 599 l 1
208 572 m 0
 208 583 205 592 198 601 c 0
 191 612 181 617 168 618 c 0
 141 618 119 610 100 594 c 0
 81 577 71 556 71 529 c 0
 71 506 77 486 89 471 c 0
 106 449 126 434 148 427 c 1
 160 443 l 1
 145 454 135 461 132 465 c 0
 121 476 115 490 116 506 c 0
 116 521 130 538 143 535 c 0
 146 534 150 534 155 534 c 0
 190 534 208 547 208 572 c 0
EndSplineSet
Validated: 41
EndChar

StartChar: uni1FA8
Encoding: 8104 8104 177
Width: 845
Flags: MW
HStem: -5 85 667 31
VStem: 366 70
LayerCount: 2
Fore
SplineSet
796 431 m 0
 795 514 766 582 709 634 c 0
 654 683 585 707 504 707 c 0
 421 708 351 682 294 631 c 0
 234 578 204 511 204 431 c 0
 204 278 275 178 417 132 c 1
 417 88 l 1
 281 88 l 2
 251 88 236 99 236 121 c 0
 236 124 236 129 237 138 c 0
 238 145 238 150 237 154 c 1
 213 154 l 1
 213 0 l 1
 448 0 l 1
 448 156 l 1
 397 188 361 227 342 273 c 0
 325 310 317 362 317 429 c 0
 316 499 331 556 360 601 c 0
 393 652 441 678 504 678 c 0
 561 678 607 651 640 596 c 0
 669 549 683 494 683 431 c 0
 683 302 642 210 560 156 c 1
 560 0 l 1
 792 0 l 1
 792 154 l 1
 769 154 l 1
 768 140 766 126 765 111 c 1
 760 98 745 91 720 91 c 2
 592 91 l 1
 592 134 l 1
 655 154 704 190 741 243 c 0
 778 296 797 359 796 431 c 0
565 -185 m 1
 559 -175 l 1
 549 -182 541 -185 534 -185 c 0
 521 -185 516 -174 521 -151 c 2
 539 -67 l 1
 471 -67 l 1
 453 -152 l 2
 450 -161 449 -170 449 -178 c 0
 449 -208 464 -223 494 -223 c 0
 521 -223 545 -210 565 -185 c 1
149 621 m 0
 149 682 104 719 52 718 c 0
 29 718 14 708 9 689 c 0
 3 668 9 652 26 641 c 1
 51 632 70 627 82 626 c 0
 89 624 92 618 92 609 c 0
 92 602 90 596 86 589 c 0
 73 566 51 554 20 553 c 1
 18 544 17 534 17 525 c 1
 21 524 26 523 32 523 c 0
 96 523 149 562 149 621 c 0
EndSplineSet
Validated: 41
EndChar

StartChar: uni1FA9
Encoding: 8105 8105 178
Width: 846
Flags: MW
HStem: -5 85 444 195 667 31
VStem: 378 70
LayerCount: 2
Fore
SplineSet
797 431 m 0
 796 514 767 582 710 634 c 0
 655 683 586 707 505 707 c 0
 422 708 352 682 295 631 c 0
 235 578 205 511 205 431 c 0
 205 278 276 178 418 132 c 1
 418 88 l 1
 282 88 l 2
 252 88 237 99 237 121 c 0
 237 124 237 129 238 138 c 0
 239 145 239 150 238 154 c 1
 214 154 l 1
 214 0 l 1
 449 0 l 1
 449 156 l 1
 398 188 362 227 343 273 c 0
 326 310 318 362 318 429 c 0
 317 499 332 556 361 601 c 0
 394 652 442 678 505 678 c 0
 562 678 608 651 641 596 c 0
 670 549 684 494 684 431 c 0
 684 302 643 210 561 156 c 1
 561 0 l 1
 793 0 l 1
 793 154 l 1
 770 154 l 1
 769 140 767 126 766 111 c 1
 761 98 746 91 721 91 c 2
 593 91 l 1
 593 134 l 1
 656 154 705 190 742 243 c 0
 779 296 798 359 797 431 c 0
566 -185 m 1
 560 -175 l 1
 550 -182 542 -185 535 -185 c 0
 522 -185 517 -174 522 -151 c 2
 540 -67 l 1
 472 -67 l 1
 454 -152 l 2
 451 -161 450 -170 450 -178 c 0
 450 -208 465 -223 495 -223 c 0
 522 -223 546 -210 566 -185 c 1
145 684 m 0
 141 707 124 718 93 716 c 0
 75 715 58 708 42 696 c 0
 23 682 10 664 4 642 c 0
 1 632 0 622 0 613 c 0
 0 586 11 563 33 545 c 0
 52 529 76 521 103 521 c 2
 111 521 l 1
 112 526 112 535 111 549 c 1
 72 555 51 569 49 591 c 0
 46 608 51 619 62 624 c 0
 66 626 76 628 91 629 c 0
 105 630 116 633 125 638 c 0
 143 648 150 663 145 684 c 0
EndSplineSet
Validated: 41
EndChar

StartChar: uni1FAA
Encoding: 8106 8106 179
Width: 1014
Flags: MW
HStem: -5 85 530 83 667 31
VStem: 34 45 791 70
LayerCount: 2
Fore
SplineSet
965 431 m 0
 964 514 935 582 878 634 c 0
 823 683 754 707 673 707 c 0
 590 708 520 682 463 631 c 0
 403 578 373 511 373 431 c 0
 373 278 444 178 586 132 c 1
 586 88 l 1
 450 88 l 2
 420 88 405 99 405 121 c 0
 405 124 405 129 406 138 c 0
 407 145 407 150 406 154 c 1
 382 154 l 1
 382 0 l 1
 617 0 l 1
 617 156 l 1
 566 188 530 227 511 273 c 0
 494 310 486 362 486 429 c 0
 485 499 500 556 529 601 c 0
 562 652 610 678 673 678 c 0
 730 678 776 651 809 596 c 0
 838 549 852 494 852 431 c 0
 852 302 811 210 729 156 c 1
 729 0 l 1
 961 0 l 1
 961 154 l 1
 938 154 l 1
 937 140 935 126 934 111 c 1
 929 98 914 91 889 91 c 2
 761 91 l 1
 761 134 l 1
 824 154 873 190 910 243 c 0
 947 296 966 359 965 431 c 0
734 -185 m 1
 728 -175 l 1
 718 -182 710 -185 703 -185 c 0
 690 -185 685 -174 690 -151 c 2
 708 -67 l 1
 640 -67 l 1
 622 -152 l 2
 619 -161 618 -170 618 -178 c 0
 618 -208 633 -223 663 -223 c 0
 690 -223 714 -210 734 -185 c 1
322 496 m 1
 266 621 232 691 221 705 c 0
 214 713 203 717 188 717 c 0
 165 717 155 703 155 683 c 0
 155 671 159 660 168 650 c 0
 253 546 296 495 296 496 c 2
 322 496 l 1
137 599 m 0
 137 651 91 687 39 687 c 0
 27 687 17 682 9 671 c 0
 3 662 0 652 0 641 c 0
 0 616 18 604 53 604 c 0
 57 604 61 604 65 605 c 0
 78 606 92 591 92 576 c 0
 93 559 87 546 76 535 c 0
 73 530 63 523 48 513 c 1
 59 497 l 1
 82 504 102 518 119 540 c 0
 131 555 137 575 137 599 c 0
EndSplineSet
Validated: 41
EndChar

StartChar: uni1FAB
Encoding: 8107 8107 180
Width: 1024
Flags: MW
HStem: -5 85 528 83 667 31
VStem: -57 45 745 70
LayerCount: 2
Fore
SplineSet
975 431 m 0
 974 514 945 582 888 634 c 0
 833 683 764 707 683 707 c 0
 600 708 530 682 473 631 c 0
 413 578 383 511 383 431 c 0
 383 278 454 178 596 132 c 1
 596 88 l 1
 460 88 l 2
 430 88 415 99 415 121 c 0
 415 124 415 129 416 138 c 0
 417 145 417 150 416 154 c 1
 392 154 l 1
 392 0 l 1
 627 0 l 1
 627 156 l 1
 576 188 540 227 521 273 c 0
 504 310 496 362 496 429 c 0
 495 499 510 556 539 601 c 0
 572 652 620 678 683 678 c 0
 740 678 786 651 819 596 c 0
 848 549 862 494 862 431 c 0
 862 302 821 210 739 156 c 1
 739 0 l 1
 971 0 l 1
 971 154 l 1
 948 154 l 1
 947 140 945 126 944 111 c 1
 939 98 924 91 899 91 c 2
 771 91 l 1
 771 134 l 1
 834 154 883 190 920 243 c 0
 957 296 976 359 975 431 c 0
744 -185 m 1
 738 -175 l 1
 728 -182 720 -185 713 -185 c 0
 700 -185 695 -174 700 -151 c 2
 718 -67 l 1
 650 -67 l 1
 632 -152 l 2
 629 -161 628 -170 628 -178 c 0
 628 -208 643 -223 673 -223 c 0
 700 -223 724 -210 744 -185 c 1
333 494 m 1
 277 620 243 690 232 703 c 0
 225 712 214 716 199 716 c 0
 176 716 166 701 166 681 c 0
 166 669 170 658 179 648 c 0
 264 544 307 493 307 494 c 2
 333 494 l 1
137 640 m 0
 137 651 134 660 128 669 c 0
 121 680 111 685 98 685 c 0
 46 685 0 649 0 598 c 0
 0 574 6 554 19 539 c 0
 36 517 56 502 79 495 c 1
 90 511 l 1
 75 522 65 529 61 533 c 0
 50 544 45 558 45 574 c 0
 45 589 59 606 72 603 c 0
 76 602 80 602 85 602 c 0
 120 602 137 615 137 640 c 0
EndSplineSet
Validated: 41
EndChar

StartChar: uni1FAC
Encoding: 8108 8108 181
Width: 994
Flags: MW
HStem: -5 85 526 83 667 31
VStem: -54 45 706 70
LayerCount: 2
Fore
SplineSet
945 431 m 0
 944 514 915 582 858 634 c 0
 803 683 734 707 653 707 c 0
 570 708 500 682 443 631 c 0
 383 578 353 511 353 431 c 0
 353 278 424 178 566 132 c 1
 566 88 l 1
 430 88 l 2
 400 88 385 99 385 121 c 0
 385 124 385 129 386 138 c 0
 387 145 387 150 386 154 c 1
 362 154 l 1
 362 0 l 1
 597 0 l 1
 597 156 l 1
 546 188 510 227 491 273 c 0
 474 310 466 362 466 429 c 0
 465 499 480 556 509 601 c 0
 542 652 590 678 653 678 c 0
 710 678 756 651 789 596 c 0
 818 549 832 494 832 431 c 0
 832 302 791 210 709 156 c 1
 709 0 l 1
 941 0 l 1
 941 154 l 1
 918 154 l 1
 917 140 915 126 914 111 c 1
 909 98 894 91 869 91 c 2
 741 91 l 1
 741 134 l 1
 804 154 853 190 890 243 c 0
 927 296 946 359 945 431 c 0
714 -185 m 1
 708 -175 l 1
 698 -182 690 -185 683 -185 c 0
 670 -185 665 -174 670 -151 c 2
 688 -67 l 1
 620 -67 l 1
 602 -152 l 2
 599 -161 598 -170 598 -178 c 0
 598 -208 613 -223 643 -223 c 0
 670 -223 694 -210 714 -185 c 1
305 679 m 0
 305 698 296 713 273 713 c 0
 258 713 247 709 240 701 c 0
 228 687 194 617 138 491 c 1
 155 491 164 491 165 492 c 1
 165 490 208 541 293 646 c 0
 301 656 305 667 305 679 c 0
136 595 m 0
 136 646 91 683 39 683 c 0
 14 683 0 658 0 637 c 0
 0 612 17 599 52 599 c 0
 57 599 61 599 65 600 c 0
 78 603 91 585 91 572 c 0
 92 555 87 541 76 530 c 0
 72 526 62 519 47 509 c 1
 58 492 l 1
 81 499 101 514 118 536 c 0
 130 551 136 571 136 595 c 0
EndSplineSet
Validated: 41
EndChar

StartChar: uni1FAD
Encoding: 8109 8109 182
Width: 993
Flags: MW
HStem: -5 85 528 83 667 31
VStem: 23 45 718 70
LayerCount: 2
Fore
SplineSet
944 431 m 0
 943 514 914 582 857 634 c 0
 802 683 733 707 652 707 c 0
 569 708 499 682 442 631 c 0
 382 578 352 511 352 431 c 0
 352 278 423 178 565 132 c 1
 565 88 l 1
 429 88 l 2
 399 88 384 99 384 121 c 0
 384 124 384 129 385 138 c 0
 386 145 386 150 385 154 c 1
 361 154 l 1
 361 0 l 1
 596 0 l 1
 596 156 l 1
 545 188 509 227 490 273 c 0
 473 310 465 362 465 429 c 0
 464 499 479 556 508 601 c 0
 541 652 589 678 652 678 c 0
 709 678 755 651 788 596 c 0
 817 549 831 494 831 431 c 0
 831 302 790 210 708 156 c 1
 708 0 l 1
 940 0 l 1
 940 154 l 1
 917 154 l 1
 916 140 914 126 913 111 c 1
 908 98 893 91 868 91 c 2
 740 91 l 1
 740 134 l 1
 803 154 852 190 889 243 c 0
 926 296 945 359 944 431 c 0
713 -185 m 1
 707 -175 l 1
 697 -182 689 -185 682 -185 c 0
 669 -185 664 -174 669 -151 c 2
 687 -67 l 1
 619 -67 l 1
 601 -152 l 2
 598 -161 597 -170 597 -178 c 0
 597 -208 612 -223 642 -223 c 0
 669 -223 693 -210 713 -185 c 1
290 701 m 0
 301 688 301 663 285 644 c 0
 267 622 157 488 157 490 c 0
 157 491 131 490 131 490 c 1
 150 535 215 680 232 699 c 0
 242 710 275 719 290 701 c 0
137 636 m 0
 137 602 95 595 72 599 c 0
 58 601 45 583 45 570 c 0
 45 532 72 519 90 507 c 1
 78 491 l 1
 63 496 34 515 18 534 c 0
 5 551 -4 585 2 611 c 0
 11 650 49 681 98 681 c 0
 125 681 137 654 137 636 c 0
EndSplineSet
Validated: 41
EndChar

StartChar: uni1FAE
Encoding: 8110 8110 183
Width: 992
Flags: MW
HStem: -5 85 667 31
VStem: 619 70
LayerCount: 2
Fore
SplineSet
943 431 m 0
 942 514 913 582 856 634 c 0
 801 683 732 707 651 707 c 0
 568 708 498 682 441 631 c 0
 381 578 351 511 351 431 c 0
 351 278 422 178 564 132 c 1
 564 88 l 1
 428 88 l 2
 398 88 383 99 383 121 c 0
 383 124 383 129 384 138 c 0
 385 145 385 150 384 154 c 1
 360 154 l 1
 360 0 l 1
 595 0 l 1
 595 156 l 1
 544 188 508 227 489 273 c 0
 472 310 464 362 464 429 c 0
 463 499 478 556 507 601 c 0
 540 652 588 678 651 678 c 0
 708 678 754 651 787 596 c 0
 816 549 830 494 830 431 c 0
 830 302 789 210 707 156 c 1
 707 0 l 1
 939 0 l 1
 939 154 l 1
 916 154 l 1
 915 140 913 126 912 111 c 1
 907 98 892 91 867 91 c 2
 739 91 l 1
 739 134 l 1
 802 154 851 190 888 243 c 0
 925 296 944 359 943 431 c 0
712 -185 m 1
 706 -175 l 1
 696 -182 688 -185 681 -185 c 0
 668 -185 663 -174 668 -151 c 2
 686 -67 l 1
 618 -67 l 1
 600 -152 l 2
 597 -161 596 -170 596 -178 c 0
 596 -208 611 -223 641 -223 c 0
 668 -223 692 -210 712 -185 c 1
299 600 m 1
 299 616 290 636 272 659 c 0
 243 697 202 716 147 716 c 0
 78 716 29 677 0 600 c 1
 28 600 l 1
 51 646 91 669 147 669 c 0
 214 669 255 646 272 600 c 1
 299 600 l 1
225 525 m 0
 225 550 215 572 195 589 c 0
 176 605 153 613 127 613 c 0
 114 613 104 608 97 597 c 0
 91 588 88 579 88 568 c 0
 88 542 105 529 140 529 c 0
 145 529 149 530 153 531 c 0
 166 534 180 517 180 502 c 0
 180 486 175 472 164 461 c 0
 160 456 150 449 135 439 c 1
 147 423 l 1
 169 430 189 444 206 466 c 0
 219 481 225 501 225 525 c 0
EndSplineSet
Validated: 41
EndChar

StartChar: uni1FAF
Encoding: 8111 8111 184
Width: 992
Flags: MW
HStem: -5 85 667 31
VStem: 632 70
LayerCount: 2
Fore
SplineSet
943 431 m 0
 942 514 913 582 856 634 c 0
 801 683 732 707 651 707 c 0
 568 708 498 682 441 631 c 0
 381 578 351 511 351 431 c 0
 351 278 422 178 564 132 c 1
 564 88 l 1
 428 88 l 2
 398 88 383 99 383 121 c 0
 383 124 383 129 384 138 c 0
 385 145 385 150 384 154 c 1
 360 154 l 1
 360 0 l 1
 595 0 l 1
 595 156 l 1
 544 188 508 227 489 273 c 0
 472 310 464 362 464 429 c 0
 463 499 478 556 507 601 c 0
 540 652 588 678 651 678 c 0
 708 678 754 651 787 596 c 0
 816 549 830 494 830 431 c 0
 830 302 789 210 707 156 c 1
 707 0 l 1
 939 0 l 1
 939 154 l 1
 916 154 l 1
 915 140 913 126 912 111 c 1
 907 98 892 91 867 91 c 2
 739 91 l 1
 739 134 l 1
 802 154 851 190 888 243 c 0
 925 296 944 359 943 431 c 0
712 -185 m 1
 706 -175 l 1
 696 -182 688 -185 681 -185 c 0
 668 -185 663 -174 668 -151 c 2
 686 -67 l 1
 618 -67 l 1
 600 -152 l 2
 597 -161 596 -170 596 -178 c 0
 596 -208 611 -223 641 -223 c 0
 668 -223 692 -210 712 -185 c 1
300 599 m 1
 300 615 291 635 273 658 c 0
 244 695 202 714 147 714 c 0
 78 714 29 676 0 599 c 1
 28 599 l 1
 52 645 92 668 148 668 c 0
 214 668 255 645 272 599 c 1
 300 599 l 1
208 572 m 0
 208 583 205 592 198 601 c 0
 191 612 181 617 168 618 c 0
 141 618 119 610 100 594 c 0
 81 577 71 556 71 529 c 0
 71 506 77 486 89 471 c 0
 106 449 126 434 148 427 c 1
 160 443 l 1
 145 454 135 461 132 465 c 0
 121 476 115 490 116 506 c 0
 116 521 130 538 143 535 c 0
 146 534 150 534 155 534 c 0
 190 534 208 547 208 572 c 0
EndSplineSet
Validated: 41
EndChar

StartChar: uni1FF8
Encoding: 8184 8184 185
Width: 826
Flags: MW
HStem: -29 21
LayerCount: 2
Fore
SplineSet
781 354 m 0
 782 453 760 536 714 603 c 0
 662 678 590 716 499 716 c 0
 418 716 351 677 296 598 c 0
 245 525 219 444 219 354 c 0
 219 257 244 174 294 104 c 0
 349 29 418 -9 503 -9 c 0
 591 -9 660 30 711 108 c 0
 756 176 779 258 781 354 c 0
673 358 m 0
 673 267 666 197 651 150 c 0
 625 65 576 23 503 23 c 0
 428 23 378 64 351 146 c 0
 336 194 328 265 328 358 c 0
 328 449 337 520 354 569 c 0
 381 645 430 683 501 683 c 0
 573 683 622 646 648 572 c 0
 665 525 673 453 673 358 c 0
173 493 m 1
 141 493 l 1
 22 641 l 2
 17 648 6 663 2 673 c 0
 -9 700 28 738 67 719 c 0
 74 716 79 711 83 705 c 0
 107 663 145 544 173 493 c 1
EndSplineSet
Validated: 41
EndChar

StartChar: uni1FFA
Encoding: 8186 8186 186
Width: 866
Flags: MW
HStem: -5 85 667 31
LayerCount: 2
Fore
SplineSet
817 431 m 0
 816 514 787 582 730 634 c 0
 675 683 606 707 525 707 c 0
 442 708 372 682 315 631 c 0
 255 578 225 511 225 431 c 0
 225 278 296 178 438 132 c 1
 438 88 l 1
 302 88 l 2
 272 88 257 99 257 121 c 0
 257 124 257 129 258 138 c 0
 259 145 259 150 258 154 c 1
 234 154 l 1
 234 0 l 1
 469 0 l 1
 469 156 l 1
 418 188 382 227 363 273 c 0
 346 310 338 362 338 429 c 0
 337 499 352 556 381 601 c 0
 414 652 462 678 525 678 c 0
 582 678 628 651 661 596 c 0
 690 549 704 494 704 431 c 0
 704 302 663 210 581 156 c 1
 581 0 l 1
 813 0 l 1
 813 154 l 1
 790 154 l 1
 789 140 787 126 786 111 c 1
 781 98 766 91 741 91 c 2
 613 91 l 1
 613 134 l 1
 676 154 725 190 762 243 c 0
 799 296 818 359 817 431 c 0
173 493 m 1
 141 493 l 1
 22 641 l 2
 17 648 6 663 2 673 c 0
 -9 700 28 738 67 719 c 0
 74 716 79 711 83 705 c 0
 107 663 145 544 173 493 c 1
EndSplineSet
Validated: 41
EndChar

StartChar: uni1FFB
Encoding: 8187 8187 187
Width: 865
Flags: MW
HStem: -5 85 667 31
LayerCount: 2
Fore
SplineSet
816 431 m 0
 815 514 786 582 729 634 c 0
 674 683 605 707 524 707 c 0
 441 708 371 682 314 631 c 0
 254 578 224 511 224 431 c 0
 224 278 295 178 437 132 c 1
 437 88 l 1
 301 88 l 2
 271 88 256 99 256 121 c 0
 256 124 256 129 257 138 c 0
 258 145 258 150 257 154 c 1
 233 154 l 1
 233 0 l 1
 468 0 l 1
 468 156 l 1
 417 188 381 227 362 273 c 0
 345 310 337 362 337 429 c 0
 336 499 351 556 380 601 c 0
 413 652 461 678 524 678 c 0
 581 678 627 651 660 596 c 0
 689 549 703 494 703 431 c 0
 703 302 662 210 580 156 c 1
 580 0 l 1
 812 0 l 1
 812 154 l 1
 789 154 l 1
 788 140 786 126 785 111 c 1
 780 98 765 91 740 91 c 2
 612 91 l 1
 612 134 l 1
 675 154 724 190 761 243 c 0
 798 296 817 359 816 431 c 0
170 665 m 0
 171 669 172 673 172 678 c 0
 172 698 155 717 132 717 c 0
 119 717 103 710 95 698 c 0
 87 684 72 651 50 599 c 0
 27 546 10 511 1 494 c 1
 33 494 l 1
 150 634 l 2
 160 645 167 656 170 665 c 0
EndSplineSet
Validated: 41
EndChar

StartChar: uni1FBC
Encoding: 8124 8124 188
Width: 688
Flags: MW
HStem: 257 31 486 38
LayerCount: 2
Fore
SplineSet
659 0 m 1
 659 31 l 1
 624 31 l 2
 604 31 576 51 569 72 c 0
 540 151 512 230 484 309 c 0
 468 356 425 490 356 711 c 1
 326 711 l 1
 136 128 l 2
 115 64 81 32 33 32 c 0
 28 32 24 32 21 33 c 2
 22 0 l 1
 261 0 l 1
 261 31 l 1
 196 31 164 44 164 71 c 0
 164 76 165 81 167 86 c 0
 198 185 213 234 214 235 c 2
 417 235 l 1
 460 93 l 2
 462 87 463 81 463 76 c 0
 463 51 444 31 423 31 c 2
 357 31 l 1
 357 0 l 1
 659 0 l 1
404 274 m 1
 227 274 l 1
 316 553 l 1
 404 274 l 1
370 -185 m 1
 364 -175 l 1
 354 -182 346 -185 339 -185 c 0
 326 -185 321 -174 326 -151 c 2
 344 -67 l 1
 276 -67 l 1
 258 -152 l 2
 255 -161 254 -170 254 -178 c 0
 254 -208 269 -223 299 -223 c 0
 326 -223 350 -210 370 -185 c 1
EndSplineSet
Validated: 41
EndChar

StartChar: uni1FCC
Encoding: 8140 8140 189
Width: 691
Flags: MW
HStem: 0 21G
LayerCount: 2
Fore
SplineSet
662 32 m 1
 602 31 l 2
 581 31 564 48 564 67 c 2
 564 638 l 2
 564 663 577 676 603 676 c 2
 661 676 l 1
 661 706 l 1
 383 706 l 1
 384 676 l 1
 443 676 l 2
 467 676 479 663 479 637 c 2
 479 382 l 1
 215 382 l 1
 214 637 l 2
 214 663 227 676 254 676 c 2
 313 676 l 1
 312 706 l 1
 34 706 l 1
 34 676 l 1
 93 676 l 2
 118 676 131 663 131 638 c 2
 131 71 l 2
 131 45 119 32 94 32 c 2
 35 32 l 1
 34 -1 l 1
 313 -1 l 1
 311 31 l 1
 253 31 l 2
 227 31 214 44 214 70 c 2
 215 348 l 1
 479 348 l 1
 479 70 l 2
 479 44 466 31 441 31 c 2
 383 31 l 1
 382 1 l 1
 662 1 l 1
 662 32 l 1
399 -185 m 1
 393 -175 l 1
 383 -182 375 -185 368 -185 c 0
 355 -185 350 -174 355 -151 c 2
 373 -67 l 1
 305 -67 l 1
 287 -152 l 2
 284 -161 283 -170 283 -178 c 0
 283 -208 298 -223 328 -223 c 0
 355 -223 379 -210 399 -185 c 1
EndSplineSet
Validated: 41
EndChar

StartChar: uni1FFC
Encoding: 8188 8188 190
Width: 694
Flags: MW
HStem: -5 85 667 31
LayerCount: 2
Fore
SplineSet
645 431 m 0
 644 514 615 582 558 634 c 0
 503 683 434 707 353 707 c 0
 270 708 200 682 143 631 c 0
 83 578 53 511 53 431 c 0
 53 278 124 178 266 132 c 1
 266 88 l 1
 130 88 l 2
 100 88 85 99 85 121 c 0
 85 124 85 129 86 138 c 0
 87 145 87 150 86 154 c 1
 62 154 l 1
 62 0 l 1
 297 0 l 1
 297 156 l 1
 246 188 210 227 191 273 c 0
 174 310 166 362 166 429 c 0
 165 499 180 556 209 601 c 0
 242 652 290 678 353 678 c 0
 410 678 456 651 489 596 c 0
 518 549 532 494 532 431 c 0
 532 302 491 210 409 156 c 1
 409 0 l 1
 641 0 l 1
 641 154 l 1
 618 154 l 1
 617 140 615 126 614 111 c 1
 609 98 594 91 569 91 c 2
 441 91 l 1
 441 134 l 1
 504 154 553 190 590 243 c 0
 627 296 646 359 645 431 c 0
414 -185 m 1
 408 -175 l 1
 398 -182 390 -185 383 -185 c 0
 370 -185 365 -174 370 -151 c 2
 388 -67 l 1
 320 -67 l 1
 302 -152 l 2
 299 -161 298 -170 298 -178 c 0
 298 -208 313 -223 343 -223 c 0
 370 -223 394 -210 414 -185 c 1
EndSplineSet
Validated: 41
EndChar

StartChar: uni1FC2
Encoding: 8130 8130 191
Width: 500
Flags: MW
HStem: 490 78
AnchorPoint: "Base" 340 -180 basechar 0
LayerCount: 2
Fore
SplineSet
444 244 m 0
 448 263 450 281 450 298 c 0
 450 367 411 406 351 406 c 0
 339 406 326 404 313 401 c 0
 266 390 224 350 189 279 c 1
 190 312 184 341 171 364 c 0
 156 391 135 404 106 404 c 0
 77 405 55 391 40 362 c 0
 31 345 22 317 13 278 c 1
 31 278 l 1
 48 323 71 344 101 343 c 0
 115 343 127 335 137 319 c 0
 146 304 150 288 150 269 c 0
 150 262 149 255 148 248 c 0
 119 125 97 42 83 1 c 1
 78 1 101 1 154 0 c 1
 191 182 l 1
 223 311 270 376 331 376 c 0
 368 376 387 351 387 301 c 0
 387 280 383 256 376 229 c 0
 329 30 293 -121 268 -226 c 1
 306 -226 l 2
 332 -225 345 -225 345 -226 c 1
 354 -187 369 -113 392 -3 c 0
 415 107 432 189 444 244 c 0
170 -185 m 1
 164 -175 l 1
 154 -182 146 -185 139 -185 c 0
 126 -185 121 -174 126 -151 c 2
 144 -67 l 1
 76 -67 l 1
 58 -152 l 2
 55 -161 54 -170 54 -178 c 0
 54 -208 69 -223 99 -223 c 0
 126 -223 150 -210 170 -185 c 1
379 493 m 1
 347 493 l 1
 228 641 l 2
 223 648 212 663 208 673 c 0
 197 700 234 738 273 719 c 0
 280 716 285 711 289 705 c 0
 313 663 351 544 379 493 c 1
EndSplineSet
Validated: 41
EndChar

StartChar: uni1FC3
Encoding: 8131 8131 192
Width: 500
Flags: MW
HStem: 490 78
AnchorPoint: "Base" 340 -180 basechar 0
LayerCount: 2
Fore
SplineSet
444 244 m 0
 448 263 450 281 450 298 c 0
 450 367 411 406 351 406 c 0
 339 406 326 404 313 401 c 0
 266 390 224 350 189 279 c 1
 190 312 184 341 171 364 c 0
 156 391 135 404 106 404 c 0
 77 405 55 391 40 362 c 0
 31 345 22 317 13 278 c 1
 31 278 l 1
 48 323 71 344 101 343 c 0
 115 343 127 335 137 319 c 0
 146 304 150 288 150 269 c 0
 150 262 149 255 148 248 c 0
 119 125 97 42 83 1 c 1
 78 1 101 1 154 0 c 1
 191 182 l 1
 223 311 270 376 331 376 c 0
 368 376 387 351 387 301 c 0
 387 280 383 256 376 229 c 0
 329 30 293 -121 268 -226 c 1
 306 -226 l 2
 332 -225 345 -225 345 -226 c 1
 354 -187 369 -113 392 -3 c 0
 415 107 432 189 444 244 c 0
170 -185 m 1
 164 -175 l 1
 154 -182 146 -185 139 -185 c 0
 126 -185 121 -174 126 -151 c 2
 144 -67 l 1
 76 -67 l 1
 58 -152 l 2
 55 -161 54 -170 54 -178 c 0
 54 -208 69 -223 99 -223 c 0
 126 -223 150 -210 170 -185 c 1
EndSplineSet
Validated: 41
EndChar

StartChar: uni1FC4
Encoding: 8132 8132 193
Width: 500
Flags: MW
HStem: 490 78
AnchorPoint: "Base" 340 -180 basechar 0
LayerCount: 2
Fore
SplineSet
444 244 m 0
 448 263 450 281 450 298 c 0
 450 367 411 406 351 406 c 0
 339 406 326 404 313 401 c 0
 266 390 224 350 189 279 c 1
 190 312 184 341 171 364 c 0
 156 391 135 404 106 404 c 0
 77 405 55 391 40 362 c 0
 31 345 22 317 13 278 c 1
 31 278 l 1
 48 323 71 344 101 343 c 0
 115 343 127 335 137 319 c 0
 146 304 150 288 150 269 c 0
 150 262 149 255 148 248 c 0
 119 125 97 42 83 1 c 1
 78 1 101 1 154 0 c 1
 191 182 l 1
 223 311 270 376 331 376 c 0
 368 376 387 351 387 301 c 0
 387 280 383 256 376 229 c 0
 329 30 293 -121 268 -226 c 1
 306 -226 l 2
 332 -225 345 -225 345 -226 c 1
 354 -187 369 -113 392 -3 c 0
 415 107 432 189 444 244 c 0
170 -185 m 1
 164 -175 l 1
 154 -182 146 -185 139 -185 c 0
 126 -185 121 -174 126 -151 c 2
 144 -67 l 1
 76 -67 l 1
 58 -152 l 2
 55 -161 54 -170 54 -178 c 0
 54 -208 69 -223 99 -223 c 0
 126 -223 150 -210 170 -185 c 1
431 665 m 0
 432 669 433 673 433 678 c 0
 433 698 416 717 393 717 c 0
 380 717 364 710 356 698 c 0
 348 684 333 651 311 599 c 0
 288 546 271 511 262 494 c 1
 294 494 l 1
 411 634 l 2
 421 645 428 656 431 665 c 0
EndSplineSet
Validated: 41
EndChar

